<svg viewBox="0 0 802 766" fill="none" xmlns="http://www.w3.org/2000/svg">
<circle cx="32" cy="369" r="0.5" fill="#FFFFFF"/>
<circle cx="44" cy="380" r="0.5" fill="#FFFFFF"/>
<circle cx="34" cy="392" r="0.5" fill="#FFFFFF"/>
<circle cx="24" cy="404" r="0.5" fill="#FFFFFF"/>
<circle cx="32" cy="403" r="0.5" fill="#FFFFFF"/>
<circle cx="141" cy="147" r="0.5" fill="#FFFFFF"/>
<circle cx="84" cy="174" r="0.5" fill="#FFFFFF"/>
<circle cx="84" cy="289" r="0.5" fill="#FFFFFF"/>
<circle cx="154" cy="648" r="0.5" fill="#FFFFFF"/>
<circle cx="710" cy="455" r="0.5" fill="#FFFFFF"/>
<circle cx="664" cy="610" r="0.5" fill="#FFFFFF"/>
<circle cx="464" cy="712" r="0.5" fill="#FFFFFF"/>
<circle cx="708" cy="149" r="0.5" fill="#FFFFFF"/>
<circle cx="353" cy="29" r="0.5" fill="#FFFFFF"/>
<circle cx="394" cy="50" r="0.5" fill="#FFFFFF"/>
<circle cx="320" cy="42" r="0.5" fill="#FFFFFF"/>
<circle cx="168" cy="110" r="0.5" fill="#FFFFFF"/>
<circle cx="63" cy="538" r="0.5" fill="#FFFFFF"/>
<circle cx="305" cy="725" r="0.5" fill="#FFFFFF"/>
<circle cx="312" cy="692" r="0.5" fill="#FFFFFF"/>
<circle cx="72" cy="516" r="0.5" fill="#FFFFFF"/>
<circle cx="312" cy="692" r="0.5" fill="#FFFFFF"/>
<circle cx="720" cy="322" r="0.5" fill="#FFFFFF"/>
<circle cx="732" cy="333" r="0.5" fill="#FFFFFF"/>
<circle cx="722" cy="345" r="0.5" fill="#FFFFFF"/>
<circle cx="712" cy="357" r="0.5" fill="#FFFFFF"/>
<circle cx="720" cy="356" r="0.5" fill="#FFFFFF"/>
<circle cx="729" cy="313" r="0.5" fill="#FFFFFF"/>
<circle cx="741" cy="324" r="0.5" fill="#FFFFFF"/>
<circle cx="731" cy="336" r="0.5" fill="#FFFFFF"/>
<circle cx="721" cy="348" r="0.5" fill="#FFFFFF"/>
<circle cx="729" cy="347" r="0.5" fill="#FFFFFF"/>
<circle cx="757" cy="316" r="0.5" fill="#FFFFFF"/>
<circle cx="769" cy="327" r="0.5" fill="#FFFFFF"/>
<circle cx="759" cy="339" r="0.5" fill="#FFFFFF"/>
<circle cx="749" cy="351" r="0.5" fill="#FFFFFF"/>
<circle cx="757" cy="350" r="0.5" fill="#FFFFFF"/>
<circle cx="248" cy="672" r="0.5" fill="#FFFFFF"/>
<circle cx="260" cy="683" r="0.5" fill="#FFFFFF"/>
<circle cx="250" cy="695" r="0.5" fill="#FFFFFF"/>
<circle cx="240" cy="707" r="0.5" fill="#FFFFFF"/>
<circle cx="248" cy="706" r="0.5" fill="#FFFFFF"/>
<circle cx="659.304" cy="139.243" r="0.5" transform="rotate(-67.7409 659.304 139.243)" fill="#FFFFFF"/>
<circle cx="674.03" cy="132.304" r="0.5" transform="rotate(-67.7409 674.03 132.304)" fill="#FFFFFF"/>
<circle cx="681.348" cy="146.105" r="0.5" transform="rotate(-67.7409 681.348 146.105)" fill="#FFFFFF"/>
<circle cx="688.666" cy="159.905" r="0.5" transform="rotate(-67.7409 688.666 159.905)" fill="#FFFFFF"/>
<circle cx="690.771" cy="152.122" r="0.5" transform="rotate(-67.7409 690.771 152.122)" fill="#FFFFFF"/>
<circle cx="58" cy="479" r="0.5" fill="#FFFFFF"/>
<circle cx="70" cy="490" r="0.5" fill="#FFFFFF"/>
<circle cx="60" cy="502" r="0.5" fill="#FFFFFF"/>
<circle cx="50" cy="514" r="0.5" fill="#FFFFFF"/>
<circle cx="58" cy="513" r="0.5" fill="#FFFFFF"/>
<ellipse rx="1.35998" ry="1.43761" transform="matrix(0.79491 0.606728 -0.497589 0.867413 496.481 712.072)" fill="#FFFFFF"/>
<ellipse rx="1.35998" ry="1.43761" transform="matrix(0.79491 0.606728 -0.497589 0.867413 483.585 680.691)" fill="#FFFFFF"/>
<ellipse rx="1.35998" ry="1.43761" transform="matrix(0.79491 0.606728 -0.497589 0.867413 464.19 687.403)" fill="#FFFFFF"/>
<ellipse rx="1.35998" ry="1.43761" transform="matrix(0.79491 0.606728 -0.497589 0.867413 444.796 694.116)" fill="#FFFFFF"/>
<ellipse rx="1.35998" ry="1.43761" transform="matrix(0.79491 0.606728 -0.497589 0.867413 454.159 699.47)" fill="#FFFFFF"/>
<ellipse cx="110" cy="177.5" rx="2" ry="1.5" fill="#FFFFFF"/>
<circle cx="130.5" cy="192.5" r="0.5" fill="#FFFFFF"/>
<circle cx="113.5" cy="209.5" r="0.5" fill="#FFFFFF"/>
<circle cx="96.5" cy="226.5" r="0.5" fill="#FFFFFF"/>
<ellipse cx="110" cy="225.5" rx="2" ry="1.5" fill="#FFFFFF"/>
<circle cx="214.769" cy="684.804" r="0.5" transform="rotate(-56.7265 214.769 684.804)" fill="#FFFFFF"/>
<circle cx="310.917" cy="747.897" r="0.5" transform="rotate(-56.7265 310.917 747.897)" fill="#FFFFFF"/>
<ellipse cx="231.961" cy="664.987" rx="2" ry="1.5" transform="rotate(-56.7265 231.961 664.987)" fill="#FFFFFF"/>
<circle cx="255.749" cy="656.077" r="0.5" transform="rotate(-56.7265 255.749 656.077)" fill="#FFFFFF"/>
<circle cx="260.635" cy="679.617" r="0.5" transform="rotate(-56.7265 260.635 679.617)" fill="#FFFFFF"/>
<circle cx="265.521" cy="703.157" r="0.5" transform="rotate(-56.7265 265.521 703.157)" fill="#FFFFFF"/>
<ellipse cx="272.092" cy="691.321" rx="2" ry="1.5" transform="rotate(-56.7265 272.092 691.321)" fill="#FFFFFF"/>
<circle cx="267" cy="8" r="0.5" fill="#FFFFFF"/>
<circle cx="237" cy="48" r="0.5" fill="#FFFFFF"/>
<ellipse cx="293" cy="11.5" rx="2" ry="1.5" fill="#FFFFFF"/>
<circle cx="313.5" cy="26.5" r="0.5" fill="#FFFFFF"/>
<circle cx="296.5" cy="43.5" r="0.5" fill="#FFFFFF"/>
<circle cx="279.5" cy="60.5" r="0.5" fill="#FFFFFF"/>
<ellipse cx="293" cy="59.5" rx="2" ry="1.5" fill="#FFFFFF"/>
<circle cx="25" cy="390" r="0.5" fill="#FFFFFF"/>
<circle cx="25" cy="505" r="0.5" fill="#FFFFFF"/>
<ellipse cx="51" cy="393.5" rx="2" ry="1.5" fill="#FFFFFF"/>
<circle cx="71.5" cy="408.5" r="0.5" fill="#FFFFFF"/>
<circle cx="54.5" cy="425.5" r="0.5" fill="#FFFFFF"/>
<circle cx="37.5" cy="442.5" r="0.5" fill="#FFFFFF"/>
<ellipse cx="51" cy="441.5" rx="2" ry="1.5" fill="#FFFFFF"/>
<ellipse rx="1.35429" ry="1.33868" transform="matrix(0.919933 0.392076 -0.403434 0.915009 30.655 345.756)" fill="#FFFFFF"/>
<ellipse rx="1.35429" ry="1.33868" transform="matrix(0.919933 0.392076 -0.403434 0.915009 59.7859 347.756)" fill="#FFFFFF"/>
<ellipse rx="1.35429" ry="1.33868" transform="matrix(0.919933 0.392076 -0.403434 0.915009 20.7253 374.991)" fill="#FFFFFF"/>
<ellipse rx="1.35429" ry="1.33868" transform="matrix(0.919933 0.392076 -0.403434 0.915009 1.78587 384.38)" fill="#FFFFFF"/>
<ellipse rx="1.35429" ry="1.33868" transform="matrix(0.919933 0.392076 -0.403434 0.915009 12.2937 387.403)" fill="#FFFFFF"/>
<circle cx="530.267" cy="44.913" r="0.5" transform="rotate(55.3848 530.267 44.913)" fill="#FFFFFF"/>
<circle cx="528.03" cy="61.0375" r="0.5" transform="rotate(55.3848 528.03 61.0375)" fill="#FFFFFF"/>
<circle cx="512.474" cy="59.6243" r="0.5" transform="rotate(55.3848 512.474 59.6243)" fill="#FFFFFF"/>
<circle cx="496.917" cy="58.2112" r="0.5" transform="rotate(55.3848 496.917 58.2112)" fill="#FFFFFF"/>
<circle cx="502.285" cy="64.227" r="0.5" transform="rotate(55.3848 502.285 64.227)" fill="#FFFFFF"/>
<circle cx="766" cy="386" r="0.5" fill="#FFFFFF"/>
<circle cx="778" cy="397" r="0.5" fill="#FFFFFF"/>
<circle cx="768" cy="409" r="0.5" fill="#FFFFFF"/>
<circle cx="758" cy="421" r="0.5" fill="#FFFFFF"/>
<circle cx="766" cy="420" r="0.5" fill="#FFFFFF"/>
<circle cx="465" cy="63" r="0.5" fill="#FFFFFF"/>
<circle cx="338" cy="26" r="0.5" fill="#FFFFFF"/>
<circle cx="305" cy="39" r="0.5" fill="#FFFFFF"/>
<circle cx="165" cy="160" r="0.5" fill="#FFFFFF"/>
<circle cx="25" cy="391" r="0.5" fill="#FFFFFF"/>
<circle cx="227" cy="694" r="0.5" fill="#FFFFFF"/>
<circle cx="287" cy="734" r="0.5" fill="#FFFFFF"/>
<circle cx="309" cy="715" r="0.5" fill="#FFFFFF"/>
<circle cx="533" cy="681" r="0.5" fill="#FFFFFF"/>
<circle cx="629" cy="572" r="0.5" fill="#FFFFFF"/>
<circle cx="743" cy="518" r="0.5" fill="#FFFFFF"/>
<circle cx="734" cy="526" r="0.5" fill="#FFFFFF"/>
<circle cx="676" cy="619" r="0.5" fill="#FFFFFF"/>
<circle cx="523" cy="683" r="0.5" fill="#FFFFFF"/>
<circle cx="315" cy="703" r="0.5" fill="#FFFFFF"/>
<circle cx="56" cy="406" r="0.5" fill="#FFFFFF"/>
<circle cx="54" cy="423" r="0.5" fill="#FFFFFF"/>
<circle cx="407.702" cy="4.8057" r="0.5" transform="rotate(-47.7569 407.702 4.8057)" fill="#FFFFFF"/>
<circle cx="423.912" cy="3.31717" r="0.5" transform="rotate(-47.7569 423.912 3.31717)" fill="#FFFFFF"/>
<circle cx="426.073" cy="18.7875" r="0.5" transform="rotate(-47.7569 426.073 18.7875)" fill="#FFFFFF"/>
<circle cx="428.234" cy="34.2578" r="0.5" transform="rotate(-47.7569 428.234 34.2578)" fill="#FFFFFF"/>
<circle cx="432.872" cy="27.6631" r="0.5" transform="rotate(-47.7569 432.872 27.6631)" fill="#FFFFFF"/>
<circle cx="506.614" cy="59.5085" r="0.5" transform="rotate(-47.7569 506.614 59.5085)" fill="#FFFFFF"/>
<circle cx="522.824" cy="58.0199" r="0.5" transform="rotate(-47.7569 522.824 58.0199)" fill="#FFFFFF"/>
<circle cx="418.542" cy="24.1056" r="0.5" transform="rotate(-47.7569 418.542 24.1056)" fill="#FFFFFF"/>
<ellipse cx="438.612" cy="7.2108" rx="2" ry="1.5" transform="rotate(-47.7569 438.612 7.2108)" fill="#FFFFFF"/>
<circle cx="463.498" cy="2.11885" r="0.5" transform="rotate(-47.7569 463.498 2.11885)" fill="#FFFFFF"/>
<circle cx="464.654" cy="26.1326" r="0.5" transform="rotate(-47.7569 464.654 26.1326)" fill="#FFFFFF"/>
<circle cx="465.811" cy="50.1464" r="0.5" transform="rotate(-47.7569 465.811 50.1464)" fill="#FFFFFF"/>
<ellipse cx="474.146" cy="39.4802" rx="2" ry="1.5" transform="rotate(-47.7569 474.146 39.4802)" fill="#FFFFFF"/>
<ellipse rx="1.35429" ry="1.33868" transform="matrix(0.908704 -0.417442 0.406161 0.913802 404.557 17.1797)" fill="#FFFFFF"/>
<ellipse rx="1.35429" ry="1.33868" transform="matrix(0.908704 -0.417442 0.406161 0.913802 398.774 37.5126)" fill="#FFFFFF"/>
<ellipse rx="1.35429" ry="1.33868" transform="matrix(0.908704 -0.417442 0.406161 0.913802 408.077 31.7659)" fill="#FFFFFF"/>
<circle cx="419.282" cy="24.7779" r="0.5" transform="rotate(-47.7569 419.282 24.7779)" fill="#FFFFFF"/>
<circle cx="451.227" cy="11.9128" r="0.5" transform="rotate(-47.7569 451.227 11.9128)" fill="#FFFFFF"/>
<circle cx="462.467" cy="24.8221" r="0.5" transform="rotate(-47.7569 462.467 24.8221)" fill="#FFFFFF"/>
<circle cx="205.135" cy="663.033" r="0.5" transform="rotate(-28.7085 205.135 663.033)" fill="#FFFFFF"/>
<circle cx="202.46" cy="639.414" r="0.5" transform="rotate(-28.7085 202.46 639.414)" fill="#FFFFFF"/>
<circle cx="172.408" cy="613.687" r="0.5" transform="rotate(-28.7085 172.408 613.687)" fill="#FFFFFF"/>
<circle cx="188.217" cy="617.57" r="0.5" transform="rotate(-28.7085 188.217 617.57)" fill="#FFFFFF"/>
<circle cx="185.21" cy="632.899" r="0.5" transform="rotate(-28.7085 185.21 632.899)" fill="#FFFFFF"/>
<circle cx="182.204" cy="648.227" r="0.5" transform="rotate(-28.7085 182.204 648.227)" fill="#FFFFFF"/>
<circle cx="188.74" cy="643.507" r="0.5" transform="rotate(-28.7085 188.74 643.507)" fill="#FFFFFF"/>
<circle cx="142" cy="566.492" r="0.5" transform="rotate(-28.7085 142 566.492)" fill="#FFFFFF"/>
<circle cx="762.492" cy="321.898" r="0.5" transform="rotate(-28.7085 762.492 321.898)" fill="#FFFFFF"/>
<circle cx="759.817" cy="298.279" r="0.5" transform="rotate(-28.7085 759.817 298.279)" fill="#FFFFFF"/>
<circle cx="729.766" cy="272.552" r="0.5" transform="rotate(-28.7085 729.766 272.552)" fill="#FFFFFF"/>
<circle cx="745.574" cy="276.436" r="0.5" transform="rotate(-28.7085 745.574 276.436)" fill="#FFFFFF"/>
<circle cx="742.567" cy="291.764" r="0.5" transform="rotate(-28.7085 742.567 291.764)" fill="#FFFFFF"/>
<circle cx="739.562" cy="307.093" r="0.5" transform="rotate(-28.7085 739.562 307.093)" fill="#FFFFFF"/>
<circle cx="746.098" cy="302.373" r="0.5" transform="rotate(-28.7085 746.098 302.373)" fill="#FFFFFF"/>
<circle cx="721.386" cy="240.452" r="0.5" transform="rotate(-26.3706 721.386 240.452)" fill="#FFFFFF"/>
<circle cx="737.023" cy="244.977" r="0.5" transform="rotate(-26.3706 737.023 244.977)" fill="#FFFFFF"/>
<circle cx="733.394" cy="260.17" r="0.5" transform="rotate(-26.3706 733.394 260.17)" fill="#FFFFFF"/>
<circle cx="729.765" cy="275.363" r="0.5" transform="rotate(-26.3706 729.765 275.363)" fill="#FFFFFF"/>
<circle cx="736.488" cy="270.914" r="0.5" transform="rotate(-26.3706 736.488 270.914)" fill="#FFFFFF"/>
<circle cx="725.451" cy="228.391" r="0.5" transform="rotate(-26.3706 725.451 228.391)" fill="#FFFFFF"/>
<circle cx="741.089" cy="232.916" r="0.5" transform="rotate(-26.3706 741.089 232.916)" fill="#FFFFFF"/>
<circle cx="737.459" cy="248.109" r="0.5" transform="rotate(-26.3706 737.459 248.109)" fill="#FFFFFF"/>
<circle cx="733.83" cy="263.302" r="0.5" transform="rotate(-26.3706 733.83 263.302)" fill="#FFFFFF"/>
<circle cx="740.554" cy="258.853" r="0.5" transform="rotate(-26.3706 740.554 258.853)" fill="#FFFFFF"/>
<circle cx="724.06" cy="188.27" r="0.5" transform="rotate(-55.0792 724.06 188.27)" fill="#FFFFFF"/>
<circle cx="728.175" cy="203.339" r="0.5" transform="rotate(-55.0792 728.175 203.339)" fill="#FFFFFF"/>
<circle cx="732.29" cy="218.407" r="0.5" transform="rotate(-55.0792 732.29 218.407)" fill="#FFFFFF"/>
<circle cx="736.05" cy="211.275" r="0.5" transform="rotate(-55.0792 736.05 211.275)" fill="#FFFFFF"/>
<circle cx="549.527" cy="685.157" r="0.5" transform="rotate(26.8949 549.527 685.157)" fill="#FFFFFF"/>
<circle cx="555.254" cy="700.395" r="0.5" transform="rotate(26.8949 555.254 700.395)" fill="#FFFFFF"/>
<circle cx="540.907" cy="706.574" r="0.5" transform="rotate(26.8949 540.907 706.574)" fill="#FFFFFF"/>
<circle cx="526.561" cy="712.752" r="0.5" transform="rotate(26.8949 526.561 712.752)" fill="#FFFFFF"/>
<circle cx="534.147" cy="715.479" r="0.5" transform="rotate(26.8949 534.147 715.479)" fill="#FFFFFF"/>
<circle cx="561.626" cy="681.202" r="0.5" transform="rotate(26.8949 561.626 681.202)" fill="#FFFFFF"/>
<circle cx="567.352" cy="696.44" r="0.5" transform="rotate(26.8949 567.352 696.44)" fill="#FFFFFF"/>
<circle cx="553.005" cy="702.619" r="0.5" transform="rotate(26.8949 553.005 702.619)" fill="#FFFFFF"/>
<circle cx="538.658" cy="708.797" r="0.5" transform="rotate(26.8949 538.658 708.797)" fill="#FFFFFF"/>
<circle cx="546.245" cy="711.524" r="0.5" transform="rotate(26.8949 546.245 711.524)" fill="#FFFFFF"/>
<circle cx="592.947" cy="656.09" r="0.5" transform="rotate(-1.81365 592.947 656.09)" fill="#FFFFFF"/>
<circle cx="583.332" cy="668.4" r="0.5" transform="rotate(-1.81365 583.332 668.4)" fill="#FFFFFF"/>
<circle cx="573.717" cy="680.711" r="0.5" transform="rotate(-1.81365 573.717 680.711)" fill="#FFFFFF"/>
<circle cx="581.682" cy="679.458" r="0.5" transform="rotate(-1.81365 581.682 679.458)" fill="#FFFFFF"/>
<circle cx="699.357" cy="225.357" r="0.5" transform="rotate(-28.7085 699.357 225.357)" fill="#FFFFFF"/>
<circle cx="580.365" cy="108.218" r="0.5" transform="rotate(-47.0865 580.365 108.218)" fill="#FFFFFF"/>
<circle cx="596.592" cy="106.919" r="0.5" transform="rotate(-47.0865 596.592 106.919)" fill="#FFFFFF"/>
<circle cx="598.572" cy="122.414" r="0.5" transform="rotate(-47.0865 598.572 122.414)" fill="#FFFFFF"/>
<circle cx="600.552" cy="137.908" r="0.5" transform="rotate(-47.0865 600.552 137.908)" fill="#FFFFFF"/>
<circle cx="605.267" cy="131.368" r="0.5" transform="rotate(-47.0865 605.267 131.368)" fill="#FFFFFF"/>
<circle cx="579.903" cy="95.4986" r="0.5" transform="rotate(-47.0865 579.903 95.4986)" fill="#FFFFFF"/>
<circle cx="596.129" cy="94.1999" r="0.5" transform="rotate(-47.0865 596.129 94.1999)" fill="#FFFFFF"/>
<circle cx="598.109" cy="109.694" r="0.5" transform="rotate(-47.0865 598.109 109.694)" fill="#FFFFFF"/>
<circle cx="600.088" cy="125.189" r="0.5" transform="rotate(-47.0865 600.088 125.189)" fill="#FFFFFF"/>
<circle cx="604.803" cy="118.649" r="0.5" transform="rotate(-47.0865 604.803 118.649)" fill="#FFFFFF"/>
<circle cx="601.164" cy="77.0346" r="0.5" transform="rotate(-47.0865 601.164 77.0346)" fill="#FFFFFF"/>
<circle cx="617.391" cy="75.7358" r="0.5" transform="rotate(-47.0865 617.391 75.7358)" fill="#FFFFFF"/>
<circle cx="619.371" cy="91.2304" r="0.5" transform="rotate(-47.0865 619.371 91.2304)" fill="#FFFFFF"/>
<circle cx="621.351" cy="106.725" r="0.5" transform="rotate(-47.0865 621.351 106.725)" fill="#FFFFFF"/>
<circle cx="626.066" cy="100.185" r="0.5" transform="rotate(-47.0865 626.066 100.185)" fill="#FFFFFF"/>
<circle cx="658.559" cy="118.106" r="0.5" transform="rotate(-47.0865 658.559 118.106)" fill="#FFFFFF"/>
<circle cx="609.224" cy="77.028" r="0.5" transform="rotate(-75.795 609.224 77.028)" fill="#FFFFFF"/>
<circle cx="590.104" cy="62.905" r="0.5" transform="rotate(-75.795 590.104 62.905)" fill="#FFFFFF"/>
<circle cx="550.8" cy="67.3972" r="0.5" transform="rotate(-75.795 550.8 67.3972)" fill="#FFFFFF"/>
<circle cx="564.408" cy="58.4635" r="0.5" transform="rotate(-75.795 564.408 58.4635)" fill="#FFFFFF"/>
<circle cx="573.587" cy="71.1028" r="0.5" transform="rotate(-75.795 573.587 71.1028)" fill="#FFFFFF"/>
<circle cx="582.767" cy="83.7412" r="0.5" transform="rotate(-75.795 582.767 83.7412)" fill="#FFFFFF"/>
<circle cx="583.761" cy="75.7405" r="0.5" transform="rotate(-75.795 583.761 75.7405)" fill="#FFFFFF"/>
<circle cx="521.585" cy="51.6776" r="0.5" transform="rotate(-73.4571 521.585 51.6776)" fill="#FFFFFF"/>
<circle cx="535.546" cy="43.3067" r="0.5" transform="rotate(-73.4571 535.546 43.3067)" fill="#FFFFFF"/>
<circle cx="544.202" cy="56.3093" r="0.5" transform="rotate(-73.4571 544.202 56.3093)" fill="#FFFFFF"/>
<circle cx="552.859" cy="69.3118" r="0.5" transform="rotate(-73.4571 552.859 69.3118)" fill="#FFFFFF"/>
<circle cx="554.177" cy="61.3588" r="0.5" transform="rotate(-73.4571 554.177 61.3588)" fill="#FFFFFF"/>
<circle cx="515.52" cy="40.4878" r="0.5" transform="rotate(-73.4571 515.52 40.4878)" fill="#FFFFFF"/>
<circle cx="529.482" cy="32.1163" r="0.5" transform="rotate(-73.4571 529.482 32.1163)" fill="#FFFFFF"/>
<circle cx="538.137" cy="45.1196" r="0.5" transform="rotate(-73.4571 538.137 45.1196)" fill="#FFFFFF"/>
<circle cx="546.793" cy="58.1221" r="0.5" transform="rotate(-73.4571 546.793 58.1221)" fill="#FFFFFF"/>
<circle cx="548.112" cy="50.1684" r="0.5" transform="rotate(-73.4571 548.112 50.1684)" fill="#FFFFFF"/>
<circle cx="485.189" cy="14.1883" r="0.5" transform="rotate(-102.166 485.189 14.1883)" fill="#FFFFFF"/>
<circle cx="499.027" cy="21.4355" r="0.5" transform="rotate(-102.166 499.027 21.4355)" fill="#FFFFFF"/>
<circle cx="512.864" cy="28.6816" r="0.5" transform="rotate(-102.166 512.864 28.6816)" fill="#FFFFFF"/>
<circle cx="510.2" cy="21.0719" r="0.5" transform="rotate(-102.166 510.2 21.0719)" fill="#FFFFFF"/>
<circle cx="495.531" cy="57.533" r="0.5" transform="rotate(-75.795 495.531 57.533)" fill="#FFFFFF"/>
<circle cx="140.362" cy="146.874" r="0.5" transform="rotate(-35.7108 140.362 146.874)" fill="#FFFFFF"/>
<circle cx="248.037" cy="63.2053" r="0.5" transform="rotate(19.674 248.037 63.2053)" fill="#FFFFFF"/>
<circle cx="255.633" cy="77.6033" r="0.5" transform="rotate(19.674 255.633 77.6033)" fill="#FFFFFF"/>
<circle cx="242.176" cy="85.5362" r="0.5" transform="rotate(19.674 242.176 85.5362)" fill="#FFFFFF"/>
<circle cx="228.72" cy="93.4691" r="0.5" transform="rotate(19.674 228.72 93.4691)" fill="#FFFFFF"/>
<circle cx="236.59" cy="95.2204" r="0.5" transform="rotate(19.674 236.59 95.2204)" fill="#FFFFFF"/>
<circle cx="205.6" cy="115.987" r="0.5" transform="rotate(-35.7108 205.6 115.987)" fill="#FFFFFF"/>
<circle cx="125.107" cy="102.18" r="0.5" transform="rotate(-83.4677 125.107 102.18)" fill="#FFFFFF"/>
<circle cx="137.4" cy="91.5094" r="0.5" transform="rotate(-83.4677 137.4 91.5094)" fill="#FFFFFF"/>
<circle cx="148.185" cy="102.809" r="0.5" transform="rotate(-83.4677 148.185 102.809)" fill="#FFFFFF"/>
<circle cx="158.97" cy="114.109" r="0.5" transform="rotate(-83.4677 158.97 114.109)" fill="#FFFFFF"/>
<circle cx="158.887" cy="106.048" r="0.5" transform="rotate(-83.4677 158.887 106.048)" fill="#FFFFFF"/>
<circle cx="237.35" cy="88.8624" r="0.5" transform="rotate(-83.4677 237.35 88.8624)" fill="#FFFFFF"/>
<circle cx="249.644" cy="78.1922" r="0.5" transform="rotate(-83.4677 249.644 78.1922)" fill="#FFFFFF"/>
<circle cx="145.174" cy="111.523" r="0.5" transform="rotate(-83.4677 145.174 111.523)" fill="#FFFFFF"/>
<ellipse cx="151.609" cy="86.0902" rx="2" ry="1.5" transform="rotate(-83.4677 151.609 86.0902)" fill="#FFFFFF"/>
<circle cx="168.844" cy="67.4301" r="0.5" transform="rotate(-83.4677 168.844 67.4301)" fill="#FFFFFF"/>
<circle cx="183.8" cy="86.2538" r="0.5" transform="rotate(-83.4677 183.8 86.2538)" fill="#FFFFFF"/>
<circle cx="198.756" cy="105.077" r="0.5" transform="rotate(-83.4677 198.756 105.077)" fill="#FFFFFF"/>
<ellipse cx="199.298" cy="91.551" rx="2" ry="1.5" transform="rotate(-83.4677 199.298 91.551)" fill="#FFFFFF"/>
<ellipse rx="1.35429" ry="1.33868" transform="matrix(0.494185 -0.869357 0.863172 0.504909 129.776 114.063)" fill="#FFFFFF"/>
<ellipse rx="1.35429" ry="1.33868" transform="matrix(0.494185 -0.869357 0.863172 0.504909 136.949 133.948)" fill="#FFFFFF"/>
<ellipse rx="1.35429" ry="1.33868" transform="matrix(0.494185 -0.869357 0.863172 0.504909 141.149 123.852)" fill="#FFFFFF"/>
<circle cx="146.168" cy="111.637" r="0.5" transform="rotate(-83.4677 146.168 111.637)" fill="#FFFFFF"/>
<circle cx="164.597" cy="82.5449" r="0.5" transform="rotate(-83.4677 164.597 82.5449)" fill="#FFFFFF"/>
<circle cx="181.259" cy="86.4661" r="0.5" transform="rotate(-83.4677 181.259 86.4661)" fill="#FFFFFF"/>
<circle cx="277.833" cy="69.4768" r="0.5" transform="rotate(-111.506 277.833 69.4768)" fill="#FFFFFF"/>
<circle cx="283.668" cy="54.2797" r="0.5" transform="rotate(-111.506 283.668 54.2797)" fill="#FFFFFF"/>
<circle cx="298.498" cy="59.1849" r="0.5" transform="rotate(-111.506 298.498 59.1849)" fill="#FFFFFF"/>
<circle cx="244.937" cy="73.7653" r="0.5" transform="rotate(-109.168 244.937 73.7653)" fill="#FFFFFF"/>
<circle cx="251.387" cy="58.8194" r="0.5" transform="rotate(-109.168 251.387 58.8194)" fill="#FFFFFF"/>
<circle cx="266.005" cy="64.3246" r="0.5" transform="rotate(-109.168 266.005 64.3246)" fill="#FFFFFF"/>
<circle cx="280.623" cy="69.8297" r="0.5" transform="rotate(-109.168 280.623 69.8297)" fill="#FFFFFF"/>
<circle cx="277.051" cy="62.6025" r="0.5" transform="rotate(-109.168 277.051 62.6025)" fill="#FFFFFF"/>
<circle cx="233.48" cy="68.2198" r="0.5" transform="rotate(-109.168 233.48 68.2198)" fill="#FFFFFF"/>
<circle cx="239.931" cy="53.2729" r="0.5" transform="rotate(-109.168 239.931 53.2729)" fill="#FFFFFF"/>
<circle cx="254.548" cy="58.7792" r="0.5" transform="rotate(-109.168 254.548 58.7792)" fill="#FFFFFF"/>
<circle cx="269.166" cy="64.2844" r="0.5" transform="rotate(-109.168 269.166 64.2844)" fill="#FFFFFF"/>
<circle cx="265.595" cy="57.056" r="0.5" transform="rotate(-109.168 265.595 57.056)" fill="#FFFFFF"/>
<circle cx="193.501" cy="64.5694" r="0.5" transform="rotate(-137.876 193.501 64.5694)" fill="#FFFFFF"/>
<circle cx="208.967" cy="62.3768" r="0.5" transform="rotate(-137.876 208.967 62.3768)" fill="#FFFFFF"/>
<circle cx="224.433" cy="60.1833" r="0.5" transform="rotate(-137.876 224.433 60.1833)" fill="#FFFFFF"/>
<circle cx="217.827" cy="55.5595" r="0.5" transform="rotate(-137.876 217.827 55.5595)" fill="#FFFFFF"/>
<circle cx="227.2" cy="93.7273" r="0.5" transform="rotate(-111.506 227.2 93.7273)" fill="#FFFFFF"/>
<circle cx="174.027" cy="650.181" r="0.5" transform="rotate(-81.5162 174.027 650.181)" fill="#FFFFFF"/>
<circle cx="141.415" cy="618.018" r="0.5" transform="rotate(-81.5162 141.415 618.018)" fill="#FFFFFF"/>
<ellipse cx="199.619" cy="685.342" rx="2" ry="1.5" transform="rotate(-81.5162 199.619 685.342)" fill="#FFFFFF"/>
<circle cx="217.48" cy="667.279" r="0.5" transform="rotate(-81.5162 217.48 667.279)" fill="#FFFFFF"/>
<circle cx="231.786" cy="686.601" r="0.5" transform="rotate(-81.5162 231.786 686.601)" fill="#FFFFFF"/>
<circle cx="246.092" cy="705.923" r="0.5" transform="rotate(-81.5162 246.092 705.923)" fill="#FFFFFF"/>
<ellipse cx="247.094" cy="692.423" rx="2" ry="1.5" transform="rotate(-81.5162 247.094 692.423)" fill="#FFFFFF"/>
<circle cx="90.2732" cy="540.626" r="0.5" transform="rotate(-81.5162 90.2732 540.626)" fill="#FFFFFF"/>
<circle cx="190.426" cy="628.362" r="0.5" transform="rotate(-81.5162 190.426 628.362)" fill="#FFFFFF"/>
<circle cx="173.808" cy="650.794" r="0.5" transform="rotate(-117.227 173.808 650.794)" fill="#FFFFFF"/>
<circle cx="106.939" cy="531.954" r="0.5" transform="rotate(-61.8422 106.939 531.954)" fill="#FFFFFF"/>
<circle cx="122.301" cy="526.564" r="0.5" transform="rotate(-61.8422 122.301 526.564)" fill="#FFFFFF"/>
<circle cx="128.162" cy="541.044" r="0.5" transform="rotate(-61.8422 128.162 541.044)" fill="#FFFFFF"/>
<circle cx="134.022" cy="555.523" r="0.5" transform="rotate(-61.8422 134.022 555.523)" fill="#FFFFFF"/>
<circle cx="136.916" cy="547.998" r="0.5" transform="rotate(-61.8422 136.916 547.998)" fill="#FFFFFF"/>
<circle cx="152.884" cy="581.713" r="0.5" transform="rotate(-117.227 152.884 581.713)" fill="#FFFFFF"/>
<circle cx="127.352" cy="659.288" r="0.5" transform="rotate(-164.984 127.352 659.288)" fill="#FFFFFF"/>
<circle cx="118.613" cy="645.555" r="0.5" transform="rotate(-164.984 118.613 645.555)" fill="#FFFFFF"/>
<circle cx="131.38" cy="636.555" r="0.5" transform="rotate(-164.984 131.38 636.555)" fill="#FFFFFF"/>
<circle cx="144.147" cy="627.556" r="0.5" transform="rotate(-164.984 144.147 627.556)" fill="#FFFFFF"/>
<circle cx="136.161" cy="626.449" r="0.5" transform="rotate(-164.984 136.161 626.449)" fill="#FFFFFF"/>
<circle cx="130.74" cy="546.308" r="0.5" transform="rotate(-164.984 130.74 546.308)" fill="#FFFFFF"/>
<circle cx="122" cy="532.575" r="0.5" transform="rotate(-164.984 122 532.575)" fill="#FFFFFF"/>
<circle cx="139.554" cy="640.819" r="0.5" transform="rotate(-164.984 139.554 640.819)" fill="#FFFFFF"/>
<ellipse cx="115.349" cy="630.702" rx="2" ry="1.5" transform="rotate(-164.984 115.349 630.702)" fill="#FFFFFF"/>
<circle cx="99.435" cy="610.904" r="0.5" transform="rotate(-164.984 99.435 610.904)" fill="#FFFFFF"/>
<circle cx="120.259" cy="598.888" r="0.5" transform="rotate(-164.984 120.259 598.888)" fill="#FFFFFF"/>
<circle cx="141.083" cy="586.873" r="0.5" transform="rotate(-164.984 141.083 586.873)" fill="#FFFFFF"/>
<ellipse cx="127.785" cy="584.341" rx="2" ry="1.5" transform="rotate(-164.984 127.785 584.341)" fill="#FFFFFF"/>
<ellipse rx="1.35429" ry="1.33868" transform="matrix(-0.786937 -0.617033 0.626727 -0.779239 139.794 656.423)" fill="#FFFFFF"/>
<ellipse rx="1.35429" ry="1.33868" transform="matrix(-0.786937 -0.617033 0.626727 -0.779239 160.519 652.262)" fill="#FFFFFF"/>
<ellipse rx="1.35429" ry="1.33868" transform="matrix(-0.786937 -0.617033 0.626727 -0.779239 151.153 646.619)" fill="#FFFFFF"/>
<circle cx="139.814" cy="639.853" r="0.5" transform="rotate(-164.984 139.814 639.853)" fill="#FFFFFF"/>
<circle cx="113.758" cy="617.334" r="0.5" transform="rotate(-164.984 113.758 617.334)" fill="#FFFFFF"/>
<circle cx="120.095" cy="601.433" r="0.5" transform="rotate(-164.984 120.095 601.433)" fill="#FFFFFF"/>
<circle cx="116.927" cy="536.578" r="0.5" transform="rotate(169.316 116.927 536.578)" fill="#FFFFFF"/>
<circle cx="103.097" cy="527.993" r="0.5" transform="rotate(169.316 103.097 527.993)" fill="#FFFFFF"/>
<circle cx="110.698" cy="514.347" r="0.5" transform="rotate(169.316 110.698 514.347)" fill="#FFFFFF"/>
<circle cx="110.624" cy="503.168" r="0.5" transform="rotate(169.316 110.624 503.168)" fill="#FFFFFF"/>
<circle cx="109.752" cy="547.09" r="0.5" transform="rotate(169.316 109.752 547.09)" fill="#FFFFFF"/>
<circle cx="95.9208" cy="538.506" r="0.5" transform="rotate(169.316 95.9208 538.506)" fill="#FFFFFF"/>
<circle cx="103.522" cy="524.861" r="0.5" transform="rotate(169.316 103.522 524.861)" fill="#FFFFFF"/>
<circle cx="111.124" cy="511.215" r="0.5" transform="rotate(169.316 111.124 511.215)" fill="#FFFFFF"/>
<circle cx="103.448" cy="513.681" r="0.5" transform="rotate(169.316 103.448 513.681)" fill="#FFFFFF"/>
<circle cx="100.244" cy="586.094" r="0.5" transform="rotate(140.607 100.244 586.094)" fill="#FFFFFF"/>
<circle cx="100.356" cy="570.474" r="0.5" transform="rotate(140.607 100.356 570.474)" fill="#FFFFFF"/>
<circle cx="100.469" cy="554.853" r="0.5" transform="rotate(140.607 100.469 554.853)" fill="#FFFFFF"/>
<circle cx="94.9207" cy="560.704" r="0.5" transform="rotate(140.607 94.9207 560.704)" fill="#FFFFFF"/>
<circle cx="134.053" cy="557.066" r="0.5" transform="rotate(166.978 134.053 557.066)" fill="#FFFFFF"/>
<circle cx="668.428" cy="592.981" r="0.5" transform="rotate(177.43 668.428 592.981)" fill="#FFFFFF"/>
<circle cx="643.115" cy="631.154" r="0.5" transform="rotate(177.43 643.115 631.154)" fill="#FFFFFF"/>
<ellipse cx="698.029" cy="561.122" rx="2" ry="1.5" transform="rotate(177.43 698.029 561.122)" fill="#FFFFFF"/>
<circle cx="676.878" cy="547.055" r="0.5" transform="rotate(177.43 676.878 547.055)" fill="#FFFFFF"/>
<circle cx="693.098" cy="529.311" r="0.5" transform="rotate(177.43 693.098 529.311)" fill="#FFFFFF"/>
<circle cx="709.319" cy="511.566" r="0.5" transform="rotate(177.43 709.319 511.566)" fill="#FFFFFF"/>
<ellipse cx="695.877" cy="513.17" rx="2" ry="1.5" transform="rotate(177.43 695.877 513.17)" fill="#FFFFFF"/>
<circle cx="576.964" cy="696.185" r="0.5" transform="rotate(177.43 576.964 696.185)" fill="#FFFFFF"/>
<circle cx="643.869" cy="581.07" r="0.5" transform="rotate(177.43 643.869 581.07)" fill="#FFFFFF"/>
<circle cx="669.072" cy="593.078" r="0.5" transform="rotate(141.719 669.072 593.078)" fill="#FFFFFF"/>
<circle cx="565.256" cy="681.491" r="0.5" transform="rotate(-162.896 565.256 681.491)" fill="#FFFFFF"/>
<circle cx="557.022" cy="667.448" r="0.5" transform="rotate(-162.896 557.022 667.448)" fill="#FFFFFF"/>
<circle cx="570.11" cy="658.919" r="0.5" transform="rotate(-162.896 570.11 658.919)" fill="#FFFFFF"/>
<circle cx="583.197" cy="650.392" r="0.5" transform="rotate(-162.896 583.197 650.392)" fill="#FFFFFF"/>
<circle cx="575.256" cy="648.995" r="0.5" transform="rotate(-162.896 575.256 648.995)" fill="#FFFFFF"/>
<circle cx="605.284" cy="626.859" r="0.5" transform="rotate(141.719 605.284 626.859)" fill="#FFFFFF"/>
<circle cx="686.315" cy="637.044" r="0.5" transform="rotate(93.9624 686.315 637.044)" fill="#FFFFFF"/>
<circle cx="674.512" cy="648.254" r="0.5" transform="rotate(93.9624 674.512 648.254)" fill="#FFFFFF"/>
<circle cx="663.232" cy="637.449" r="0.5" transform="rotate(93.9624 663.232 637.449)" fill="#FFFFFF"/>
<circle cx="651.952" cy="626.644" r="0.5" transform="rotate(93.9624 651.952 626.644)" fill="#FFFFFF"/>
<circle cx="652.396" cy="634.694" r="0.5" transform="rotate(93.9624 652.396 634.694)" fill="#FFFFFF"/>
<circle cx="574.782" cy="655.38" r="0.5" transform="rotate(93.9624 574.782 655.38)" fill="#FFFFFF"/>
<circle cx="562.978" cy="666.591" r="0.5" transform="rotate(93.9624 562.978 666.591)" fill="#FFFFFF"/>
<circle cx="665.849" cy="628.609" r="0.5" transform="rotate(93.9624 665.849 628.609)" fill="#FFFFFF"/>
<ellipse cx="660.561" cy="654.305" rx="2" ry="1.5" transform="rotate(93.9624 660.561 654.305)" fill="#FFFFFF"/>
<circle cx="644.181" cy="673.719" r="0.5" transform="rotate(93.9624 644.181 673.719)" fill="#FFFFFF"/>
<circle cx="628.396" cy="655.585" r="0.5" transform="rotate(93.9624 628.396 655.585)" fill="#FFFFFF"/>
<circle cx="612.611" cy="637.451" r="0.5" transform="rotate(93.9624 612.611 637.451)" fill="#FFFFFF"/>
<ellipse cx="612.676" cy="650.988" rx="2" ry="1.5" transform="rotate(93.9624 612.676 650.988)" fill="#FFFFFF"/>
<ellipse rx="1.35429" ry="1.33868" transform="matrix(-0.454708 0.890641 -0.884944 -0.465698 681.118 625.382)" fill="#FFFFFF"/>
<ellipse rx="1.35429" ry="1.33868" transform="matrix(-0.454708 0.890641 -0.884944 -0.465698 673.061 605.839)" fill="#FFFFFF"/>
<ellipse rx="1.35429" ry="1.33868" transform="matrix(-0.454708 0.890641 -0.884944 -0.465698 669.318 616.113)" fill="#FFFFFF"/>
<circle cx="664.851" cy="628.539" r="0.5" transform="rotate(93.9624 664.851 628.539)" fill="#FFFFFF"/>
<circle cx="647.746" cy="658.429" r="0.5" transform="rotate(93.9624 647.746 658.429)" fill="#FFFFFF"/>
<circle cx="630.924" cy="655.259" r="0.5" transform="rotate(93.9624 630.924 655.259)" fill="#FFFFFF"/>
<circle cx="567.88" cy="670.803" r="0.5" transform="rotate(68.2622 567.88 670.803)" fill="#FFFFFF"/>
<circle cx="562.107" cy="686.022" r="0.5" transform="rotate(68.2622 562.107 686.022)" fill="#FFFFFF"/>
<circle cx="547.256" cy="681.178" r="0.5" transform="rotate(68.2622 547.256 681.178)" fill="#FFFFFF"/>
<circle cx="536.299" cy="683.394" r="0.5" transform="rotate(68.2622 536.299 683.394)" fill="#FFFFFF"/>
<circle cx="579.573" cy="675.829" r="0.5" transform="rotate(68.2622 579.573 675.829)" fill="#FFFFFF"/>
<circle cx="573.8" cy="691.049" r="0.5" transform="rotate(68.2622 573.8 691.049)" fill="#FFFFFF"/>
<circle cx="558.95" cy="686.205" r="0.5" transform="rotate(68.2622 558.95 686.205)" fill="#FFFFFF"/>
<circle cx="544.101" cy="681.361" r="0.5" transform="rotate(68.2622 544.101 681.361)" fill="#FFFFFF"/>
<circle cx="547.992" cy="688.421" r="0.5" transform="rotate(68.2622 547.992 688.421)" fill="#FFFFFF"/>
<circle cx="619.676" cy="677.682" r="0.5" transform="rotate(39.5536 619.676 677.682)" fill="#FFFFFF"/>
<circle cx="604.325" cy="680.567" r="0.5" transform="rotate(39.5536 604.325 680.567)" fill="#FFFFFF"/>
<circle cx="588.972" cy="683.452" r="0.5" transform="rotate(39.5536 588.972 683.452)" fill="#FFFFFF"/>
<circle cx="595.779" cy="687.775" r="0.5" transform="rotate(39.5536 595.779 687.775)" fill="#FFFFFF"/>
<circle cx="584.704" cy="650.066" r="0.5" transform="rotate(65.9243 584.704 650.066)" fill="#FFFFFF"/>
<circle cx="454.321" cy="727.304" r="0.5" transform="rotate(39.4865 454.321 727.304)" fill="#FFFFFF"/>
<circle cx="235.104" cy="678.846" r="0.5" transform="rotate(39.4865 235.104 678.846)" fill="#FFFFFF"/>
<ellipse rx="1.35998" ry="1.43761" transform="matrix(0.227675 0.973737 -0.935611 0.353032 260.126 699.556)" fill="#FFFFFF"/>
<ellipse rx="1.35998" ry="1.43761" transform="matrix(0.227675 0.973737 -0.935611 0.353032 270.129 667.136)" fill="#FFFFFF"/>
<ellipse rx="1.35998" ry="1.43761" transform="matrix(0.227675 0.973737 -0.935611 0.353032 250.891 659.984)" fill="#FFFFFF"/>
<ellipse rx="1.35998" ry="1.43761" transform="matrix(0.227675 0.973737 -0.935611 0.353032 231.655 652.832)" fill="#FFFFFF"/>
<ellipse rx="1.35998" ry="1.43761" transform="matrix(0.227675 0.973737 -0.935611 0.353032 235.476 662.918)" fill="#FFFFFF"/>
<circle cx="308.069" cy="698.798" r="0.5" transform="rotate(39.4865 308.069 698.798)" fill="#FFFFFF"/>
<circle cx="451.472" cy="675.72" r="0.5" transform="rotate(39.4865 451.472 675.72)" fill="#FFFFFF"/>
<circle cx="457.859" cy="741.881" r="0.5" transform="rotate(39.4865 457.859 741.881)" fill="#FFFFFF"/>
<circle cx="299.079" cy="693.982" r="0.5" transform="rotate(39.4865 299.079 693.982)" fill="#FFFFFF"/>
<circle cx="318.181" cy="712.516" r="0.5" transform="rotate(66.3814 318.181 712.516)" fill="#FFFFFF"/>
<circle cx="312.91" cy="727.918" r="0.5" transform="rotate(66.3814 312.91 727.918)" fill="#FFFFFF"/>
<circle cx="297.909" cy="723.563" r="0.5" transform="rotate(66.3814 297.909 723.563)" fill="#FFFFFF"/>
<circle cx="282.908" cy="719.208" r="0.5" transform="rotate(66.3814 282.908 719.208)" fill="#FFFFFF"/>
<circle cx="287.029" cy="726.138" r="0.5" transform="rotate(66.3814 287.029 726.138)" fill="#FFFFFF"/>
<circle cx="330.033" cy="717.156" r="0.5" transform="rotate(66.3814 330.033 717.156)" fill="#FFFFFF"/>
<circle cx="324.763" cy="732.558" r="0.5" transform="rotate(66.3814 324.763 732.558)" fill="#FFFFFF"/>
<circle cx="309.761" cy="728.203" r="0.5" transform="rotate(66.3814 309.761 728.203)" fill="#FFFFFF"/>
<circle cx="294.76" cy="723.849" r="0.5" transform="rotate(66.3814 294.76 723.849)" fill="#FFFFFF"/>
<circle cx="773.034" cy="369.731" r="0.5" transform="rotate(-134.179 773.034 369.731)" fill="#FFFFFF"/>
<circle cx="757.563" cy="511.652" r="0.5" transform="rotate(-134.179 757.563 511.652)" fill="#FFFFFF"/>
<circle cx="735.513" cy="520.529" r="0.5" transform="rotate(-134.179 735.513 520.529)" fill="#FFFFFF"/>
<circle cx="724.737" cy="285.591" r="0.5" transform="rotate(-134.179 724.737 285.591)" fill="#FFFFFF"/>
<circle cx="724.263" cy="269.319" r="0.5" transform="rotate(-134.179 724.263 269.319)" fill="#FFFFFF"/>
<circle cx="739.839" cy="268.128" r="0.5" transform="rotate(-134.179 739.839 268.128)" fill="#FFFFFF"/>
<circle cx="755.414" cy="266.937" r="0.5" transform="rotate(-134.179 755.414 266.937)" fill="#FFFFFF"/>
<circle cx="749.121" cy="261.897" r="0.5" transform="rotate(-134.179 749.121 261.897)" fill="#FFFFFF"/>
<circle cx="718.735" cy="556.355" r="0.5" transform="rotate(-134.179 718.735 556.355)" fill="#FFFFFF"/>
<circle cx="718.26" cy="540.083" r="0.5" transform="rotate(-134.179 718.26 540.083)" fill="#FFFFFF"/>
<circle cx="733.836" cy="538.892" r="0.5" transform="rotate(-134.179 733.836 538.892)" fill="#FFFFFF"/>
<circle cx="749.411" cy="537.701" r="0.5" transform="rotate(-134.179 749.411 537.701)" fill="#FFFFFF"/>
<circle cx="743.118" cy="532.661" r="0.5" transform="rotate(-134.179 743.118 532.661)" fill="#FFFFFF"/>
<circle cx="757.079" cy="300.5" r="0.5" transform="rotate(169.095 757.079 300.5)" fill="#FFFFFF"/>
<ellipse cx="730.885" cy="301.982" rx="2" ry="1.5" transform="rotate(169.095 730.885 301.982)" fill="#FFFFFF"/>
<circle cx="707.918" cy="291.131" r="0.5" transform="rotate(169.095 707.918 291.131)" fill="#FFFFFF"/>
<circle cx="721.395" cy="271.222" r="0.5" transform="rotate(169.095 721.395 271.222)" fill="#FFFFFF"/>
<circle cx="734.871" cy="251.312" r="0.5" transform="rotate(169.095 734.871 251.312)" fill="#FFFFFF"/>
<ellipse cx="721.805" cy="254.849" rx="2" ry="1.5" transform="rotate(169.095 721.805 254.849)" fill="#FFFFFF"/>
<circle cx="760.378" cy="561.902" r="0.5" transform="rotate(-134.179 760.378 561.902)" fill="#FFFFFF"/>
<circle cx="755.15" cy="285.32" r="0.5" transform="rotate(-134.179 755.15 285.32)" fill="#FFFFFF"/>
<circle cx="742.023" cy="214.414" r="0.5" transform="rotate(-134.179 742.023 214.414)" fill="#FFFFFF"/>
<circle cx="748.179" cy="322.582" r="0.5" transform="rotate(-162.887 748.179 322.582)" fill="#FFFFFF"/>
<circle cx="733.104" cy="340.961" r="0.5" transform="rotate(-162.887 733.104 340.961)" fill="#FFFFFF"/>
<circle cx="735.597" cy="380.442" r="0.5" transform="rotate(-162.887 735.597 380.442)" fill="#FFFFFF"/>
<circle cx="727.365" cy="366.398" r="0.5" transform="rotate(-162.887 727.365 366.398)" fill="#FFFFFF"/>
<circle cx="740.454" cy="357.872" r="0.5" transform="rotate(-162.887 740.454 357.872)" fill="#FFFFFF"/>
<circle cx="753.542" cy="349.345" r="0.5" transform="rotate(-162.887 753.542 349.345)" fill="#FFFFFF"/>
<circle cx="745.601" cy="347.947" r="0.5" transform="rotate(-162.887 745.601 347.947)" fill="#FFFFFF"/>
<circle cx="722.942" cy="435.14" r="0.5" transform="rotate(-162.887 722.942 435.14)" fill="#FFFFFF"/>
<circle cx="760.641" cy="353.848" r="0.5" transform="rotate(144.305 760.641 353.848)" fill="#FFFFFF"/>
<circle cx="760.303" cy="399.651" r="0.5" transform="rotate(144.305 760.303 399.651)" fill="#FFFFFF"/>
<ellipse cx="768.022" cy="310.991" rx="2" ry="1.5" transform="rotate(144.305 768.022 310.991)" fill="#FFFFFF"/>
<circle cx="742.62" cy="310.769" r="0.5" transform="rotate(144.305 742.62 310.769)" fill="#FFFFFF"/>
<circle cx="746.508" cy="287.044" r="0.5" transform="rotate(144.305 746.508 287.044)" fill="#FFFFFF"/>
<circle cx="750.396" cy="263.319" r="0.5" transform="rotate(144.305 750.396 263.319)" fill="#FFFFFF"/>
<ellipse cx="740.015" cy="272.008" rx="2" ry="1.5" transform="rotate(144.305 740.015 272.008)" fill="#FFFFFF"/>
<circle cx="740.44" cy="490.262" r="0.5" transform="rotate(144.305 740.44 490.262)" fill="#FFFFFF"/>
<circle cx="733.565" cy="357.293" r="0.5" transform="rotate(144.305 733.565 357.293)" fill="#FFFFFF"/>
<circle cx="761.234" cy="353.578" r="0.5" transform="rotate(108.594 761.234 353.578)" fill="#FFFFFF"/>
<circle cx="722.606" cy="484.354" r="0.5" transform="rotate(163.979 722.606 484.354)" fill="#FFFFFF"/>
<circle cx="708.035" cy="477.093" r="0.5" transform="rotate(163.979 708.035 477.093)" fill="#FFFFFF"/>
<circle cx="714.335" cy="462.798" r="0.5" transform="rotate(163.979 714.335 462.798)" fill="#FFFFFF"/>
<circle cx="720.635" cy="448.505" r="0.5" transform="rotate(163.979 720.635 448.505)" fill="#FFFFFF"/>
<circle cx="713.221" cy="451.674" r="0.5" transform="rotate(163.979 713.221 451.674)" fill="#FFFFFF"/>
<circle cx="726.272" cy="416.727" r="0.5" transform="rotate(108.594 726.272 416.727)" fill="#FFFFFF"/>
<circle cx="799.7" cy="380.976" r="0.5" transform="rotate(60.8373 799.7 380.976)" fill="#FFFFFF"/>
<circle cx="795.942" cy="396.814" r="0.5" transform="rotate(60.8373 795.942 396.814)" fill="#FFFFFF"/>
<circle cx="780.59" cy="393.929" r="0.5" transform="rotate(60.8373 780.59 393.929)" fill="#FFFFFF"/>
<circle cx="765.239" cy="391.045" r="0.5" transform="rotate(60.8373 765.239 391.045)" fill="#FFFFFF"/>
<circle cx="770.01" cy="397.543" r="0.5" transform="rotate(60.8373 770.01 397.543)" fill="#FFFFFF"/>
<circle cx="716.314" cy="457.282" r="0.5" transform="rotate(60.8373 716.314 457.282)" fill="#FFFFFF"/>
<circle cx="712.555" cy="473.12" r="0.5" transform="rotate(60.8373 712.555 473.12)" fill="#FFFFFF"/>
<circle cx="777.951" cy="385.096" r="0.5" transform="rotate(60.8373 777.951 385.096)" fill="#FFFFFF"/>
<ellipse cx="787.564" cy="409.505" rx="2" ry="1.5" transform="rotate(60.8373 787.564 409.505)" fill="#FFFFFF"/>
<circle cx="784.456" cy="434.716" r="0.5" transform="rotate(60.8373 784.456 434.716)" fill="#FFFFFF"/>
<circle cx="761.326" cy="428.155" r="0.5" transform="rotate(60.8373 761.326 428.155)" fill="#FFFFFF"/>
<circle cx="738.196" cy="421.594" r="0.5" transform="rotate(60.8373 738.196 421.594)" fill="#FFFFFF"/>
<ellipse cx="745.649" cy="432.895" rx="2" ry="1.5" transform="rotate(60.8373 745.649 432.895)" fill="#FFFFFF"/>
<ellipse rx="1.35429" ry="1.33868" transform="matrix(0.105899 0.994377 -0.995612 0.093581 788.975 374.049)" fill="#FFFFFF"/>
<ellipse rx="1.35429" ry="1.33868" transform="matrix(0.105899 0.994377 -0.995612 0.093581 771.548 362.085)" fill="#FFFFFF"/>
<ellipse rx="1.35429" ry="1.33868" transform="matrix(0.105899 0.994377 -0.995612 0.093581 774.027 372.735)" fill="#FFFFFF"/>
<circle cx="777.078" cy="385.582" r="0.5" transform="rotate(60.8373 777.078 385.582)" fill="#FFFFFF"/>
<circle cx="779.086" cy="419.962" r="0.5" transform="rotate(60.8373 779.086 419.962)" fill="#FFFFFF"/>
<circle cx="763.265" cy="426.499" r="0.5" transform="rotate(60.8373 763.265 426.499)" fill="#FFFFFF"/>
<circle cx="718.962" cy="473.969" r="0.5" transform="rotate(35.1371 718.962 473.969)" fill="#FFFFFF"/>
<circle cx="722.443" cy="489.87" r="0.5" transform="rotate(35.1371 722.443 489.87)" fill="#FFFFFF"/>
<circle cx="707.359" cy="493.928" r="0.5" transform="rotate(35.1371 707.359 493.928)" fill="#FFFFFF"/>
<circle cx="699.394" cy="501.772" r="0.5" transform="rotate(35.1371 699.394 501.772)" fill="#FFFFFF"/>
<circle cx="731.501" cy="471.788" r="0.5" transform="rotate(35.1371 731.501 471.788)" fill="#FFFFFF"/>
<circle cx="734.983" cy="487.69" r="0.5" transform="rotate(35.1371 734.983 487.69)" fill="#FFFFFF"/>
<circle cx="719.9" cy="491.748" r="0.5" transform="rotate(35.1371 719.9 491.748)" fill="#FFFFFF"/>
<circle cx="704.816" cy="495.806" r="0.5" transform="rotate(35.1371 704.816 495.806)" fill="#FFFFFF"/>
<circle cx="711.934" cy="499.592" r="0.5" transform="rotate(35.1371 711.934 499.592)" fill="#FFFFFF"/>
<circle cx="766.1" cy="451.426" r="0.5" transform="rotate(6.42856 766.1 451.426)" fill="#FFFFFF"/>
<circle cx="754.818" cy="462.231" r="0.5" transform="rotate(6.42856 754.818 462.231)" fill="#FFFFFF"/>
<circle cx="743.538" cy="473.036" r="0.5" transform="rotate(6.42856 743.538 473.036)" fill="#FFFFFF"/>
<circle cx="751.601" cy="472.937" r="0.5" transform="rotate(6.42856 751.601 472.937)" fill="#FFFFFF"/>
<circle cx="721.72" cy="447.408" r="0.5" transform="rotate(32.7992 721.72 447.408)" fill="#FFFFFF"/>
<circle cx="738.634" cy="290.069" r="0.5" transform="rotate(-94.6922 738.634 290.069)" fill="#FFFFFF"/>
<ellipse rx="1.35998" ry="1.43761" transform="matrix(0.539668 -0.841878 0.90521 0.424964 736.049 257.691)" fill="#FFFFFF"/>
<ellipse rx="1.35998" ry="1.43761" transform="matrix(0.539668 -0.841878 0.90521 0.424964 705.828 273.111)" fill="#FFFFFF"/>
<ellipse rx="1.35998" ry="1.43761" transform="matrix(0.539668 -0.841878 0.90521 0.424964 714.105 291.892)" fill="#FFFFFF"/>
<ellipse rx="1.35998" ry="1.43761" transform="matrix(0.539668 -0.841878 0.90521 0.424964 722.382 310.672)" fill="#FFFFFF"/>
<ellipse rx="1.35998" ry="1.43761" transform="matrix(0.539668 -0.841878 0.90521 0.424964 726.951 300.903)" fill="#FFFFFF"/>
<circle cx="734.267" cy="227.657" r="0.5" transform="rotate(-67.7973 734.267 227.657)" fill="#FFFFFF"/>
<circle cx="736.364" cy="219.872" r="0.5" transform="rotate(-67.7973 736.364 219.872)" fill="#FFFFFF"/>
<circle cx="729.335" cy="215.923" r="0.5" transform="rotate(-67.7973 729.335 215.923)" fill="#FFFFFF"/>
<circle cx="44.3893" cy="316.971" r="0.5" transform="rotate(52.8657 44.3893 316.971)" fill="#FFFFFF"/>
<circle cx="77.1481" cy="178.018" r="0.5" transform="rotate(52.8657 77.1481 178.018)" fill="#FFFFFF"/>
<circle cx="100.12" cy="171.912" r="0.5" transform="rotate(52.8657 100.12 171.912)" fill="#FFFFFF"/>
<circle cx="82.0018" cy="406.398" r="0.5" transform="rotate(52.8657 82.0018 406.398)" fill="#FFFFFF"/>
<circle cx="80.4764" cy="422.605" r="0.5" transform="rotate(52.8657 80.4764 422.605)" fill="#FFFFFF"/>
<circle cx="64.8729" cy="421.877" r="0.5" transform="rotate(52.8657 64.8729 421.877)" fill="#FFFFFF"/>
<circle cx="49.2694" cy="421.149" r="0.5" transform="rotate(52.8657 49.2694 421.149)" fill="#FFFFFF"/>
<circle cx="54.8953" cy="426.923" r="0.5" transform="rotate(52.8657 54.8953 426.923)" fill="#FFFFFF"/>
<circle cx="121.166" cy="138.415" r="0.5" transform="rotate(52.8657 121.166 138.415)" fill="#FFFFFF"/>
<circle cx="119.64" cy="154.621" r="0.5" transform="rotate(52.8657 119.64 154.621)" fill="#FFFFFF"/>
<circle cx="104.037" cy="153.894" r="0.5" transform="rotate(52.8657 104.037 153.894)" fill="#FFFFFF"/>
<circle cx="88.4334" cy="153.166" r="0.5" transform="rotate(52.8657 88.4334 153.166)" fill="#FFFFFF"/>
<circle cx="94.0594" cy="158.939" r="0.5" transform="rotate(52.8657 94.0594 158.939)" fill="#FFFFFF"/>
<circle cx="51.7327" cy="387.635" r="0.5" transform="rotate(-3.8608 51.7327 387.635)" fill="#FFFFFF"/>
<ellipse cx="77.9099" cy="389.377" rx="2" ry="1.5" transform="rotate(-3.8608 77.9099 389.377)" fill="#FFFFFF"/>
<circle cx="99.374" cy="402.963" r="0.5" transform="rotate(-3.8608 99.374 402.963)" fill="#FFFFFF"/>
<circle cx="83.5566" cy="421.069" r="0.5" transform="rotate(-3.8608 83.5566 421.069)" fill="#FFFFFF"/>
<circle cx="67.7402" cy="439.175" r="0.5" transform="rotate(-3.8608 67.7402 439.175)" fill="#FFFFFF"/>
<ellipse cx="81.1424" cy="437.268" rx="2" ry="1.5" transform="rotate(-3.8608 81.1424 437.268)" fill="#FFFFFF"/>
<circle cx="80.5162" cy="127.802" r="0.5" transform="rotate(52.8657 80.5162 127.802)" fill="#FFFFFF"/>
<circle cx="51.786" cy="402.937" r="0.5" transform="rotate(52.8657 51.786 402.937)" fill="#FFFFFF"/>
<circle cx="56.117" cy="474.918" r="0.5" transform="rotate(52.8657 56.117 474.918)" fill="#FFFFFF"/>
<circle cx="63.2739" cy="366.811" r="0.5" transform="rotate(24.1572 63.2739 366.811)" fill="#FFFFFF"/>
<circle cx="80.4876" cy="350.42" r="0.5" transform="rotate(24.1572 80.4876 350.42)" fill="#FFFFFF"/>
<circle cx="82.8567" cy="310.932" r="0.5" transform="rotate(24.1572 82.8567 310.932)" fill="#FFFFFF"/>
<circle cx="89.304" cy="325.879" r="0.5" transform="rotate(24.1572 89.304 325.879)" fill="#FFFFFF"/>
<circle cx="75.2688" cy="332.736" r="0.5" transform="rotate(24.1572 75.2688 332.736)" fill="#FFFFFF"/>
<circle cx="61.2337" cy="339.593" r="0.5" transform="rotate(24.1572 61.2337 339.593)" fill="#FFFFFF"/>
<circle cx="68.9426" cy="341.954" r="0.5" transform="rotate(24.1572 68.9426 341.954)" fill="#FFFFFF"/>
<circle cx="102.124" cy="258.199" r="0.5" transform="rotate(24.1572 102.124 258.199)" fill="#FFFFFF"/>
<circle cx="54.7394" cy="334.253" r="0.5" transform="rotate(-28.6505 54.7394 334.253)" fill="#FFFFFF"/>
<circle cx="60.6935" cy="288.838" r="0.5" transform="rotate(-28.6505 60.6935 288.838)" fill="#FFFFFF"/>
<ellipse cx="42.1589" cy="375.882" rx="2" ry="1.5" transform="rotate(-28.6505 42.1589 375.882)" fill="#FFFFFF"/>
<circle cx="67.3412" cy="379.217" r="0.5" transform="rotate(-28.6505 67.3412 379.217)" fill="#FFFFFF"/>
<circle cx="60.5726" cy="402.286" r="0.5" transform="rotate(-28.6505 60.5726 402.286)" fill="#FFFFFF"/>
<circle cx="53.8051" cy="425.355" r="0.5" transform="rotate(-28.6505 53.8051 425.355)" fill="#FFFFFF"/>
<ellipse cx="65.1735" cy="418.005" rx="2" ry="1.5" transform="rotate(-28.6505 65.1735 418.005)" fill="#FFFFFF"/>
<circle cx="91.5178" cy="201.346" r="0.5" transform="rotate(-28.6505 91.5178 201.346)" fill="#FFFFFF"/>
<circle cx="82.0348" cy="334.155" r="0.5" transform="rotate(-28.6505 82.0348 334.155)" fill="#FFFFFF"/>
<circle cx="54.1187" cy="334.448" r="0.5" transform="rotate(-64.3613 54.1187 334.448)" fill="#FFFFFF"/>
<circle cx="108.493" cy="209.397" r="0.5" transform="rotate(-8.97652 108.493 209.397)" fill="#FFFFFF"/>
<circle cx="122.064" cy="218.39" r="0.5" transform="rotate(-8.97652 122.064 218.39)" fill="#FFFFFF"/>
<circle cx="114.059" cy="231.805" r="0.5" transform="rotate(-8.97652 114.059 231.805)" fill="#FFFFFF"/>
<circle cx="106.053" cy="245.217" r="0.5" transform="rotate(-8.97652 106.053 245.217)" fill="#FFFFFF"/>
<circle cx="113.8" cy="242.981" r="0.5" transform="rotate(-8.97652 113.8 242.981)" fill="#FFFFFF"/>
<circle cx="96.5608" cy="276.064" r="0.5" transform="rotate(-64.3613 96.5608 276.064)" fill="#FFFFFF"/>
<circle cx="19.3028" cy="302.54" r="0.5" transform="rotate(-112.118 19.3028 302.54)" fill="#FFFFFF"/>
<circle cx="24.9747" cy="287.283" r="0.5" transform="rotate(-112.118 24.9747 287.283)" fill="#FFFFFF"/>
<circle cx="39.8575" cy="292.028" r="0.5" transform="rotate(-112.118 39.8575 292.028)" fill="#FFFFFF"/>
<circle cx="54.7384" cy="296.773" r="0.5" transform="rotate(-112.118 54.7384 296.773)" fill="#FFFFFF"/>
<circle cx="50.8009" cy="289.739" r="0.5" transform="rotate(-112.118 50.8009 289.739)" fill="#FFFFFF"/>
<circle cx="111.417" cy="237.037" r="0.5" transform="rotate(-112.118 111.417 237.037)" fill="#FFFFFF"/>
<circle cx="117.091" cy="221.779" r="0.5" transform="rotate(-112.118 117.091 221.779)" fill="#FFFFFF"/>
<circle cx="41.3937" cy="301.119" r="0.5" transform="rotate(-112.118 41.3937 301.119)" fill="#FFFFFF"/>
<ellipse cx="34.8456" cy="275.714" rx="2" ry="1.5" transform="rotate(-112.118 34.8456 275.714)" fill="#FFFFFF"/>
<circle cx="41.0221" cy="251.075" r="0.5" transform="rotate(-112.118 41.0221 251.075)" fill="#FFFFFF"/>
<circle cx="63.1735" cy="260.424" r="0.5" transform="rotate(-112.118 63.1735 260.424)" fill="#FFFFFF"/>
<circle cx="85.3229" cy="269.772" r="0.5" transform="rotate(-112.118 85.3229 269.772)" fill="#FFFFFF"/>
<ellipse cx="79.3133" cy="257.641" rx="2" ry="1.5" transform="rotate(-112.118 79.3133 257.641)" fill="#FFFFFF"/>
<ellipse rx="1.35429" ry="1.33868" transform="matrix(0.0168505 -0.999858 0.999573 0.0292266 29.0973 310.73)" fill="#FFFFFF"/>
<ellipse rx="1.35429" ry="1.33868" transform="matrix(0.0168505 -0.999858 0.999573 0.0292266 44.9264 324.741)" fill="#FFFFFF"/>
<ellipse rx="1.35429" ry="1.33868" transform="matrix(0.0168505 -0.999858 0.999573 0.0292266 43.7711 313.867)" fill="#FFFFFF"/>
<circle cx="42.3194" cy="300.743" r="0.5" transform="rotate(-112.118 42.3194 300.743)" fill="#FFFFFF"/>
<circle cx="44.5431" cy="266.376" r="0.5" transform="rotate(-112.118 44.5431 266.376)" fill="#FFFFFF"/>
<circle cx="61.045" cy="261.829" r="0.5" transform="rotate(-112.118 61.045 261.829)" fill="#FFFFFF"/>
<circle cx="110.836" cy="220.151" r="0.5" transform="rotate(-137.818 110.836 220.151)" fill="#FFFFFF"/>
<circle cx="109.331" cy="203.943" r="0.5" transform="rotate(-137.818 109.331 203.943)" fill="#FFFFFF"/>
<circle cx="124.8" cy="201.765" r="0.5" transform="rotate(-137.818 124.8 201.765)" fill="#FFFFFF"/>
<circle cx="133.666" cy="194.957" r="0.5" transform="rotate(-137.818 133.666 194.957)" fill="#FFFFFF"/>
<circle cx="98.1238" cy="220.777" r="0.5" transform="rotate(-137.818 98.1238 220.777)" fill="#FFFFFF"/>
<circle cx="96.6189" cy="204.568" r="0.5" transform="rotate(-137.818 96.6189 204.568)" fill="#FFFFFF"/>
<circle cx="112.086" cy="202.391" r="0.5" transform="rotate(-137.818 112.086 202.391)" fill="#FFFFFF"/>
<circle cx="127.554" cy="200.214" r="0.5" transform="rotate(-137.818 127.554 200.214)" fill="#FFFFFF"/>
<circle cx="120.954" cy="195.583" r="0.5" transform="rotate(-137.818 120.954 195.583)" fill="#FFFFFF"/>
<circle cx="61.2898" cy="236.743" r="0.5" transform="rotate(-166.527 61.2898 236.743)" fill="#FFFFFF"/>
<circle cx="73.8103" cy="227.403" r="0.5" transform="rotate(-166.527 73.8103 227.403)" fill="#FFFFFF"/>
<circle cx="86.3318" cy="218.063" r="0.5" transform="rotate(-166.527 86.3318 218.063)" fill="#FFFFFF"/>
<circle cx="78.3181" cy="217.172" r="0.5" transform="rotate(-166.527 78.3181 217.172)" fill="#FFFFFF"/>
<circle cx="104.843" cy="246.173" r="0.5" transform="rotate(-140.156 104.843 246.173)" fill="#FFFFFF"/>
<circle cx="68.7594" cy="400.25" r="0.5" transform="rotate(92.3522 68.7594 400.25)" fill="#FFFFFF"/>
<ellipse rx="1.35998" ry="1.43761" transform="matrix(-0.638842 0.769338 -0.84626 -0.53277 67.3531 432.7)" fill="#FFFFFF"/>
<ellipse rx="1.35998" ry="1.43761" transform="matrix(-0.638842 0.769338 -0.84626 -0.53277 99.2378 421.103)" fill="#FFFFFF"/>
<ellipse rx="1.35998" ry="1.43761" transform="matrix(-0.638842 0.769338 -0.84626 -0.53277 93.3267 401.449)" fill="#FFFFFF"/>
<ellipse rx="1.35998" ry="1.43761" transform="matrix(-0.638842 0.769338 -0.84626 -0.53277 87.4156 381.796)" fill="#FFFFFF"/>
<ellipse rx="1.35998" ry="1.43761" transform="matrix(-0.638842 0.769338 -0.84626 -0.53277 81.6822 390.931)" fill="#FFFFFF"/>
<circle cx="65.4397" cy="462.727" r="0.5" transform="rotate(119.247 65.4397 462.727)" fill="#FFFFFF"/>
<circle cx="62.4035" cy="470.195" r="0.5" transform="rotate(119.247 62.4035 470.195)" fill="#FFFFFF"/>
<circle cx="68.8948" cy="474.976" r="0.5" transform="rotate(119.247 68.8948 474.976)" fill="#FFFFFF"/>
<circle cx="298.881" cy="730.778" r="0.5" transform="rotate(66.3814 298.881 730.778)" fill="#FFFFFF"/>
<circle cx="370.175" cy="717.692" r="0.5" transform="rotate(37.6728 370.175 717.692)" fill="#FFFFFF"/>
<circle cx="354.926" cy="721.079" r="0.5" transform="rotate(37.6728 354.926 721.079)" fill="#FFFFFF"/>
<circle cx="339.677" cy="724.466" r="0.5" transform="rotate(37.6728 339.677 724.466)" fill="#FFFFFF"/>
<circle cx="346.621" cy="728.564" r="0.5" transform="rotate(37.6728 346.621 728.564)" fill="#FFFFFF"/>
<circle cx="468.56" cy="716.985" r="0.5" transform="rotate(-143.083 468.56 716.985)" fill="#FFFFFF"/>
<circle cx="424.749" cy="730.349" r="0.5" transform="rotate(-143.083 424.749 730.349)" fill="#FFFFFF"/>
<ellipse cx="511.665" cy="711.22" rx="2" ry="1.5" transform="rotate(-143.083 511.665 711.22)" fill="#FFFFFF"/>
<circle cx="504.285" cy="686.914" r="0.5" transform="rotate(-143.083 504.285 686.914)" fill="#FFFFFF"/>
<circle cx="332.344" cy="738.474" r="0.5" transform="rotate(-143.083 332.344 738.474)" fill="#FFFFFF"/>
<circle cx="457.18" cy="692.175" r="0.5" transform="rotate(-143.083 457.18 692.175)" fill="#FFFFFF"/>
<circle cx="468.995" cy="717.469" r="0.5" transform="rotate(-178.794 468.995 717.469)" fill="#FFFFFF"/>
<circle cx="332.651" cy="719.688" r="0.5" transform="rotate(-123.409 332.651 719.688)" fill="#FFFFFF"/>
<circle cx="335.227" cy="703.614" r="0.5" transform="rotate(-123.409 335.227 703.614)" fill="#FFFFFF"/>
<circle cx="350.751" cy="705.354" r="0.5" transform="rotate(-123.409 350.751 705.354)" fill="#FFFFFF"/>
<circle cx="366.273" cy="707.095" r="0.5" transform="rotate(-123.409 366.273 707.095)" fill="#FFFFFF"/>
<circle cx="361.033" cy="700.967" r="0.5" transform="rotate(-123.409 361.033 700.967)" fill="#FFFFFF"/>
<circle cx="398.284" cy="702.978" r="0.5" transform="rotate(-178.794 398.284 702.978)" fill="#FFFFFF"/>
<circle cx="454.345" cy="762.366" r="0.5" transform="rotate(133.449 454.345 762.366)" fill="#FFFFFF"/>
<circle cx="438.108" cy="763.512" r="0.5" transform="rotate(133.449 438.108 763.512)" fill="#FFFFFF"/>
<circle cx="436.273" cy="748" r="0.5" transform="rotate(133.449 436.273 748)" fill="#FFFFFF"/>
<circle cx="434.438" cy="732.488" r="0.5" transform="rotate(133.449 434.438 732.488)" fill="#FFFFFF"/>
<circle cx="429.661" cy="738.983" r="0.5" transform="rotate(133.449 429.661 738.983)" fill="#FFFFFF"/>
<circle cx="356.607" cy="705.594" r="0.5" transform="rotate(133.449 356.607 705.594)" fill="#FFFFFF"/>
<circle cx="340.369" cy="706.74" r="0.5" transform="rotate(133.449 340.369 706.74)" fill="#FFFFFF"/>
<circle cx="443.914" cy="742.842" r="0.5" transform="rotate(133.449 443.914 742.842)" fill="#FFFFFF"/>
<ellipse cx="423.493" cy="759.311" rx="2" ry="1.5" transform="rotate(133.449 423.493 759.311)" fill="#FFFFFF"/>
<circle cx="398.505" cy="763.878" r="0.5" transform="rotate(133.449 398.505 763.878)" fill="#FFFFFF"/>
<circle cx="397.854" cy="739.845" r="0.5" transform="rotate(133.449 397.854 739.845)" fill="#FFFFFF"/>
<circle cx="397.204" cy="715.812" r="0.5" transform="rotate(133.449 397.204 715.812)" fill="#FFFFFF"/>
<ellipse cx="388.645" cy="726.301" rx="2" ry="1.5" transform="rotate(133.449 388.645 726.301)" fill="#FFFFFF"/>
<ellipse rx="1.35429" ry="1.33868" transform="matrix(-0.917287 0.398227 -0.386841 -0.922146 457.751 750.061)" fill="#FFFFFF"/>
<ellipse rx="1.35429" ry="1.33868" transform="matrix(-0.917287 0.398227 -0.386841 -0.922146 463.96 729.854)" fill="#FFFFFF"/>
<ellipse rx="1.35429" ry="1.33868" transform="matrix(-0.917287 0.398227 -0.386841 -0.922146 454.537 735.403)" fill="#FFFFFF"/>
<circle cx="443.188" cy="742.154" r="0.5" transform="rotate(133.449 443.188 742.154)" fill="#FFFFFF"/>
<circle cx="410.98" cy="754.344" r="0.5" transform="rotate(133.449 410.98 754.344)" fill="#FFFFFF"/>
<circle cx="400.014" cy="741.201" r="0.5" transform="rotate(133.449 400.014 741.201)" fill="#FFFFFF"/>
<circle cx="341.473" cy="713.108" r="0.5" transform="rotate(107.749 341.473 713.108)" fill="#FFFFFF"/>
<circle cx="327.339" cy="721.182" r="0.5" transform="rotate(107.749 327.339 721.182)" fill="#FFFFFF"/>
<circle cx="318.959" cy="708" r="0.5" transform="rotate(107.749 318.959 708)" fill="#FFFFFF"/>
<circle cx="309.092" cy="702.743" r="0.5" transform="rotate(107.749 309.092 702.743)" fill="#FFFFFF"/>
<circle cx="347.301" cy="724.422" r="0.5" transform="rotate(107.749 347.301 724.422)" fill="#FFFFFF"/>
<circle cx="333.168" cy="732.498" r="0.5" transform="rotate(107.749 333.168 732.498)" fill="#FFFFFF"/>
<circle cx="324.787" cy="719.316" r="0.5" transform="rotate(107.749 324.787 719.316)" fill="#FFFFFF"/>
<circle cx="316.407" cy="706.135" r="0.5" transform="rotate(107.749 316.407 706.135)" fill="#FFFFFF"/>
<circle cx="314.921" cy="714.059" r="0.5" transform="rotate(107.749 314.921 714.059)" fill="#FFFFFF"/>
<circle cx="377.074" cy="751.354" r="0.5" transform="rotate(79.0401 377.074 751.354)" fill="#FFFFFF"/>
<circle cx="363.391" cy="743.818" r="0.5" transform="rotate(79.0401 363.391 743.818)" fill="#FFFFFF"/>
<circle cx="349.708" cy="736.282" r="0.5" transform="rotate(79.0401 349.708 736.282)" fill="#FFFFFF"/>
<circle cx="352.212" cy="743.947" r="0.5" transform="rotate(79.0401 352.212 743.947)" fill="#FFFFFF"/>
<circle cx="367.644" cy="707.801" r="0.5" transform="rotate(105.411 367.644 707.801)" fill="#FFFFFF"/>
</svg>