<svg width="600" height="300" viewBox="0 0 600 300" fill="none" xmlns="http://www.w3.org/2000/svg">
<g clip-path="url(#clip0_108_107)">
<rect width="600" height="300" fill="url(#paint0_linear_108_107)"/>
<g filter="url(#filter0_d_108_107)">
<path d="M172.084 162.054C168.803 148.793 180.956 136.876 194.15 140.417V140.417L203.983 144.528C208.393 146.371 212.441 148.98 215.94 152.235L227.872 163.331C229.702 165.033 232.227 165.773 234.686 165.328V165.328C240.85 164.213 245.813 170.347 243.436 176.142L238.248 188.793C236.561 192.906 233.18 196.091 228.975 197.532V197.532C224.12 199.194 220.41 203.162 219.076 208.117L218.734 209.391C217.187 215.138 212.885 219.741 207.255 221.673L203.158 223.08C199.313 224.399 196.203 227.281 194.595 231.015L192.137 236.723C191.548 238.092 191.759 239.673 192.687 240.839V240.839C195.428 244.281 191.471 249.005 187.602 246.909L185.37 245.701C183.703 244.798 182.769 242.958 183.024 241.079L184.25 232.049L188.807 205.486C190.292 196.826 187.419 187.989 181.125 181.858L180.35 181.103C177.291 178.123 175.126 174.348 174.101 170.203L172.084 162.054Z" fill="url(#paint1_linear_108_107)"/>
<path d="M266.937 133.773C267.409 132.547 267.651 131.244 267.651 129.931L267.651 127.569C267.651 125.046 268.432 122.584 269.886 120.523L270.287 119.954C271.346 118.452 272.806 117.281 274.498 116.574V116.574C276.68 115.663 278.458 113.987 279.501 111.858L279.897 111.049C281.661 107.45 285.077 104.952 289.028 104.373L305.506 101.957C308.091 101.577 310.601 102.999 311.613 105.414V105.414C312.191 106.794 313.283 107.892 314.656 108.476L316.731 109.358C319.458 110.518 322.557 110.418 325.209 109.085V109.085C327.172 108.099 329.399 107.779 331.556 108.173L333.769 108.577C334.878 108.78 335.965 109.094 337.012 109.515L340.066 110.743C342.411 111.686 344.528 113.119 346.277 114.949V114.949C347.983 116.734 349.3 118.856 350.145 121.181L351.843 125.856C352.91 128.791 354.319 131.586 356.043 134.185L360.047 140.22C360.875 141.469 361.989 142.5 363.294 143.229L363.732 143.474C365.927 144.7 368.558 144.866 370.893 143.928L371.836 143.549C372.02 143.475 372.192 143.372 372.344 143.245V143.245C374.057 141.819 376.393 143.998 375.1 145.817L372.114 150.019L360.325 163.182L359.887 163.74C357.081 167.311 356.177 172.025 357.461 176.38L357.609 176.884C357.89 177.837 358.033 178.826 358.033 179.82L358.033 181.319C358.033 184.027 356.617 186.539 354.304 187.937V187.937C352.313 189.139 350.97 191.18 350.649 193.489L350.474 194.75C350.276 196.177 349.784 197.547 349.029 198.774L345.665 204.244C344.96 205.389 344.172 206.48 343.307 207.509L339.51 212.025C338.325 213.433 336.732 214.436 334.953 214.89L327.876 216.699C325.188 217.386 322.672 215.117 323.065 212.361V212.361C323.228 211.225 322.885 210.076 322.129 209.218L320.245 207.08C318.678 205.3 317.812 203.006 317.812 200.628V200.628C317.812 199.118 317.464 197.63 316.794 196.281L313.29 189.224C312.222 187.074 312.524 184.49 314.06 182.641V182.641C314.965 181.55 315.462 180.175 315.462 178.756L315.462 176.476C315.462 173.435 314.295 170.513 312.205 168.316V168.316C309.712 165.697 308.555 162.074 309.066 158.483L309.206 157.498C309.228 157.339 309.24 157.178 309.24 157.016L309.24 155.549C309.24 153.548 307.067 152.316 305.357 153.347V153.347C304.705 153.74 303.913 153.823 303.195 153.574L299.352 152.237C297.055 151.437 294.561 151.406 292.242 152.148L290.512 152.701C284.836 154.517 278.632 153.168 274.223 149.16L272.645 147.726C272.155 147.281 271.623 146.885 271.057 146.543V146.543C266.816 143.986 265.026 138.735 266.813 134.095L266.937 133.773Z" fill="url(#paint2_linear_108_107)"/>
<path d="M370.815 178.573V178.573C371.552 177.808 372.847 178.263 372.944 179.321L373.25 182.647C373.298 183.172 373.195 183.699 372.954 184.168L371.684 186.638C371.108 187.758 370.707 188.96 370.496 190.202L369.936 193.492C369.894 193.734 369.874 193.98 369.874 194.225V194.725C369.874 195.996 369.188 197.168 368.08 197.79V197.79C365.631 199.166 362.637 197.256 362.853 194.455L363.374 187.7C363.52 185.812 364.41 184.059 365.848 182.827L370.815 178.573Z" fill="url(#paint3_linear_108_107)"/>
<path d="M129.943 272.733C132.512 273.061 135.11 273.087 137.685 272.813L148.413 271.668C156.116 270.847 163.646 268.845 170.74 265.735V265.735L188.841 256.286C190.164 255.596 191.582 257.034 190.873 258.347V258.347C190.832 258.422 190.785 258.493 190.733 258.56L184.048 267.103C182.507 269.072 182.457 271.823 183.925 273.846V273.846C184.74 274.97 185.944 275.751 187.302 276.038L200.178 278.759L212.515 279.93C228.015 281.401 243.65 279.508 258.35 274.379V274.379C269.8 270.385 281.84 268.344 293.966 268.344H295.451L299.676 267.897C313.229 266.46 326.901 266.567 340.43 268.216L341.481 268.344H354.542C361.136 268.344 367.689 267.299 373.956 265.247V265.247C381.496 262.779 389.438 261.771 397.356 262.277L412.514 263.248C414.742 263.39 416.931 263.899 418.993 264.754L419.149 264.819C424.545 267.056 430.651 266.814 435.853 264.157V264.157C439.237 262.428 443.044 261.703 446.827 262.066L456.949 263.038C459.894 263.321 462.857 263.364 465.809 263.169L490.812 261.51L548.082 263.463L589.467 268.066C590.893 268.225 591.971 269.43 591.971 270.864V270.864C591.971 272.23 590.991 273.399 589.646 273.637L579.874 275.365C579.055 275.51 578.333 275.987 577.879 276.684V276.684C576.477 278.836 578.246 281.641 580.792 281.303L600 278.756V300H0V278.759H4.08223C10.6143 278.759 17.1224 277.97 23.4651 276.409L25.2803 275.962C32.6415 274.15 40.2489 273.551 47.803 274.188L55.1316 274.807C57.6122 275.016 60.1103 274.831 62.5331 274.259V274.259C65.4214 273.576 68.4126 273.446 71.3494 273.873L99.4797 277.969C102.852 278.46 106.237 277.165 108.422 274.55V274.55C110.567 271.982 113.872 270.685 117.191 271.108L129.943 272.733Z" fill="white"/>
<path d="M466.191 4.07429L439.964 4.5L429.26 5.21429L409.274 6.80185C408.979 6.82532 408.903 6.40182 409.188 6.32143V6.32143L414.862 5.21804C415.676 5.05976 415.685 3.89813 414.873 3.72794V3.72794C414.83 3.71885 414.786 3.71357 414.742 3.71215L399.822 3.23238L363.961 2.71429L324.353 4.81714L304.549 4.81714L279.929 5.21429L258.519 4.81714L235.504 4.81714L214.63 5.85714L184.121 5.56L172.346 4.81714L158.965 5.85714L138.626 5.56L109.188 5.85714L51.9179 5.56L8.40175 4.82346C8.19461 4.81995 8.02852 4.65103 8.02852 4.44386V4.44386C8.02852 4.23816 8.19234 4.06988 8.39796 4.06435L21.363 3.71553C21.3939 3.7147 21.4246 3.71075 21.4546 3.70373V3.70373C21.9888 3.57898 21.8899 2.79102 21.3415 2.80208L-2.48551e-05 3.23286V-3.12924e-07L600 -3.12924e-07V3.23238L586.084 3.23238L563.604 4.07429L541.124 3.78571L533.095 4.07429L498.653 3.31125C496.286 3.2588 493.92 3.4462 491.591 3.87056V3.87056C489.293 4.28914 486.959 4.47718 484.624 4.43188L466.191 4.07429Z" fill="white"/>
<path d="M457.526 169.468V169.468C457.621 170.553 456.439 171.255 455.564 170.632L452.949 168.769C452.508 168.455 452.166 168.016 451.965 167.506L450.954 164.943C450.492 163.772 449.854 162.681 449.063 161.712L446.745 158.872L441.018 152.112V152.112C440.497 151.524 441.253 150.675 441.872 151.154L446.655 154.856C446.715 154.903 446.778 154.943 446.845 154.977L452.273 157.74V157.74C455.462 158.997 457.563 162.147 457.545 165.643L457.526 169.468Z" fill="#1E6712"/>
<path d="M444.132 137.399C443.892 136.697 443.984 135.918 444.381 135.285V135.285C445.356 133.73 447.597 133.762 448.491 135.343L449.374 136.905C449.704 137.49 449.861 138.16 449.825 138.836L449.691 141.399C449.624 142.663 449.75 143.928 450.065 145.148L450.99 148.732L453.378 157.345V157.345C453.58 158.017 452.638 158.408 452.33 157.78L451.063 155.197C451.015 155.098 450.947 155.011 450.864 154.941L449.804 154.039C449.129 153.465 448.56 152.774 448.123 151.996L447.265 150.468C446.118 148.425 445.516 146.109 445.516 143.745L445.516 142.856C445.516 141.923 445.362 140.998 445.062 140.12L444.132 137.399Z" fill="#2A6A2B"/>
<path d="M396.634 38.2329C396.909 38.1476 397.205 38.1655 397.465 38.2834V38.2834C398.4 38.7061 398.382 40.0543 397.436 40.4753L395.334 41.4112C395.078 41.5252 394.804 41.5893 394.526 41.6002L392.343 41.6856C391.389 41.7229 390.44 41.8616 389.512 42.0995L386.656 42.8313L379.878 44.6529L374.61 46.1502L380.881 43.6332C381.603 43.3435 382.284 42.9568 382.906 42.4837V42.4837C383.446 42.0727 384.031 41.7267 384.649 41.4528L386.121 40.8006C387.739 40.0838 389.463 39.6477 391.218 39.5109L391.968 39.4524C392.619 39.4017 393.263 39.2782 393.889 39.0841L396.634 38.2329Z" fill="#C4C4C4"/>
<path d="M496.49 107.742C496.36 107.818 496.215 107.868 496.066 107.887V107.887C495.105 108.009 494.437 106.925 494.961 106.094L496.826 103.132C497.113 102.677 497.523 102.317 498.007 102.097L500.479 100.97C501.606 100.457 502.647 99.7664 503.564 98.9235L503.921 98.5961C505.46 97.1814 506.694 95.4524 507.542 93.519L509.083 90.0095C509.128 89.9072 509.164 89.8007 509.189 89.6916L511.588 79.4034C511.736 78.7682 512.651 78.8837 512.651 79.5376V79.5376L512.651 82.6194C512.651 84.9133 512.151 87.1754 511.188 89.2407L510.287 91.172C509.547 92.7575 509.302 94.5401 509.585 96.2788L509.74 97.2312C509.951 98.5294 509.727 99.8599 509.106 101.007V101.007C508.267 102.555 506.784 103.623 505.075 103.91L503.708 104.139C502.698 104.308 501.726 104.662 500.839 105.184L496.49 107.742Z" fill="#196420"/>
<path d="M477.812 123.145C477.814 122.993 477.845 122.843 477.904 122.703V122.703C478.287 121.797 479.539 121.748 479.967 122.623L481.522 125.799C481.754 126.274 481.847 126.809 481.787 127.34L481.266 132.006L481.266 139.462L485.34 142.587C486.007 143.098 486.897 143.209 487.676 142.878L487.867 142.797C489.002 142.315 490.294 142.876 490.717 144.034V144.034C491.067 144.989 490.713 146.071 489.865 146.639L486.757 148.723C486.531 148.874 486.288 148.995 486.032 149.083V149.083C484.139 149.737 482.157 148.458 481.958 146.455L481.266 139.462L480.675 139.462C479.061 139.462 477.577 138.6 476.772 137.195V137.195C476.084 135.996 475.972 134.54 476.467 133.233L477.175 131.361C477.547 130.379 477.743 129.339 477.755 128.291L477.812 123.145Z" fill="#196420"/>
<path d="M473 160.732C472.855 160.927 472.739 161.142 472.655 161.372L472.241 162.501C471.769 163.79 470.12 164.083 469.244 163.034V163.034C468.765 162.461 467.992 162.25 467.301 162.503L466.34 162.855C464.901 163.383 463.295 162.809 462.481 161.478L461.622 160.072C461.301 159.547 461.131 158.94 461.131 158.322L461.131 157.321C461.131 156.064 462.123 155.047 463.35 155.047V155.047C463.695 155.047 464.036 154.965 464.344 154.807L468.104 152.879C468.333 152.761 468.57 152.661 468.814 152.577L470.063 152.15C470.78 151.906 471.354 151.35 471.634 150.632V150.632C472.304 148.914 474.447 148.424 475.778 149.683L476.675 150.533C477.975 151.763 478.152 153.799 477.085 155.235L473 160.732Z" fill="#196420"/>
<path d="M322.216 38.3799L319.05 39.2697C318.62 39.3904 318.227 38.9963 318.347 38.5659V38.5659C318.444 38.2177 318.201 37.8693 317.842 37.8423L316.32 37.7279C315.383 37.6574 314.864 36.6117 315.372 35.8154V35.8154C315.498 35.6176 315.677 35.459 315.888 35.3575L317.242 34.7066C318.082 34.3026 319.04 34.2212 319.932 34.4778V34.4778C320.246 34.5683 320.572 34.6174 320.9 34.624L325.161 34.7089L327.111 34.8762C327.489 34.9086 327.87 34.8742 328.237 34.7746L330.475 34.1668C331.37 33.9237 332.25 34.5849 332.265 35.5124V35.5124C332.277 36.2265 331.761 36.8433 331.056 36.9567L322.216 38.3799Z" fill="white"/>
<path d="M515.586 172.074C514.737 171.729 513.766 171.95 513.139 172.626V172.626C512.292 173.539 510.877 173.592 509.967 172.738L509.772 172.555C509.663 172.452 509.545 172.36 509.42 172.278L507.293 170.889C506.492 170.366 505.809 169.674 505.29 168.86L504.953 168.33C504.132 167.041 502.815 166.17 501.332 165.936L498.44 165.48C498.006 165.411 497.657 165.073 497.567 164.633L496.721 160.512C496.595 159.899 497.424 159.605 497.698 160.167V160.167C497.711 160.194 497.726 160.219 497.743 160.243L499.616 162.884C500.458 164.071 502.2 164.013 502.956 162.774V162.774C503.384 162.071 504.183 161.701 504.983 161.834L509.093 162.52C510.731 162.793 512.253 163.563 513.463 164.73L515.096 166.304L521.956 172.401V172.401C522.78 173.246 521.89 174.638 520.807 174.198L515.586 172.074Z" fill="#1E6712"/>
<path d="M287.75 71.4273C286.619 70.8026 286.833 69.1162 288.085 68.7952V68.7952C288.201 68.7655 288.32 68.7505 288.44 68.7505H289.132C290.021 68.7505 290.856 69.1745 291.381 69.8919V69.8919C291.73 70.3692 291.918 70.9452 291.918 71.5366V71.9209C291.918 73.6605 293.053 75.1966 294.716 75.7082L296.492 76.2546V76.2546C297.651 76.4708 297.694 78.1163 296.548 78.393L293.993 79.0095C293.83 79.0487 293.675 79.1123 293.531 79.1981L292.841 79.6111C291.171 80.6103 289.131 79.0736 289.632 77.1926V77.1926L290.218 74.4849C290.413 73.5867 289.995 72.6673 289.191 72.223L287.75 71.4273Z" fill="#1E6712"/>
<mask id="mask0_108_107" style="mask-type:alpha" maskUnits="userSpaceOnUse" x="281" y="41" width="268" height="107">
<path d="M387.645 51.8665C390.853 51.8665 394.011 51.0747 396.84 49.5613V49.5613C400.853 47.414 405.491 46.7391 409.95 47.6536L413.696 48.422C418.711 49.4506 423.906 49.1819 428.787 47.6415L439.179 44.3624L448.357 42.2446C454.229 40.8898 460.393 41.7388 465.68 44.6304V44.6304C469.297 46.6086 473.353 47.6454 477.476 47.6454H491.315H511.687C514.563 47.6454 517.433 47.9155 520.259 48.4522L525.326 49.4144C527.332 49.7954 529.254 50.5305 531.003 51.5853L535.15 54.087C535.787 54.4714 536.535 54.629 537.273 54.5344L546.258 53.3827C548.378 53.1109 549.228 56.0297 547.294 56.939V56.939C547.171 56.9965 547.055 57.0671 546.948 57.1496L544.229 59.2408C542.495 60.5748 540.634 61.7355 538.673 62.7063L533.81 65.1139C530.253 66.875 526.26 67.5644 522.318 67.0982L515.209 66.2574C513.158 66.0148 511.115 66.7699 509.714 68.2882L507.039 71.1877C505.377 72.9899 505.965 75.8909 508.199 76.9028V76.9028C510.181 77.8011 510.918 80.2406 509.764 82.0861L506.284 87.651C505.76 88.4902 505.105 89.2407 504.344 89.8744L499.528 93.8871C498.661 94.6102 497.545 94.9652 496.419 94.8764V94.8764C494.086 94.6923 492.029 96.3968 491.777 98.7235L491.341 102.747C491.324 102.907 491.288 103.065 491.234 103.216V103.216C490.607 104.986 488.138 105.076 487.384 103.357L486.003 100.21C485.601 99.294 484.819 98.5988 483.862 98.3064L480.251 97.2028C479.456 96.9599 478.599 97.0198 477.846 97.371V97.371C476.183 98.1461 475.447 100.11 476.192 101.787L478.509 107.005C478.845 107.763 479.078 108.563 479.199 109.383L479.272 109.872C479.934 114.33 478.207 118.808 474.723 121.666L474.419 121.915C472.317 123.639 469.742 124.686 467.033 124.918L456.504 125.818C455.5 125.903 454.728 126.743 454.728 127.751V127.751C454.728 128.119 454.833 128.479 455.03 128.79L459.827 136.358C460.38 137.231 460.674 138.243 460.674 139.277V140.859C460.674 142.997 458.941 144.729 456.803 144.729V144.729C455.507 144.729 454.297 144.081 453.58 143.002L449.505 136.873C448.483 135.335 446.759 134.411 444.912 134.411V134.411C442.804 134.411 440.879 133.209 439.955 131.313L439.37 130.113C437.185 125.631 431.365 124.403 427.555 127.62L421.537 132.703C420.218 133.816 419.263 135.299 418.793 136.959L416.29 145.799C415.858 147.326 414.035 147.953 412.756 147.015V147.015C412.391 146.748 412.114 146.379 411.961 145.954L408.734 137.046C407.117 132.582 404.177 128.718 400.306 125.969V125.969L395.53 122.051C392.704 119.732 389.161 118.465 385.505 118.465V118.465C383.5 118.465 381.513 118.084 379.651 117.341L374.548 115.306C374.343 115.224 374.153 115.108 373.987 114.962L372.217 113.405C371.125 112.446 369.484 113.612 370.031 114.959V114.959C370.091 115.106 370.177 115.243 370.284 115.362L373.091 118.48C374.694 120.262 376.979 121.279 379.376 121.279H380.541C381.206 121.279 381.861 121.448 382.444 121.77V121.77C384.873 123.111 385.189 126.477 383.052 128.247L376.93 133.318C376.057 134.041 375.061 134.599 373.989 134.966L366.266 137.606C366.093 137.665 365.927 137.741 365.769 137.833V137.833C364.254 138.721 362.307 137.966 361.787 136.289L360.231 131.276C359.822 129.957 359.026 128.792 357.947 127.931L357.488 127.565C356.181 126.523 355.199 125.13 354.655 123.549L352.971 118.657C352.822 118.225 352.558 117.841 352.208 117.547L345.852 112.214C345.152 111.627 345.764 110.502 346.638 110.771V110.771C347.002 110.883 347.395 110.735 347.596 110.412L350.145 106.304C350.351 105.972 350.491 105.604 350.557 105.22L350.64 104.737C351.072 102.227 348.229 100.466 346.174 101.971V101.971C345.688 102.327 345.102 102.519 344.499 102.519H342.828C341.83 102.519 340.847 102.282 339.96 101.827V101.827C338.481 101.069 337.363 99.7561 336.85 98.1761L335.589 94.2979C335.445 93.8534 335.142 93.4774 334.739 93.2411V93.2411C333.537 92.5365 332.009 93.3159 331.874 94.7028L331.662 96.8716C331.406 99.4978 327.886 100.174 326.676 97.829V97.829L322.981 91.0928C322.704 90.5876 322.314 90.1528 321.843 89.8218L318.378 87.391C316.786 86.2735 314.652 87.7024 315.079 89.6006V89.6006C315.185 90.0696 315.446 90.4891 315.82 90.7907L323.039 96.6072C323.879 97.2845 323.095 98.6115 322.097 98.2018V98.2018C321.602 97.9989 321.038 98.251 320.859 98.7549L320.772 99.0022C320.371 100.132 318.738 100.022 318.493 98.8484L318.122 97.0724C318.035 96.6543 317.793 96.2846 317.444 96.0373L312.041 92.2009L309.381 90.2172C307.988 89.1784 306.067 89.2228 304.724 90.3249V90.3249L300.715 92.9411C300.089 93.3497 299.285 93.369 298.64 92.991V92.991C297.543 92.348 296.133 92.8965 295.759 94.1119L294.655 97.6965C294.1 99.4998 292.566 100.829 290.702 101.123L286.78 101.742C284.387 102.12 282.347 100.005 282.811 97.6278L282.993 96.6964C283.137 95.9548 282.846 95.1956 282.242 94.7415V94.7415C280.629 93.5287 281.661 90.9634 283.664 91.2051L289.644 91.9266C291.031 92.0939 292.389 91.4418 293.126 90.2548L293.162 90.1965C294.242 88.4562 293.702 86.1696 291.958 85.0962L290.546 84.2278V84.2278C289.674 83.821 290.061 82.5043 291.015 82.6347L291.94 82.7612C292.217 82.7991 292.497 82.7168 292.71 82.535L294.335 81.1466C294.828 80.725 295.493 80.5641 296.124 80.7136L297.307 80.9934C298.665 81.3148 299.721 79.8151 298.96 78.6449V78.6449C298.291 77.6157 299.03 76.2547 300.257 76.2547H302.639C302.809 76.2547 302.978 76.2395 303.145 76.2093L309.675 75.0276C310.228 74.9276 310.6 74.4047 310.513 73.8495L310.26 72.2237C310.095 71.1718 311.594 70.7894 311.954 71.7914V71.7914C312.011 71.9496 312.112 72.0882 312.245 72.1906L313.832 73.4115C316.105 75.1595 319.16 75.502 321.763 74.3006L325.245 72.6937C326.196 72.2551 327.094 71.7116 327.924 71.0734L331.851 68.0532C332.056 67.8952 332.297 67.7887 332.552 67.7429L342.804 65.903C343.635 65.7538 343.526 64.5296 342.682 64.5296V64.5296H333.124C332.504 64.5296 331.905 64.3084 331.434 63.9058L331.066 63.5918C330.162 62.8188 330.067 61.4541 330.856 60.5637L332.864 58.2992C333.302 57.8052 332.951 57.0255 332.291 57.0255V57.0255C332.207 57.0255 332.123 57.0394 332.043 57.0667L329.302 58.0037C328.468 58.2889 327.664 58.6571 326.904 59.1028L326.571 59.298C325.43 59.9663 324.419 60.834 323.586 61.8598L323.44 62.0394C322.856 62.7576 322.381 63.5576 322.029 64.4138L319.723 70.0306C319.252 71.179 318.006 71.8042 316.803 71.4959V71.4959C315.854 71.2524 315.135 70.4738 314.969 69.5074L314.92 69.225C314.502 66.7929 311.441 65.9458 309.832 67.8165V67.8165C308.482 69.3847 305.975 69.0901 305.026 67.2518L304.666 66.5552C303.722 64.7258 304.581 62.482 306.506 61.751L313.061 59.2612C314.495 58.7165 315.779 57.8397 316.809 56.7026L318.468 54.8704C320.252 52.9001 322.507 51.4154 325.022 50.5557V50.5557C326.121 50.18 327.258 49.9276 328.413 49.8029L331.602 49.4586C334.1 49.189 336.622 49.2508 339.103 49.6422V49.6422C340.572 49.874 342.057 49.9905 343.545 49.9905H349.701C350.203 49.9905 350.704 50.0439 351.196 50.15L356.719 51.3424C358.002 51.6194 358.744 52.9661 358.293 54.1987V54.1987C357.981 55.0514 357.17 55.6185 356.262 55.6185H351.034C349.029 55.6185 348.061 58.0754 349.528 59.4429V59.4429C350.103 59.9789 350.92 60.169 351.672 59.942L366.006 55.6185L368.848 54.5084C373.317 52.7625 378.072 51.8665 382.87 51.8665H387.645Z" fill="url(#paint4_linear_108_107)"/>
</mask>
<g mask="url(#mask0_108_107)">
<ellipse cx="434" cy="93.5" rx="166" ry="68.5" fill="url(#paint5_linear_108_107)"/>
<ellipse cx="360.5" cy="113" rx="107.5" ry="68" fill="url(#paint6_linear_108_107)"/>
<path d="M459.937 91.932C439.305 107.238 461.842 135.092 417.476 147.434C438.207 213.257 368.216 160.481 332.654 111.535C327.723 99.4342 330.437 87.6409 357.035 76.8037C382.302 68.9942 446.954 74.5035 459.937 91.932Z" fill="url(#paint7_radial_108_107)"/>
</g>
<path d="M494.355 179.631C494.761 179.503 495.129 179.276 495.426 178.972V178.972C496.593 177.775 498.573 177.986 499.461 179.403L501.195 182.169C501.614 182.838 502.191 183.394 502.875 183.789L506.396 185.82C507.707 186.576 509.366 185.756 509.561 184.255L510.22 179.189C510.453 177.397 513.057 177.43 513.245 179.227V179.227C513.26 179.366 513.293 179.501 513.344 179.631L516.351 187.205C517.316 189.633 519.072 191.665 521.335 192.971L521.562 193.102C523.598 194.277 525.197 196.084 526.114 198.249L527.752 202.111C528.654 204.239 528.046 206.707 526.259 208.173V208.173C525.256 208.996 524.596 210.164 524.408 211.448L524.016 214.127C523.679 216.435 521.172 217.727 519.097 216.663V216.663C518.292 216.25 517.357 216.175 516.496 216.453L514.672 217.044C511.377 218.111 507.77 216.943 505.725 214.148L503.663 211.328V211.328C500.522 207.139 495.024 205.477 490.089 207.226L478.51 211.328L475.344 212.546C475.018 212.671 474.672 212.735 474.323 212.735V212.735C473.02 212.735 471.883 211.85 471.564 210.587L468.906 200.072L468.436 195.734C468.012 191.823 471.759 188.774 475.502 189.983V189.983C477.361 190.584 479.399 190.139 480.84 188.819L486.874 183.287C488.293 181.986 489.979 181.012 491.815 180.433L494.355 179.631Z" fill="url(#paint8_linear_108_107)"/>
<path d="M155.652 30.8759C155.944 30.7997 156.243 30.7538 156.544 30.7391L175.299 29.8232L194.714 30.7493C194.88 30.7572 195.043 30.7906 195.199 30.8483V30.8483C196.722 31.4124 196.561 33.6171 194.972 33.9533L182.344 36.6255C181.619 36.779 180.933 37.0817 180.33 37.5142L177.412 39.6094C176.92 39.9626 176.474 40.3765 176.086 40.8412V40.8412C174.717 42.4783 172.694 43.4244 170.56 43.4244H166.404C164.488 43.4244 162.654 42.651 161.317 41.2795V41.2795C160.586 40.53 159.698 39.9512 158.718 39.5846L153.572 37.6607C153.122 37.4926 152.714 37.229 152.376 36.8882V36.8882C150.574 35.0704 151.418 31.9827 153.895 31.3353L155.652 30.8759Z" fill="white"/>
<path d="M163.865 45.3003L165.07 45.0356C168.504 44.2809 172.051 44.1819 175.522 44.744L176.185 44.8514C178.026 45.1495 179.823 45.6752 181.535 46.4163L183.806 47.3998C185.133 47.9743 186.563 48.2708 188.009 48.2708V48.2708C190.437 48.2708 192.791 49.1061 194.677 50.6365L198.862 54.0348C199.003 54.1491 199.179 54.2114 199.36 54.2114V54.2114C200.252 54.2114 200.46 55.4594 199.615 55.748L195.838 57.0393C195.099 57.2918 194.7 58.0904 194.942 58.8327V58.8327C195.315 59.9816 194.183 61.0465 193.059 60.6033L190.191 59.4719C190.019 59.4045 189.842 59.3535 189.661 59.3198L182.21 57.9304C181.211 57.7441 180.823 56.5194 181.532 55.7918L181.863 55.4528C182.752 54.5406 181.756 53.0635 180.577 53.5471V53.5471C179.804 53.864 178.957 53.2959 178.957 52.461V52.299C178.957 51.7581 178.618 51.2753 178.109 51.0921L172.845 49.198C171.163 48.5929 169.342 48.4884 167.602 48.8973L163.953 49.7549C163.317 49.9042 162.649 49.7652 162.126 49.3751V49.3751C160.558 48.2056 161.17 45.7255 163.103 45.4207L163.865 45.3003Z" fill="url(#paint9_linear_108_107)"/>
<path d="M198.408 32.9816C198.852 32.7539 199.335 32.612 199.831 32.5631L232.465 29.354H247.059C249.174 29.354 251.242 29.9744 253.008 31.1383V31.1383C255.376 32.6998 258.264 33.2674 261.047 32.7185L268.395 31.2694C268.527 31.2433 268.662 31.2405 268.795 31.261L269.218 31.326C270.499 31.523 270.452 33.3845 269.163 33.5168V33.5168C268.806 33.5533 268.49 33.7605 268.313 34.0726L264.358 41.0787C263.837 42.0013 263.564 43.0429 263.564 44.1024V44.1024C263.564 47.4992 260.81 50.2529 257.413 50.2529H253.665C250.935 50.2529 248.305 51.4026 246.434 53.3915V53.3915C244.808 55.1199 242.573 56.2383 240.215 56.5069V56.5069C237.344 56.8342 234.706 58.3661 233.023 60.7158L231.381 63.0097C230.455 64.3022 229.144 65.2684 227.635 65.7699V65.7699C224.102 66.9441 220.241 65.3586 218.552 62.0401L217.235 59.4511C216.441 57.8897 216.254 56.0891 216.711 54.3978V54.3978C217.399 51.8506 216.613 49.1323 214.671 47.3459L212.809 45.6331C211.899 44.7955 210.82 44.1631 209.644 43.7783L198.985 40.2896C195.631 39.1919 195.268 34.5918 198.408 32.9816V32.9816Z" fill="white"/>
<path d="M115.763 41.7488C116.726 41.7488 117.684 41.9028 118.599 42.205L124.528 44.1629C125.734 44.561 127.019 44.6573 128.27 44.4434L134.99 43.2949C136.218 43.0849 137.34 44.0313 137.34 45.2778V46.1085C137.34 46.8884 138.029 47.4891 138.801 47.3834V47.3834C140.147 47.1994 140.823 48.9543 139.702 49.7206L137.986 50.8939C137.574 51.1751 137.064 51.2708 136.579 51.1577L128.525 49.2806C127.697 49.0876 126.85 48.9902 125.999 48.9902H121.994C120.726 48.9902 119.545 48.349 118.854 47.2861V47.2861C117.898 45.8152 116.049 45.2051 114.405 45.8181L113.111 46.3005C112.5 46.5284 111.853 46.6452 111.201 46.6452H107.818C106.639 46.6452 105.627 45.8052 105.411 44.6465V44.6465C105.13 43.1403 106.285 41.7488 107.818 41.7488H115.763Z" fill="url(#paint10_linear_108_107)"/>
<path d="M147.303 42.9734C145.648 44.3166 143.196 43.9745 141.933 42.2241L140.488 40.221V40.221C139.464 39.0371 140.626 37.2655 142.103 37.7588L148 39.7292C149.316 40.1689 149.345 42.0336 148.042 42.4842V42.4842C147.885 42.5384 147.74 42.6194 147.611 42.7238L147.303 42.9734Z" fill="white"/>
<path d="M283.183 77.816C282.061 78.4071 280.843 77.1638 281.446 76.0426V76.0426C281.587 75.7804 281.632 75.4761 281.575 75.1815L281.562 75.1158C281.34 73.9752 282.445 73.0461 283.524 73.467L285.095 74.0805C286.315 74.5569 286.35 76.2821 285.149 76.7807V76.7807L283.183 77.816Z" fill="#1E6712"/>
<path d="M130.801 38.2212L129.722 38.2211C128.805 38.2211 128.057 37.4675 128.057 36.5447V36.5447C128.057 35.3466 129.28 34.5578 130.369 35.054L131.789 35.7011C132.038 35.8149 132.247 36.0039 132.387 36.2418V36.2418C132.901 37.1212 132.283 38.2211 131.274 38.2211L130.801 38.2212Z" fill="white"/>
<path d="M121.905 40.6003C121.347 40.3139 120.699 40.2694 120.112 40.4772L119.185 40.8056C118.15 41.172 117.057 40.3885 117.057 39.2805V39.2805C117.057 38.2746 117.969 37.5293 118.95 37.7346L123.775 38.7449L130.635 40.1518V40.1518C131.892 40.4284 131.837 42.2548 130.565 42.4248L127.065 42.8928C126.709 42.9404 126.346 42.8775 126.025 42.7126L121.905 40.6003Z" fill="white"/>
<path d="M167.666 59.8396L166.587 59.8395C165.671 59.8395 164.922 59.0859 164.922 58.1631V58.1631C164.922 56.965 166.146 56.1762 167.234 56.6724L168.654 57.3195C168.904 57.4333 169.113 57.6223 169.252 57.8602V57.8602C169.766 58.7397 169.148 59.8395 168.139 59.8395L167.666 59.8396Z" fill="url(#paint11_linear_108_107)"/>
<path d="M158.519 43.8935L157.441 43.8935C156.524 43.8934 155.775 43.1399 155.775 42.2171V42.2171C155.775 41.019 156.999 40.2301 158.088 40.7264L159.508 41.3734C159.757 41.4872 159.966 41.6763 160.105 41.9141V41.9141C160.62 42.7936 160.002 43.8934 158.993 43.8935L158.519 43.8935Z" fill="white"/>
<path d="M150.476 46.1831C150.763 45.298 151.376 44.5539 152.188 44.104V44.104C153.448 43.4061 154.991 43.5196 156.121 44.3932L156.375 44.5898C158.797 46.4632 158.359 50.2706 155.569 51.5909L153.988 52.3394C153.489 52.5756 152.934 52.6604 152.391 52.5836L150.065 52.2546C148.499 52.0331 147.977 50.0323 149.226 49.0411V49.0411C149.509 48.8165 149.72 48.5127 149.832 48.1686L150.476 46.1831Z" fill="url(#paint12_linear_108_107)"/>
<path d="M517.982 225.867L516.903 225.867C515.987 225.867 515.238 225.114 515.238 224.191V224.191C515.238 222.993 516.462 222.204 517.551 222.7L518.97 223.347C519.22 223.461 519.429 223.65 519.568 223.888V223.888C520.083 224.767 519.464 225.867 518.455 225.867L517.982 225.867Z" fill="#C4C4C4"/>
<mask id="mask1_108_107" style="mask-type:alpha" maskUnits="userSpaceOnUse" x="52" y="48" width="158" height="102">
<path d="M53.7835 67.828C51.8129 67.3819 51.8358 64.564 53.8133 64.142V64.142C55.078 63.872 55.7048 62.4375 55.0432 61.3273L52.7278 57.4417C51.8718 56.0052 51.7714 54.2394 52.4588 52.7119L52.6505 52.286C53.5487 50.2903 55.4564 48.937 57.6337 48.7509L62.3803 48.3452C64.165 48.1927 65.9616 48.3816 67.6742 48.902L71.9427 50.199C75.5662 51.3001 79.3703 51.6854 83.1436 51.3337L85.8523 51.0811C86.9388 50.9799 88.0045 50.7177 89.0148 50.3033V50.3033C91.0044 49.4872 93.1877 49.2703 95.2963 49.6794L106.564 51.8655C108.126 52.1687 109.747 51.9015 111.132 51.1123V51.1123C112.409 50.3847 113.89 50.0991 115.344 50.2998L136.883 53.2733L156.52 53.7567C160.364 53.8513 160.682 59.4552 156.874 60V60C155.578 60.1854 154.532 61.1573 154.251 62.4375L153.855 64.2338C153.287 66.8176 154.54 69.4546 156.9 70.6393L165.545 74.9802C170.957 77.6976 177.526 74.9588 179.424 69.194V69.194C181.275 63.5692 187.597 60.7954 192.973 63.2497L202.525 67.6115C203.99 68.2804 205.301 69.2443 206.377 70.443V70.443C212.758 77.5531 208.422 88.9255 198.922 89.9948L194.699 90.4702C190.73 90.917 187.14 93.0472 184.84 96.32L175.357 109.816C174.335 111.271 174.002 113.101 174.449 114.82L175.225 117.81C175.506 118.893 174.975 120.025 173.963 120.502V120.502C172.721 121.088 171.247 120.476 170.788 119.183L170.025 117.038C169.194 114.702 166.595 113.522 164.287 114.433L160.549 115.909C159.75 116.225 158.893 116.368 158.035 116.33L150.093 115.981C147.49 115.867 146.063 118.982 147.852 120.876V120.876C148.291 121.342 148.564 121.941 148.628 122.579L148.742 123.736C149.225 128.614 154.84 131.089 158.771 128.157L159.496 127.617C159.823 127.373 160.195 127.198 160.591 127.101L162.057 126.743C164.719 126.092 166.487 129.421 164.461 131.272V131.272C163.008 132.599 163.453 134.99 165.285 135.699L167.715 136.638C169.029 137.146 170.006 138.272 170.324 139.645L171.271 143.729C171.497 144.707 172.295 145.448 173.286 145.602L176.113 146.04C178.236 146.369 178.315 149.4 176.212 149.848V149.848C175.883 149.918 175.541 149.901 175.221 149.799L171.842 148.718C169.678 148.026 167.802 146.641 166.503 144.776V144.776C164.856 142.412 162.301 140.842 159.448 140.442L152.529 139.472C150.741 139.221 148.984 138.788 147.284 138.178L146.864 138.027C139.912 135.532 134.094 130.613 130.475 124.17L124.662 113.821C124.637 113.777 124.609 113.735 124.578 113.695V113.695C123.806 112.701 122.27 113.72 122.882 114.82L126.451 121.243C126.988 122.209 125.686 123.136 124.952 122.311V122.311L119.058 114.742L111.252 102.241C109.498 99.4309 108.478 96.2238 108.284 92.9134L108.215 91.7176C107.843 85.3469 104.083 79.6736 98.366 76.8596V76.8596C96.9157 76.1457 95.5703 75.2362 94.3671 74.1566L89.8812 70.1312C86.8199 67.3842 83.0743 65.5148 79.0381 64.7195V64.7195C75.2818 63.9793 71.3982 64.1939 67.7424 65.3437L57.9582 68.4209C57.5318 68.555 57.0777 68.5737 56.6422 68.4751L53.7835 67.828Z" fill="url(#paint13_linear_108_107)"/>
</mask>
<g mask="url(#mask1_108_107)">
<ellipse cx="123" cy="94.5" rx="103" ry="82.5" fill="url(#paint14_linear_108_107)"/>
<ellipse cx="120" cy="113" rx="33" ry="28" fill="url(#paint15_radial_108_107)"/>
</g>
</g>
<g filter="url(#filter1_i_108_107)">
<path d="M337.618 83.5336C337.784 82.0821 339.731 81.7265 340.4 83.0253L340.945 84.0826C341.663 85.4775 343.698 85.3616 344.293 83.91V83.91C345.034 82.1057 347.714 82.4297 347.924 84.3687L347.937 84.4878C347.978 84.8703 348.134 85.2315 348.384 85.524L349.247 86.5336C349.86 87.2517 350.63 87.8202 351.497 88.1959L353.956 89.2613C354.053 89.3036 354.156 89.3333 354.261 89.3497V89.3497C355.732 89.5793 355.647 91.7265 354.161 91.8379L348.514 92.2614C348.177 92.2867 347.84 92.222 347.536 92.074L346.305 91.4737C344.603 90.6439 342.636 90.5424 340.858 91.1927L340.154 91.45L333.449 93.3177C332.918 93.4656 332.57 92.7752 333.005 92.4363V92.4363C333.116 92.3494 333.186 92.2199 333.197 92.0791L333.427 89.1602C333.546 87.6564 334.357 86.2932 335.621 85.471L336.955 84.6043C337.324 84.3641 337.568 83.9715 337.618 83.5336V83.5336Z" fill="#0C466F"/>
</g>
<g filter="url(#filter2_i_108_107)">
<path d="M363.73 95.2964C363.73 94.834 363.857 94.381 364.099 93.987L364.726 92.9616C365.175 92.2284 364.883 91.2667 364.102 90.9016L360.569 89.251C360.01 88.9899 360.194 88.1543 360.811 88.1543V88.1543C361.069 88.1543 361.295 87.9831 361.364 87.7353L361.789 86.2184C361.994 85.4872 362.502 84.8794 363.186 84.5483L364.05 84.1301V84.1301C365.05 83.6722 366.138 83.4352 367.239 83.4352L367.296 83.4352L367.426 83.4352C368.566 83.4352 369.188 84.7692 368.451 85.6367V85.6367C368.247 85.8772 368.135 86.1825 368.135 86.4984L368.135 89.0368C368.135 89.4688 368.396 89.8589 368.796 90.0249V90.0249C369.196 90.1909 369.457 90.581 369.457 91.0131L369.457 92.2538C369.457 92.7861 369.958 93.1779 370.475 93.0496V93.0496C370.879 92.9493 371.295 93.1685 371.441 93.5588L372.141 95.4279C372.505 96.399 372.247 97.4914 371.489 98.1958V98.1958C371.016 98.6353 370.393 98.8795 369.746 98.8795L368.444 98.8795C367.69 98.8795 366.946 98.6982 366.275 98.3509L365.218 97.8032C364.304 97.3297 363.73 96.3871 363.73 95.3602L363.73 95.2964Z" fill="#0C466F"/>
</g>
</g>
<defs>
<filter id="filter0_d_108_107" x="-40" y="-40" width="680" height="380" filterUnits="userSpaceOnUse" color-interpolation-filters="sRGB">
<feFlood flood-opacity="0" result="BackgroundImageFix"/>
<feColorMatrix in="SourceAlpha" type="matrix" values="0 0 0 0 0 0 0 0 0 0 0 0 0 0 0 0 0 0 127 0" result="hardAlpha"/>
<feOffset/>
<feGaussianBlur stdDeviation="20"/>
<feComposite in2="hardAlpha" operator="out"/>
<feColorMatrix type="matrix" values="0 0 0 0 0.0941176 0 0 0 0 0.423529 0 0 0 0 0.654902 0 0 0 1 0"/>
<feBlend mode="normal" in2="BackgroundImageFix" result="effect1_dropShadow_108_107"/>
<feBlend mode="normal" in="SourceGraphic" in2="effect1_dropShadow_108_107" result="shape"/>
</filter>
<filter id="filter1_i_108_107" x="332.808" y="82.2229" width="22.5127" height="11.1152" filterUnits="userSpaceOnUse" color-interpolation-filters="sRGB">
<feFlood flood-opacity="0" result="BackgroundImageFix"/>
<feBlend mode="normal" in="SourceGraphic" in2="BackgroundImageFix" result="shape"/>
<feColorMatrix in="SourceAlpha" type="matrix" values="0 0 0 0 0 0 0 0 0 0 0 0 0 0 0 0 0 0 127 0" result="hardAlpha"/>
<feOffset/>
<feGaussianBlur stdDeviation="7.5"/>
<feComposite in2="hardAlpha" operator="arithmetic" k2="-1" k3="1"/>
<feColorMatrix type="matrix" values="0 0 0 0 0.0941176 0 0 0 0 0.423529 0 0 0 0 0.654902 0 0 0 1 0"/>
<feBlend mode="normal" in2="shape" result="effect1_innerShadow_108_107"/>
</filter>
<filter id="filter2_i_108_107" x="360.235" y="83.4351" width="12.0687" height="15.4446" filterUnits="userSpaceOnUse" color-interpolation-filters="sRGB">
<feFlood flood-opacity="0" result="BackgroundImageFix"/>
<feBlend mode="normal" in="SourceGraphic" in2="BackgroundImageFix" result="shape"/>
<feColorMatrix in="SourceAlpha" type="matrix" values="0 0 0 0 0 0 0 0 0 0 0 0 0 0 0 0 0 0 127 0" result="hardAlpha"/>
<feOffset/>
<feGaussianBlur stdDeviation="7.5"/>
<feComposite in2="hardAlpha" operator="arithmetic" k2="-1" k3="1"/>
<feColorMatrix type="matrix" values="0 0 0 0 0.0941176 0 0 0 0 0.423529 0 0 0 0 0.654902 0 0 0 1 0"/>
<feBlend mode="normal" in2="shape" result="effect1_innerShadow_108_107"/>
</filter>
<linearGradient id="paint0_linear_108_107" x1="300" y1="0" x2="300" y2="300" gradientUnits="userSpaceOnUse">
<stop stop-color="#05365E"/>
<stop offset="1" stop-color="#10507A"/>
</linearGradient>
<linearGradient id="paint1_linear_108_107" x1="206.855" y1="132.535" x2="206.855" y2="256.352" gradientUnits="userSpaceOnUse">
<stop stop-color="#3A5A1D"/>
<stop offset="1" stop-color="#E2DF91"/>
</linearGradient>
<linearGradient id="paint2_linear_108_107" x1="297.623" y1="95.9758" x2="362.03" y2="198.968" gradientUnits="userSpaceOnUse">
<stop stop-color="#FDEEC4"/>
<stop offset="0.3125" stop-color="#E5C89A"/>
<stop offset="0.520833" stop-color="#7EA76A"/>
<stop offset="1" stop-color="#A6865F"/>
</linearGradient>
<linearGradient id="paint3_linear_108_107" x1="367.835" y1="176.622" x2="367.835" y2="201.01" gradientUnits="userSpaceOnUse">
<stop stop-color="#F8EBC1"/>
<stop offset="0.140625" stop-color="#E1D5AC"/>
<stop offset="1" stop-color="#574D29"/>
</linearGradient>
<linearGradient id="paint4_linear_108_107" x1="417.227" y1="40.1414" x2="417.227" y2="148.951" gradientUnits="userSpaceOnUse">
<stop stop-color="#777356"/>
<stop offset="0.125" stop-color="#737268"/>
<stop offset="0.375" stop-color="#617B4D"/>
<stop offset="0.651042" stop-color="#47733A"/>
<stop offset="0.9997" stop-color="#196420"/>
<stop offset="0.9998" stop-color="#125446"/>
<stop offset="0.9999" stop-color="#887A54"/>
</linearGradient>
<linearGradient id="paint5_linear_108_107" x1="434" y1="25" x2="434" y2="162" gradientUnits="userSpaceOnUse">
<stop stop-color="#62694B"/>
<stop offset="0.348958" stop-color="#3C491E"/>
<stop offset="0.604167" stop-color="#5A4F2D"/>
<stop offset="0.802083" stop-color="#465119"/>
</linearGradient>
<linearGradient id="paint6_linear_108_107" x1="274" y1="94" x2="408.677" y2="124.199" gradientUnits="userSpaceOnUse">
<stop stop-color="#4E7D46"/>
<stop offset="0.661458" stop-color="#378853" stop-opacity="0.12"/>
<stop offset="1" stop-color="#FAE9BE" stop-opacity="0"/>
</linearGradient>
<radialGradient id="paint7_radial_108_107" cx="0" cy="0" r="1" gradientUnits="userSpaceOnUse" gradientTransform="translate(342 132) rotate(-147.67) scale(46.7467 95.0786)">
<stop stop-color="#FAE8BE"/>
<stop offset="1" stop-color="#FAE8BE" stop-opacity="0"/>
</radialGradient>
<linearGradient id="paint8_linear_108_107" x1="498.404" y1="166.304" x2="498.404" y2="218.832" gradientUnits="userSpaceOnUse">
<stop stop-color="#A77B50"/>
<stop offset="0.628068" stop-color="#A9AD66"/>
<stop offset="1" stop-color="#66693B"/>
</linearGradient>
<linearGradient id="paint9_linear_108_107" x1="181.015" y1="43.8933" x2="181.015" y2="61.7155" gradientUnits="userSpaceOnUse">
<stop stop-color="white"/>
<stop offset="1" stop-color="#475423"/>
</linearGradient>
<linearGradient id="paint10_linear_108_107" x1="124.535" y1="41.7488" x2="124.535" y2="51.3352" gradientUnits="userSpaceOnUse">
<stop stop-color="white"/>
<stop offset="1" stop-color="#474C21"/>
</linearGradient>
<linearGradient id="paint11_linear_108_107" x1="166.943" y1="60.4121" x2="168.05" y2="56.5048" gradientUnits="userSpaceOnUse">
<stop stop-color="#474D21"/>
<stop offset="1" stop-color="white"/>
</linearGradient>
<linearGradient id="paint12_linear_108_107" x1="152.206" y1="43.4684" x2="154.435" y2="52.3987" gradientUnits="userSpaceOnUse">
<stop stop-color="white"/>
<stop offset="1" stop-color="#474C21"/>
</linearGradient>
<linearGradient id="paint13_linear_108_107" x1="122.524" y1="32.0321" x2="153.34" y2="155.905" gradientUnits="userSpaceOnUse">
<stop stop-color="#46451F"/>
<stop offset="1" stop-color="#486527"/>
</linearGradient>
<linearGradient id="paint14_linear_108_107" x1="123" y1="12" x2="123" y2="177" gradientUnits="userSpaceOnUse">
<stop offset="0.277204" stop-color="#787C5C"/>
<stop offset="0.496052" stop-color="#B3A581"/>
<stop offset="0.67909" stop-color="#486527"/>
</linearGradient>
<radialGradient id="paint15_radial_108_107" cx="0" cy="0" r="1" gradientUnits="userSpaceOnUse" gradientTransform="translate(120 113) rotate(90) scale(28 33)">
<stop stop-color="#F2DDB1"/>
<stop offset="1" stop-color="#F2DDB1" stop-opacity="0"/>
</radialGradient>
<clipPath id="clip0_108_107">
<rect width="600" height="300" fill="white"/>
</clipPath>
</defs>
</svg>
