<svg width="500" height="379" viewBox="0 0 500 379" fill="none" xmlns="http://www.w3.org/2000/svg">
<rect width="10" height="331" fill="#C4C4C4"/>
<rect y="331" width="10" height="500" transform="rotate(-90 0 331)" fill="#C4C4C4"/>
<rect x="33" y="298" width="41" height="23" fill="#C4C4C4"/>
<rect x="97" y="37" width="41" height="284" fill="#C4C4C4"/>
<rect x="161" y="106" width="41" height="215" fill="#C4C4C4"/>
<rect x="225" y="183" width="41" height="138" fill="#C4C4C4"/>
<rect x="289" y="106" width="41" height="215" fill="#DF6363"/>
<rect x="353" y="15" width="41" height="306" fill="#C4C4C4"/>
<rect x="417" y="146" width="41" height="175" fill="#C4C4C4"/>
<path d="M192.98 373V355.938H197.797C199.281 355.938 200.594 356.266 201.734 356.922C202.875 357.578 203.754 358.512 204.371 359.723C204.996 360.934 205.312 362.324 205.32 363.895V364.984C205.32 366.594 205.008 368.004 204.383 369.215C203.766 370.426 202.879 371.355 201.723 372.004C200.574 372.652 199.234 372.984 197.703 373H192.98ZM195.23 357.789V371.16H197.598C199.332 371.16 200.68 370.621 201.641 369.543C202.609 368.465 203.094 366.93 203.094 364.938V363.941C203.094 362.004 202.637 360.5 201.723 359.43C200.816 358.352 199.527 357.805 197.855 357.789H195.23ZM213.652 373.234C211.934 373.234 210.535 372.672 209.457 371.547C208.379 370.414 207.84 368.902 207.84 367.012V366.613C207.84 365.355 208.078 364.234 208.555 363.25C209.039 362.258 209.711 361.484 210.57 360.93C211.438 360.367 212.375 360.086 213.383 360.086C215.031 360.086 216.312 360.629 217.227 361.715C218.141 362.801 218.598 364.355 218.598 366.379V367.281H210.008C210.039 368.531 210.402 369.543 211.098 370.316C211.801 371.082 212.691 371.465 213.77 371.465C214.535 371.465 215.184 371.309 215.715 370.996C216.246 370.684 216.711 370.27 217.109 369.754L218.434 370.785C217.371 372.418 215.777 373.234 213.652 373.234ZM213.383 361.867C212.508 361.867 211.773 362.188 211.18 362.828C210.586 363.461 210.219 364.352 210.078 365.5H216.43V365.336C216.367 364.234 216.07 363.383 215.539 362.781C215.008 362.172 214.289 361.867 213.383 361.867ZM223.168 360.32L223.238 361.914C224.207 360.695 225.473 360.086 227.035 360.086C229.715 360.086 231.066 361.598 231.09 364.621V373H228.922V364.609C228.914 363.695 228.703 363.02 228.289 362.582C227.883 362.145 227.246 361.926 226.379 361.926C225.676 361.926 225.059 362.113 224.527 362.488C223.996 362.863 223.582 363.355 223.285 363.965V373H221.117V360.32H223.168ZM241.742 369.637C241.742 369.051 241.52 368.598 241.074 368.277C240.637 367.949 239.867 367.668 238.766 367.434C237.672 367.199 236.801 366.918 236.152 366.59C235.512 366.262 235.035 365.871 234.723 365.418C234.418 364.965 234.266 364.426 234.266 363.801C234.266 362.762 234.703 361.883 235.578 361.164C236.461 360.445 237.586 360.086 238.953 360.086C240.391 360.086 241.555 360.457 242.445 361.199C243.344 361.941 243.793 362.891 243.793 364.047H241.613C241.613 363.453 241.359 362.941 240.852 362.512C240.352 362.082 239.719 361.867 238.953 361.867C238.164 361.867 237.547 362.039 237.102 362.383C236.656 362.727 236.434 363.176 236.434 363.73C236.434 364.254 236.641 364.648 237.055 364.914C237.469 365.18 238.215 365.434 239.293 365.676C240.379 365.918 241.258 366.207 241.93 366.543C242.602 366.879 243.098 367.285 243.418 367.762C243.746 368.23 243.91 368.805 243.91 369.484C243.91 370.617 243.457 371.527 242.551 372.215C241.645 372.895 240.469 373.234 239.023 373.234C238.008 373.234 237.109 373.055 236.328 372.695C235.547 372.336 234.934 371.836 234.488 371.195C234.051 370.547 233.832 369.848 233.832 369.098H236C236.039 369.824 236.328 370.402 236.867 370.832C237.414 371.254 238.133 371.465 239.023 371.465C239.844 371.465 240.5 371.301 240.992 370.973C241.492 370.637 241.742 370.191 241.742 369.637ZM249.09 373H246.922V360.32H249.09V373ZM246.746 356.957C246.746 356.605 246.852 356.309 247.062 356.066C247.281 355.824 247.602 355.703 248.023 355.703C248.445 355.703 248.766 355.824 248.984 356.066C249.203 356.309 249.312 356.605 249.312 356.957C249.312 357.309 249.203 357.602 248.984 357.836C248.766 358.07 248.445 358.188 248.023 358.188C247.602 358.188 247.281 358.07 247.062 357.836C246.852 357.602 246.746 357.309 246.746 356.957ZM255.512 357.25V360.32H257.879V361.996H255.512V369.859C255.512 370.367 255.617 370.75 255.828 371.008C256.039 371.258 256.398 371.383 256.906 371.383C257.156 371.383 257.5 371.336 257.938 371.242V373C257.367 373.156 256.812 373.234 256.273 373.234C255.305 373.234 254.574 372.941 254.082 372.355C253.59 371.77 253.344 370.938 253.344 369.859V361.996H251.035V360.32H253.344V357.25H255.512ZM264.57 369.824L267.523 360.32H269.844L264.746 374.957C263.957 377.066 262.703 378.121 260.984 378.121L260.574 378.086L259.766 377.934V376.176L260.352 376.223C261.086 376.223 261.656 376.074 262.062 375.777C262.477 375.48 262.816 374.938 263.082 374.148L263.562 372.859L259.039 360.32H261.406L264.57 369.824Z" fill="white"/>
</svg>
