<svg width="57" height="44" viewBox="0 0 57 44" fill="none" xmlns="http://www.w3.org/2000/svg">
<path d="M47.7046 12.1581C50.7753 21.903 39.2846 33.684 32.2617 28.0334C27.7536 13.7268 40.19 31.5663 37.69 15.3138C29.3338 5.43211 25.6314 36.9377 7.73819 38.3822C29.2748 -11.3917 44.6339 2.41326 47.7046 12.1581Z" fill="url(#paint0_linear_162_83)"/>
<path d="M54.0508 18.7074C56.1933 28.6975 43.6476 39.3479 37.1861 33.0631C34.0407 18.3966 44.7478 37.3246 43.7843 20.9091C36.3924 10.2868 29.7493 41.3058 11.7995 41.0645C37.9127 -6.46824 51.9083 8.71733 54.0508 18.7074Z" fill="url(#paint1_linear_162_83)"/>
<path d="M54.6398 29.5221C54.6398 39.7393 40.1398 47.5222 35.1398 40.0222C35.1398 25.0222 41.6398 45.7746 44.1399 29.5221C39.1398 17.5859 26.1399 46.5222 8.63977 42.5223C44.1397 1.52215 54.6398 19.3049 54.6398 29.5221Z" fill="url(#paint2_linear_162_83)"/>
<defs>
<linearGradient id="paint0_linear_162_83" x1="13.5" y1="24" x2="48" y2="45" gradientUnits="userSpaceOnUse">
<stop stop-color="#0F4D83"/>
<stop offset="1" stop-color="#77BBF8"/>
</linearGradient>
<linearGradient id="paint1_linear_162_83" x1="27.5" y1="24" x2="40.5" y2="37" gradientUnits="userSpaceOnUse">
<stop stop-color="#00508B"/>
<stop offset="0.565198" stop-color="#509DD6"/>
<stop offset="1" stop-color="#88C4F1"/>
</linearGradient>
<linearGradient id="paint2_linear_162_83" x1="32" y1="38.5" x2="43.5" y2="46" gradientUnits="userSpaceOnUse">
<stop stop-color="#0F4C83"/>
<stop offset="1" stop-color="#7DC1FE"/>
</linearGradient>
</defs>
</svg>
