<svg width="70" height="73" viewBox="0 0 70 73" fill="none" xmlns="http://www.w3.org/2000/svg">
<path d="M24 0L29.3883 17.2746H46.8254L32.7185 27.9508L38.1068 45.2254L24 34.5491L9.89315 45.2254L15.2815 27.9508L1.17464 17.2746H18.6117L24 0Z" fill="#FFD600"/>
<path d="M54 25L57.5922 36.0557H69.2169L59.8123 42.8885L63.4046 53.9443L54 47.1115L44.5954 53.9443L48.1877 42.8885L38.7831 36.0557H50.4078L54 25Z" fill="#FFD600"/>
<path d="M24 41L27.5922 52.0557H39.2169L29.8123 58.8885L33.4046 69.9443L24 63.1115L14.5954 69.9443L18.1877 58.8885L8.7831 52.0557H20.4078L24 41Z" fill="#FFD600"/>
</svg>
