
<svg width="600" height="300" viewBox="0 0 600 300" fill="none" xmlns="http://www.w3.org/2000/svg">
    <g clip-path="url(#clip0_304_674)">
        <rect width="600" height="300" fill="#DADADA"/>
        <path d="M359 57C359 72.464 346.016 85 330 85C313.984 85 301 72.464 301 57C301 41.536 313.984 29 330 29C346.016 29 359 41.536 359 57Z" fill="#C4C4C4"/>
        <path d="M394 100C394 118.225 379.002 133 360.5 133C341.998 133 327 118.225 327 100C327 81.7746 341.998 67 360.5 67C379.002 67 394 81.7746 394 100Z" fill="#C4C4C4"/>
        <path d="M212 262C212 280.225 196.778 295 178 295C159.222 295 144 280.225 144 262C144 243.775 159.222 229 178 229C196.778 229 212 243.775 212 262Z" fill="#C4C4C4"/>
        <path d="M199 219C199 237.225 184.002 252 165.5 252C146.998 252 132 237.225 132 219C132 200.775 146.998 186 165.5 186C184.002 186 199 200.775 199 219Z" fill="white" fill-opacity="0.5"/>
        <path d="M199 219C199 237.225 184.002 252 165.5 252C146.998 252 132 237.225 132 219C132 200.775 146.998 186 165.5 186C184.002 186 199 200.775 199 219Z" fill="white" fill-opacity="0.5"/>
        <path d="M267 38C267 56.2254 251.778 71 233 71C214.222 71 199 56.2254 199 38C199 19.7746 214.222 5 233 5C251.778 5 267 19.7746 267 38Z" fill="white" fill-opacity="0.5"/>
        <path d="M179 90C179 108.225 164.002 123 145.5 123C126.998 123 112 108.225 112 90C112 71.7746 126.998 57 145.5 57C164.002 57 179 71.7746 179 90Z" fill="#C4C4C4"/>
        <path d="M242 57.5C242 83.7335 220.062 105 193 105C165.938 105 144 83.7335 144 57.5C144 31.2665 165.938 10 193 10C220.062 10 242 31.2665 242 57.5Z" fill="#C4C4C4"/>
        <path d="M151 230C151 240.493 142.27 249 131.5 249C120.73 249 112 240.493 112 230C112 219.507 120.73 211 131.5 211C142.27 211 151 219.507 151 230Z" fill="#C4C4C4"/>
        <path d="M144 186C144 220.794 115.57 249 80.5 249C45.4299 249 17 220.794 17 186C17 151.206 45.4299 123 80.5 123C115.57 123 144 151.206 144 186Z" fill="#C4C4C4"/>
        <path d="M342 137C342 144.732 335.508 151 327.5 151C319.492 151 313 144.732 313 137C313 129.268 319.492 123 327.5 123C335.508 123 342 129.268 342 137Z" fill="#C2BFBF"/>
        <path d="M222 121.5C222 129.508 215.508 136 207.5 136C199.492 136 193 129.508 193 121.5C193 113.492 199.492 107 207.5 107C215.508 107 222 113.492 222 121.5Z" fill="#C4C4C4"/>
        <path d="M364.194 287.148C346.418 291.171 328.649 279.585 324.504 261.27C320.36 242.955 331.41 224.848 349.186 220.825C366.962 216.803 384.732 228.389 388.877 246.703C393.021 265.018 381.97 283.126 364.194 287.148Z" fill="white" fill-opacity="0.5"/>
        <path d="M437.949 216.631C420.173 220.654 402.453 209.286 398.369 191.241C394.286 173.195 405.386 155.306 423.162 151.283C440.938 147.261 458.658 158.629 462.742 176.674C466.825 194.719 455.725 212.609 437.949 216.631Z" fill="#C4C4C4"/>
        <path d="M402.215 273.931C376.628 279.721 351.044 263.017 345.071 236.623C339.099 210.228 354.999 184.138 380.585 178.348C406.172 172.558 431.756 189.261 437.729 215.656C443.701 242.05 427.801 268.141 402.215 273.931Z" fill="#C4C4C4"/>
        <path d="M444.883 119.327C383.515 133.214 321.954 92.2717 307.383 27.8801C292.812 -36.5116 330.749 -99.9688 392.117 -113.856C453.485 -127.742 515.046 -86.8003 529.617 -22.4087C544.188 41.983 506.251 105.44 444.883 119.327Z" fill="#C4C4C4"/>
        <path d="M366.333 181.06C358.522 182.828 350.758 177.929 348.99 170.118C347.223 162.307 352.122 154.543 359.932 152.775C367.743 151.008 375.508 155.907 377.275 163.717C379.042 171.528 374.143 179.293 366.333 181.06Z" fill="#C4C4C4"/>
        <path d="M267 38C267 56.2254 251.778 71 233 71C214.222 71 199 56.2254 199 38C199 19.7746 214.222 5 233 5C251.778 5 267 19.7746 267 38Z" fill="white" fill-opacity="0.5"/>
        <path d="M179 90C179 108.225 164.002 123 145.5 123C126.998 123 112 108.225 112 90C112 71.7746 126.998 57 145.5 57C164.002 57 179 71.7746 179 90Z" fill="#C2BFBF"/>
        <path d="M242 57.5C242 83.7335 220.062 105 193 105C165.938 105 144 83.7335 144 57.5C144 31.2665 165.938 10 193 10C220.062 10 242 31.2665 242 57.5Z" fill="#C2BFBF"/>
        <path d="M222 121.5C222 129.508 215.508 136 207.5 136C199.492 136 193 129.508 193 121.5C193 113.492 199.492 107 207.5 107C215.508 107 222 113.492 222 121.5Z" fill="#C4C4C4"/>
        <path d="M394 58C394 65.732 387.732 72 380 72C372.268 72 366 65.732 366 58C366 50.268 372.268 44 380 44C387.732 44 394 50.268 394 58Z" fill="#C4C4C4"/>
    </g>
    <defs>
        <clipPath id="clip0_304_674">
            <rect width="600" height="300" fill="white"/>
        </clipPath>
    </defs>
</svg>