<svg width="545" height="365" viewBox="0 0 545 365" fill="none" xmlns="http://www.w3.org/2000/svg">
<g filter="url(#filter0_di_154_344)">
<g clip-path="url(#clip0_154_344)">
<rect x="132" y="20" width="325" height="325" rx="162.5" fill="#DADADA"/>
<path d="M395.015 75.3523C395.015 89.617 384.428 101.181 371.369 101.181C358.31 101.181 347.724 89.617 347.724 75.3523C347.724 61.0877 358.31 49.5239 371.369 49.5239C384.428 49.5239 395.015 61.0877 395.015 75.3523Z" fill="#C4C4C4"/>
<path d="M423.389 114.095C423.389 130.737 411.038 144.228 395.803 144.228C380.568 144.228 368.217 130.737 368.217 114.095C368.217 97.453 380.568 83.9619 395.803 83.9619C411.038 83.9619 423.389 97.453 423.389 114.095Z" fill="#C4C4C4"/>
<path d="M275.212 262.178C275.212 278.82 262.861 292.311 247.626 292.311C232.39 292.311 220.04 278.82 220.04 262.178C220.04 245.535 232.39 232.044 247.626 232.044C262.861 232.044 275.212 245.535 275.212 262.178Z" fill="#C4C4C4"/>
<path d="M290.962 350.211C285.418 362.477 270.428 367.678 257.481 361.826C244.534 355.975 238.532 341.287 244.076 329.021C249.62 316.754 264.61 311.554 277.557 317.405C290.504 323.257 296.506 337.944 290.962 350.211Z" fill="#C4C4C4"/>
<path d="M264.177 222.574C264.177 239.216 251.827 252.707 236.591 252.707C221.356 252.707 209.005 239.216 209.005 222.574C209.005 205.931 221.356 192.44 236.591 192.44C251.827 192.44 264.177 205.931 264.177 222.574Z" fill="white" fill-opacity="0.5"/>
<path d="M264.177 222.574C264.177 239.216 251.827 252.707 236.591 252.707C221.356 252.707 209.005 239.216 209.005 222.574C209.005 205.931 221.356 192.44 236.591 192.44C251.827 192.44 264.177 205.931 264.177 222.574Z" fill="white" fill-opacity="0.5"/>
<path d="M319.35 58.1331C319.35 74.7752 306.999 88.2663 291.763 88.2663C276.528 88.2663 264.177 74.7752 264.177 58.1331C264.177 41.4911 276.528 28 291.763 28C306.999 28 319.35 41.4911 319.35 58.1331Z" fill="white" fill-opacity="0.5"/>
<path d="M248.414 105.485C248.414 122.127 236.063 135.618 220.827 135.618C205.592 135.618 193.241 122.127 193.241 105.485C193.241 88.8431 205.592 75.3521 220.827 75.3521C236.063 75.3521 248.414 88.8431 248.414 105.485Z" fill="#C4C4C4"/>
<path d="M298.857 75.352C298.857 99.1264 281.213 118.399 259.448 118.399C237.683 118.399 220.04 99.1264 220.04 75.352C220.04 51.5776 237.683 32.3047 259.448 32.3047C281.213 32.3047 298.857 51.5776 298.857 75.352Z" fill="#C4C4C4"/>
<path d="M224.768 232.044C224.768 241.554 217.711 249.263 209.005 249.263C200.299 249.263 193.241 241.554 193.241 232.044C193.241 222.534 200.299 214.825 209.005 214.825C217.711 214.825 224.768 222.534 224.768 232.044Z" fill="#C4C4C4"/>
<path d="M297.527 328.219C297.527 337.729 290.47 345.438 281.764 345.438C273.058 345.438 266 337.729 266 328.219C266 318.709 273.058 311 281.764 311C290.47 311 297.527 318.709 297.527 328.219Z" fill="#C4C4C4"/>
<path d="M220.039 192.441C220.039 223.823 196.749 249.263 168.02 249.263C139.29 249.263 116 223.823 116 192.441C116 161.058 139.29 135.618 168.02 135.618C196.749 135.618 220.039 161.058 220.039 192.441Z" fill="#C4C4C4"/>
<path d="M418.66 292.311C418.66 299.443 413.367 305.225 406.837 305.225C400.308 305.225 395.015 299.443 395.015 292.311C395.015 285.178 400.308 279.396 406.837 279.396C413.367 279.396 418.66 285.178 418.66 292.311Z" fill="#C4C4C4"/>
<path d="M270.483 144.228C270.483 151.36 265.19 157.142 258.66 157.142C252.131 157.142 246.837 151.36 246.837 144.228C246.837 137.095 252.131 131.313 258.66 131.313C265.19 131.313 270.483 137.095 270.483 144.228Z" fill="#C4C4C4"/>
<path d="M436 306.086C436 313.218 430.707 319 424.177 319C417.648 319 412.354 313.218 412.354 306.086C412.354 298.953 417.648 293.171 424.177 293.171C430.707 293.171 436 298.953 436 306.086Z" fill="#C4C4C4"/>
<mask id="mask0_154_344" style="mask-type:alpha" maskUnits="userSpaceOnUse" x="224" y="-35" width="233" height="285">
<path d="M456.5 191C443.5 218 406 232.417 357 240C308 247.583 224 274 224 183.5C224 75 294.5 -16 378.5 -34.5C453.887 -34.5 456.5 64.8029 456.5 191Z" fill="#E58B27"/>
</mask>
<g mask="url(#mask0_154_344)">
<rect x="286" y="20" width="194" height="171" fill="url(#paint0_linear_154_344)"/>
<path d="M216 6H287V191.5L188 286L216 6Z" fill="url(#paint1_linear_154_344)"/>
<path d="M287.206 190.103L479 190.103L221.247 422.778L142.5 332L287.206 190.103Z" fill="url(#paint2_linear_154_344)"/>
</g>
<mask id="mask1_154_344" style="mask-type:alpha" maskUnits="userSpaceOnUse" x="233" y="31" width="214" height="210">
<path d="M447 189.856C435.09 208.346 403.018 229.219 358.128 234.412C313.238 239.606 230.5 260.5 234 184.72C237.5 108.939 254.538 79.0002 289 31.5002C364 24 447 103.434 447 189.856Z" fill="#FBDD11"/>
</mask>
<g mask="url(#mask1_154_344)">
<path d="M216 6H287V191.5L188 286L216 6Z" fill="url(#paint3_linear_154_344)"/>
<path d="M287.206 190.103L479 190.103L221.247 422.778L142.5 332L287.206 190.103Z" fill="url(#paint4_linear_154_344)"/>
<rect x="286" y="20" width="194" height="171" fill="url(#paint5_linear_154_344)"/>
</g>
<mask id="mask2_154_344" style="mask-type:alpha" maskUnits="userSpaceOnUse" x="263" y="135" width="77" height="75">
<path d="M340 191.849C335.695 198.466 324.1 205.936 307.872 207.794C291.644 209.653 263 216.601 263 190.011C263 163.42 266.983 143.154 285.038 135C310.005 135 340 160.921 340 191.849Z" fill="#FBDD11"/>
</mask>
<g mask="url(#mask2_154_344)">
<rect x="287" y="68" width="150" height="122" fill="#D10000"/>
<path d="M287.206 190.103L422.5 190.103L201.679 398.37L141.5 335L287.206 190.103Z" fill="url(#paint6_linear_154_344)"/>
<path d="M216 60H287V191L188 286L216 60Z" fill="#C20000"/>
</g>
<mask id="mask3_154_344" style="mask-type:alpha" maskUnits="userSpaceOnUse" x="268" y="144" width="63" height="61">
<path d="M331 190.237C327.477 195.619 317.991 201.694 304.714 203.206C291.436 204.718 268 210.369 268 188.742C268 167.115 271.259 150.632 286.031 144C306.458 144 331 165.083 331 190.237Z" fill="black"/>
</mask>
<g mask="url(#mask3_154_344)">
<path d="M287.206 190.103L422.5 190.103L201.679 398.37L141.5 335L287.206 190.103Z" fill="url(#paint7_linear_154_344)"/>
<path d="M216 60H287V191L188 286L216 60Z" fill="#E26D00"/>
<rect x="287" y="68" width="150" height="122" fill="#F07300"/>
</g>
<mask id="mask4_154_344" style="mask-type:alpha" maskUnits="userSpaceOnUse" x="276" y="159" width="44" height="40">
<path d="M320 189.319C317.54 192.849 310.914 196.832 301.641 197.824C292.368 198.815 276 202.521 276 188.339C276 174.158 278.276 163.349 288.593 159C302.86 159 320 172.825 320 189.319Z" fill="#F3EDEF"/>
</mask>
<g mask="url(#mask4_154_344)">
<ellipse cx="296" cy="186" rx="50" ry="58" fill="url(#paint8_linear_154_344)"/>
</g>
</g>
</g>
<path d="M11.0391 57.3594V73H8.96582V57.3594H11.0391ZM16.4961 63.8584V73H14.5088V61.377H16.3887L16.4961 63.8584ZM16.0234 66.748L15.1963 66.7158C15.2035 65.9209 15.3216 65.1868 15.5508 64.5137C15.7799 63.8333 16.1022 63.2425 16.5176 62.7412C16.9329 62.2399 17.4271 61.8532 18 61.5811C18.5801 61.3018 19.221 61.1621 19.9229 61.1621C20.4958 61.1621 21.0114 61.2409 21.4697 61.3984C21.9281 61.5488 22.3184 61.7923 22.6406 62.1289C22.9701 62.4655 23.2207 62.9023 23.3926 63.4395C23.5645 63.9694 23.6504 64.6175 23.6504 65.3838V73H21.6523V65.3623C21.6523 64.7536 21.5628 64.2666 21.3838 63.9014C21.2048 63.529 20.9434 63.2604 20.5996 63.0957C20.2559 62.9238 19.8333 62.8379 19.332 62.8379C18.8379 62.8379 18.3867 62.9417 17.9785 63.1494C17.5775 63.3571 17.2301 63.6436 16.9365 64.0088C16.6501 64.374 16.4245 64.793 16.2598 65.2656C16.1022 65.7311 16.0234 66.2253 16.0234 66.748ZM28.6562 63.8584V73H26.6689V61.377H28.5488L28.6562 63.8584ZM28.1836 66.748L27.3564 66.7158C27.3636 65.9209 27.4818 65.1868 27.7109 64.5137C27.9401 63.8333 28.2624 63.2425 28.6777 62.7412C29.0931 62.2399 29.5872 61.8532 30.1602 61.5811C30.7402 61.3018 31.3812 61.1621 32.083 61.1621C32.6559 61.1621 33.1715 61.2409 33.6299 61.3984C34.0882 61.5488 34.4785 61.7923 34.8008 62.1289C35.1302 62.4655 35.3809 62.9023 35.5527 63.4395C35.7246 63.9694 35.8105 64.6175 35.8105 65.3838V73H33.8125V65.3623C33.8125 64.7536 33.723 64.2666 33.5439 63.9014C33.3649 63.529 33.1035 63.2604 32.7598 63.0957C32.416 62.9238 31.9935 62.8379 31.4922 62.8379C30.998 62.8379 30.5469 62.9417 30.1387 63.1494C29.7376 63.3571 29.3903 63.6436 29.0967 64.0088C28.8102 64.374 28.5846 64.793 28.4199 65.2656C28.2624 65.7311 28.1836 66.2253 28.1836 66.748ZM43.6523 73.2148C42.8431 73.2148 42.109 73.0788 41.4502 72.8066C40.7985 72.5273 40.2363 72.137 39.7637 71.6357C39.2982 71.1344 38.9401 70.54 38.6895 69.8525C38.4388 69.165 38.3135 68.4131 38.3135 67.5967V67.1455C38.3135 66.2002 38.4531 65.3587 38.7324 64.6211C39.0117 63.8763 39.3913 63.2461 39.8711 62.7305C40.3509 62.2148 40.8952 61.8245 41.5039 61.5596C42.1126 61.2946 42.7428 61.1621 43.3945 61.1621C44.2253 61.1621 44.9414 61.3053 45.543 61.5918C46.1517 61.8783 46.6494 62.2793 47.0361 62.7949C47.4229 63.3034 47.7093 63.9049 47.8955 64.5996C48.0817 65.2871 48.1748 66.0391 48.1748 66.8555V67.7471H39.4951V66.125H46.1875V65.9746C46.1589 65.459 46.0514 64.9577 45.8652 64.4707C45.6862 63.9837 45.3997 63.5827 45.0059 63.2676C44.612 62.9525 44.0749 62.7949 43.3945 62.7949C42.9434 62.7949 42.528 62.8916 42.1484 63.085C41.7689 63.2712 41.443 63.5505 41.1709 63.9229C40.8988 64.2952 40.6875 64.75 40.5371 65.2871C40.3867 65.8242 40.3115 66.4437 40.3115 67.1455V67.5967C40.3115 68.1481 40.3867 68.6673 40.5371 69.1543C40.6947 69.6341 40.9202 70.0566 41.2139 70.4219C41.5146 70.7871 41.8763 71.0736 42.2988 71.2812C42.7285 71.4889 43.2155 71.5928 43.7598 71.5928C44.4616 71.5928 45.056 71.4495 45.543 71.1631C46.0299 70.8766 46.4561 70.4935 46.8213 70.0137L48.0244 70.9697C47.7738 71.3493 47.4551 71.7109 47.0684 72.0547C46.6816 72.3984 46.2054 72.6777 45.6396 72.8926C45.0811 73.1074 44.4186 73.2148 43.6523 73.2148ZM52.4824 63.2031V73H50.4951V61.377H52.4287L52.4824 63.2031ZM56.1133 61.3125L56.1025 63.1602C55.9378 63.1243 55.7803 63.1029 55.6299 63.0957C55.4867 63.0814 55.3219 63.0742 55.1357 63.0742C54.6774 63.0742 54.2728 63.1458 53.9219 63.2891C53.571 63.4323 53.2738 63.6328 53.0303 63.8906C52.7868 64.1484 52.5934 64.4564 52.4502 64.8145C52.3141 65.1654 52.2246 65.5521 52.1816 65.9746L51.623 66.2969C51.623 65.5951 51.6911 64.9362 51.8271 64.3203C51.9704 63.7044 52.1888 63.1602 52.4824 62.6875C52.776 62.2077 53.1484 61.8353 53.5996 61.5703C54.0579 61.2982 54.6022 61.1621 55.2324 61.1621C55.3757 61.1621 55.5404 61.18 55.7266 61.2158C55.9128 61.2445 56.0417 61.2767 56.1133 61.3125ZM68.0586 71.582C68.5312 71.582 68.9681 71.4854 69.3691 71.292C69.7702 71.0986 70.0996 70.8337 70.3574 70.4971C70.6152 70.1533 70.762 69.763 70.7979 69.3262H72.6885C72.6527 70.0137 72.4199 70.6546 71.9902 71.249C71.5677 71.8363 71.0127 72.3125 70.3252 72.6777C69.6377 73.0358 68.8822 73.2148 68.0586 73.2148C67.1849 73.2148 66.4222 73.0609 65.7705 72.7529C65.126 72.445 64.5889 72.0225 64.1592 71.4854C63.7367 70.9482 63.418 70.3324 63.2031 69.6377C62.9954 68.9359 62.8916 68.1947 62.8916 67.4141V66.9629C62.8916 66.1823 62.9954 65.4447 63.2031 64.75C63.418 64.0482 63.7367 63.4287 64.1592 62.8916C64.5889 62.3545 65.126 61.932 65.7705 61.624C66.4222 61.3161 67.1849 61.1621 68.0586 61.1621C68.9681 61.1621 69.763 61.3483 70.4434 61.7207C71.1237 62.0859 71.6572 62.5872 72.0439 63.2246C72.4378 63.8548 72.6527 64.571 72.6885 65.373H70.7979C70.762 64.8932 70.626 64.46 70.3896 64.0732C70.1605 63.6865 69.8454 63.3786 69.4443 63.1494C69.0505 62.9131 68.5885 62.7949 68.0586 62.7949C67.4499 62.7949 66.9378 62.9167 66.5225 63.1602C66.1143 63.3965 65.7884 63.7188 65.5449 64.127C65.3086 64.528 65.1367 64.9756 65.0293 65.4697C64.929 65.9567 64.8789 66.4544 64.8789 66.9629V67.4141C64.8789 67.9225 64.929 68.4238 65.0293 68.918C65.1296 69.4121 65.2979 69.8597 65.5342 70.2607C65.7777 70.6618 66.1035 70.984 66.5117 71.2275C66.9271 71.4639 67.4427 71.582 68.0586 71.582ZM74.3965 67.3174V67.0703C74.3965 66.2324 74.5182 65.4554 74.7617 64.7393C75.0052 64.016 75.3561 63.3893 75.8145 62.8594C76.2728 62.3223 76.8278 61.9069 77.4795 61.6133C78.1312 61.3125 78.8617 61.1621 79.6709 61.1621C80.4873 61.1621 81.2214 61.3125 81.873 61.6133C82.5319 61.9069 83.0905 62.3223 83.5488 62.8594C84.0143 63.3893 84.3688 64.016 84.6123 64.7393C84.8558 65.4554 84.9775 66.2324 84.9775 67.0703V67.3174C84.9775 68.1553 84.8558 68.9323 84.6123 69.6484C84.3688 70.3646 84.0143 70.9912 83.5488 71.5283C83.0905 72.0583 82.5355 72.4736 81.8838 72.7744C81.2393 73.068 80.5088 73.2148 79.6924 73.2148C78.876 73.2148 78.1419 73.068 77.4902 72.7744C76.8385 72.4736 76.2799 72.0583 75.8145 71.5283C75.3561 70.9912 75.0052 70.3646 74.7617 69.6484C74.5182 68.9323 74.3965 68.1553 74.3965 67.3174ZM76.3838 67.0703V67.3174C76.3838 67.8975 76.4518 68.4453 76.5879 68.9609C76.724 69.4694 76.9281 69.9206 77.2002 70.3145C77.4795 70.7083 77.8268 71.0199 78.2422 71.249C78.6576 71.471 79.141 71.582 79.6924 71.582C80.2367 71.582 80.7129 71.471 81.1211 71.249C81.5365 71.0199 81.8802 70.7083 82.1523 70.3145C82.4245 69.9206 82.6286 69.4694 82.7646 68.9609C82.9079 68.4453 82.9795 67.8975 82.9795 67.3174V67.0703C82.9795 66.4974 82.9079 65.9567 82.7646 65.4482C82.6286 64.9326 82.4209 64.4779 82.1416 64.084C81.8695 63.6829 81.5257 63.3678 81.1104 63.1387C80.7021 62.9095 80.2223 62.7949 79.6709 62.7949C79.1266 62.7949 78.6468 62.9095 78.2314 63.1387C77.8232 63.3678 77.4795 63.6829 77.2002 64.084C76.9281 64.4779 76.724 64.9326 76.5879 65.4482C76.4518 65.9567 76.3838 66.4974 76.3838 67.0703ZM89.457 63.2031V73H87.4697V61.377H89.4033L89.457 63.2031ZM93.0879 61.3125L93.0771 63.1602C92.9124 63.1243 92.7549 63.1029 92.6045 63.0957C92.4613 63.0814 92.2965 63.0742 92.1104 63.0742C91.652 63.0742 91.2474 63.1458 90.8965 63.2891C90.5456 63.4323 90.2484 63.6328 90.0049 63.8906C89.7614 64.1484 89.568 64.4564 89.4248 64.8145C89.2887 65.1654 89.1992 65.5521 89.1562 65.9746L88.5977 66.2969C88.5977 65.5951 88.6657 64.9362 88.8018 64.3203C88.945 63.7044 89.1634 63.1602 89.457 62.6875C89.7507 62.2077 90.123 61.8353 90.5742 61.5703C91.0326 61.2982 91.5768 61.1621 92.207 61.1621C92.3503 61.1621 92.515 61.18 92.7012 61.2158C92.8874 61.2445 93.0163 61.2767 93.0879 61.3125ZM99.5332 73.2148C98.724 73.2148 97.9899 73.0788 97.3311 72.8066C96.6794 72.5273 96.1172 72.137 95.6445 71.6357C95.179 71.1344 94.821 70.54 94.5703 69.8525C94.3197 69.165 94.1943 68.4131 94.1943 67.5967V67.1455C94.1943 66.2002 94.334 65.3587 94.6133 64.6211C94.8926 63.8763 95.2721 63.2461 95.752 62.7305C96.2318 62.2148 96.776 61.8245 97.3848 61.5596C97.9935 61.2946 98.6237 61.1621 99.2754 61.1621C100.106 61.1621 100.822 61.3053 101.424 61.5918C102.033 61.8783 102.53 62.2793 102.917 62.7949C103.304 63.3034 103.59 63.9049 103.776 64.5996C103.963 65.2871 104.056 66.0391 104.056 66.8555V67.7471H95.376V66.125H102.068V65.9746C102.04 65.459 101.932 64.9577 101.746 64.4707C101.567 63.9837 101.281 63.5827 100.887 63.2676C100.493 62.9525 99.9557 62.7949 99.2754 62.7949C98.8242 62.7949 98.4089 62.8916 98.0293 63.085C97.6497 63.2712 97.3239 63.5505 97.0518 63.9229C96.7796 64.2952 96.5684 64.75 96.418 65.2871C96.2676 65.8242 96.1924 66.4437 96.1924 67.1455V67.5967C96.1924 68.1481 96.2676 68.6673 96.418 69.1543C96.5755 69.6341 96.8011 70.0566 97.0947 70.4219C97.3955 70.7871 97.7572 71.0736 98.1797 71.2812C98.6094 71.4889 99.0964 71.5928 99.6406 71.5928C100.342 71.5928 100.937 71.4495 101.424 71.1631C101.911 70.8766 102.337 70.4935 102.702 70.0137L103.905 70.9697C103.655 71.3493 103.336 71.7109 102.949 72.0547C102.562 72.3984 102.086 72.6777 101.521 72.8926C100.962 73.1074 100.299 73.2148 99.5332 73.2148Z" fill="#EEEDED"/>
<path d="M13.8574 169.686V170.674C13.8574 171.848 13.7106 172.901 13.417 173.832C13.1234 174.763 12.7008 175.554 12.1494 176.206C11.598 176.858 10.9355 177.355 10.1621 177.699C9.39583 178.043 8.53646 178.215 7.58398 178.215C6.66016 178.215 5.81152 178.043 5.03809 177.699C4.27181 177.355 3.60579 176.858 3.04004 176.206C2.48145 175.554 2.04818 174.763 1.74023 173.832C1.43229 172.901 1.27832 171.848 1.27832 170.674V169.686C1.27832 168.511 1.42871 167.462 1.72949 166.538C2.03743 165.607 2.4707 164.816 3.0293 164.164C3.58789 163.505 4.25033 163.004 5.0166 162.66C5.79004 162.316 6.63867 162.145 7.5625 162.145C8.51497 162.145 9.37435 162.316 10.1406 162.66C10.9141 163.004 11.5765 163.505 12.1279 164.164C12.6865 164.816 13.1126 165.607 13.4062 166.538C13.707 167.462 13.8574 168.511 13.8574 169.686ZM11.8057 170.674V169.664C11.8057 168.733 11.709 167.91 11.5156 167.193C11.3294 166.477 11.0537 165.876 10.6885 165.389C10.3232 164.902 9.87565 164.533 9.3457 164.282C8.82292 164.032 8.22852 163.906 7.5625 163.906C6.91797 163.906 6.33431 164.032 5.81152 164.282C5.2959 164.533 4.85189 164.902 4.47949 165.389C4.11426 165.876 3.83138 166.477 3.63086 167.193C3.43034 167.91 3.33008 168.733 3.33008 169.664V170.674C3.33008 171.612 3.43034 172.443 3.63086 173.166C3.83138 173.882 4.11784 174.487 4.49023 174.981C4.86979 175.468 5.31738 175.837 5.83301 176.088C6.35579 176.339 6.93945 176.464 7.58398 176.464C8.25716 176.464 8.85514 176.339 9.37793 176.088C9.90072 175.837 10.3411 175.468 10.6992 174.981C11.0645 174.487 11.3402 173.882 11.5264 173.166C11.7126 172.443 11.8057 171.612 11.8057 170.674ZM23.7725 175.314V166.377H25.7705V178H23.8691L23.7725 175.314ZM24.1484 172.865L24.9756 172.844C24.9756 173.617 24.8932 174.333 24.7285 174.992C24.571 175.644 24.3132 176.21 23.9551 176.689C23.597 177.169 23.1279 177.545 22.5479 177.817C21.9678 178.082 21.2624 178.215 20.4316 178.215C19.8659 178.215 19.3467 178.132 18.874 177.968C18.4085 177.803 18.0075 177.549 17.6709 177.205C17.3343 176.861 17.0729 176.414 16.8867 175.862C16.7077 175.311 16.6182 174.648 16.6182 173.875V166.377H18.6055V173.896C18.6055 174.419 18.6628 174.853 18.7773 175.196C18.8991 175.533 19.0602 175.801 19.2607 176.002C19.4684 176.195 19.6976 176.331 19.9482 176.41C20.2061 176.489 20.471 176.528 20.7432 176.528C21.5882 176.528 22.2578 176.367 22.752 176.045C23.2461 175.715 23.6006 175.275 23.8154 174.724C24.0374 174.165 24.1484 173.546 24.1484 172.865ZM33.666 166.377V167.902H27.3818V166.377H33.666ZM29.5088 163.552H31.4961V175.121C31.4961 175.515 31.557 175.812 31.6787 176.013C31.8005 176.213 31.958 176.346 32.1514 176.41C32.3447 176.475 32.5524 176.507 32.7744 176.507C32.9391 176.507 33.111 176.493 33.29 176.464C33.4762 176.428 33.6159 176.399 33.709 176.378L33.7197 178C33.5622 178.05 33.3545 178.097 33.0967 178.14C32.846 178.19 32.5417 178.215 32.1836 178.215C31.6966 178.215 31.249 178.118 30.8408 177.925C30.4326 177.731 30.1068 177.409 29.8633 176.958C29.627 176.5 29.5088 175.884 29.5088 175.11V163.552ZM40.8203 178.215C40.0111 178.215 39.277 178.079 38.6182 177.807C37.9665 177.527 37.4043 177.137 36.9316 176.636C36.4661 176.134 36.1081 175.54 35.8574 174.853C35.6068 174.165 35.4814 173.413 35.4814 172.597V172.146C35.4814 171.2 35.6211 170.359 35.9004 169.621C36.1797 168.876 36.5592 168.246 37.0391 167.73C37.5189 167.215 38.0632 166.825 38.6719 166.56C39.2806 166.295 39.9108 166.162 40.5625 166.162C41.3932 166.162 42.1094 166.305 42.7109 166.592C43.3197 166.878 43.8174 167.279 44.2041 167.795C44.5908 168.303 44.8773 168.905 45.0635 169.6C45.2497 170.287 45.3428 171.039 45.3428 171.855V172.747H36.6631V171.125H43.3555V170.975C43.3268 170.459 43.2194 169.958 43.0332 169.471C42.8542 168.984 42.5677 168.583 42.1738 168.268C41.7799 167.952 41.2428 167.795 40.5625 167.795C40.1113 167.795 39.696 167.892 39.3164 168.085C38.9368 168.271 38.611 168.55 38.3389 168.923C38.0667 169.295 37.8555 169.75 37.7051 170.287C37.5547 170.824 37.4795 171.444 37.4795 172.146V172.597C37.4795 173.148 37.5547 173.667 37.7051 174.154C37.8626 174.634 38.0882 175.057 38.3818 175.422C38.6826 175.787 39.0443 176.074 39.4668 176.281C39.8965 176.489 40.3835 176.593 40.9277 176.593C41.6296 176.593 42.224 176.45 42.7109 176.163C43.1979 175.877 43.624 175.493 43.9893 175.014L45.1924 175.97C44.9417 176.349 44.623 176.711 44.2363 177.055C43.8496 177.398 43.3734 177.678 42.8076 177.893C42.249 178.107 41.5866 178.215 40.8203 178.215ZM49.6504 168.203V178H47.6631V166.377H49.5967L49.6504 168.203ZM53.2812 166.312L53.2705 168.16C53.1058 168.124 52.9482 168.103 52.7979 168.096C52.6546 168.081 52.4899 168.074 52.3037 168.074C51.8454 168.074 51.4408 168.146 51.0898 168.289C50.7389 168.432 50.4417 168.633 50.1982 168.891C49.9548 169.148 49.7614 169.456 49.6182 169.814C49.4821 170.165 49.3926 170.552 49.3496 170.975L48.791 171.297C48.791 170.595 48.859 169.936 48.9951 169.32C49.1383 168.704 49.3568 168.16 49.6504 167.688C49.944 167.208 50.3164 166.835 50.7676 166.57C51.2259 166.298 51.7702 166.162 52.4004 166.162C52.5436 166.162 52.7083 166.18 52.8945 166.216C53.0807 166.244 53.2096 166.277 53.2812 166.312ZM65.2266 176.582C65.6992 176.582 66.1361 176.485 66.5371 176.292C66.9382 176.099 67.2676 175.834 67.5254 175.497C67.7832 175.153 67.93 174.763 67.9658 174.326H69.8564C69.8206 175.014 69.5879 175.655 69.1582 176.249C68.7357 176.836 68.1807 177.312 67.4932 177.678C66.8057 178.036 66.0501 178.215 65.2266 178.215C64.3529 178.215 63.5902 178.061 62.9385 177.753C62.2939 177.445 61.7568 177.022 61.3271 176.485C60.9046 175.948 60.5859 175.332 60.3711 174.638C60.1634 173.936 60.0596 173.195 60.0596 172.414V171.963C60.0596 171.182 60.1634 170.445 60.3711 169.75C60.5859 169.048 60.9046 168.429 61.3271 167.892C61.7568 167.354 62.2939 166.932 62.9385 166.624C63.5902 166.316 64.3529 166.162 65.2266 166.162C66.1361 166.162 66.931 166.348 67.6113 166.721C68.2917 167.086 68.8252 167.587 69.2119 168.225C69.6058 168.855 69.8206 169.571 69.8564 170.373H67.9658C67.93 169.893 67.7939 169.46 67.5576 169.073C67.3285 168.687 67.0133 168.379 66.6123 168.149C66.2184 167.913 65.7565 167.795 65.2266 167.795C64.6178 167.795 64.1058 167.917 63.6904 168.16C63.2822 168.396 62.9564 168.719 62.7129 169.127C62.4766 169.528 62.3047 169.976 62.1973 170.47C62.097 170.957 62.0469 171.454 62.0469 171.963V172.414C62.0469 172.923 62.097 173.424 62.1973 173.918C62.2975 174.412 62.4658 174.86 62.7021 175.261C62.9456 175.662 63.2715 175.984 63.6797 176.228C64.0951 176.464 64.6107 176.582 65.2266 176.582ZM71.5645 172.317V172.07C71.5645 171.232 71.6862 170.455 71.9297 169.739C72.1732 169.016 72.5241 168.389 72.9824 167.859C73.4408 167.322 73.9958 166.907 74.6475 166.613C75.2992 166.312 76.0296 166.162 76.8389 166.162C77.6553 166.162 78.3893 166.312 79.041 166.613C79.6999 166.907 80.2585 167.322 80.7168 167.859C81.1823 168.389 81.5368 169.016 81.7803 169.739C82.0238 170.455 82.1455 171.232 82.1455 172.07V172.317C82.1455 173.155 82.0238 173.932 81.7803 174.648C81.5368 175.365 81.1823 175.991 80.7168 176.528C80.2585 177.058 79.7035 177.474 79.0518 177.774C78.4072 178.068 77.6768 178.215 76.8604 178.215C76.0439 178.215 75.3099 178.068 74.6582 177.774C74.0065 177.474 73.4479 177.058 72.9824 176.528C72.5241 175.991 72.1732 175.365 71.9297 174.648C71.6862 173.932 71.5645 173.155 71.5645 172.317ZM73.5518 172.07V172.317C73.5518 172.897 73.6198 173.445 73.7559 173.961C73.8919 174.469 74.096 174.921 74.3682 175.314C74.6475 175.708 74.9948 176.02 75.4102 176.249C75.8255 176.471 76.3089 176.582 76.8604 176.582C77.4046 176.582 77.8809 176.471 78.2891 176.249C78.7044 176.02 79.0482 175.708 79.3203 175.314C79.5924 174.921 79.7965 174.469 79.9326 173.961C80.0758 173.445 80.1475 172.897 80.1475 172.317V172.07C80.1475 171.497 80.0758 170.957 79.9326 170.448C79.7965 169.933 79.5889 169.478 79.3096 169.084C79.0374 168.683 78.6937 168.368 78.2783 168.139C77.8701 167.91 77.3903 167.795 76.8389 167.795C76.2946 167.795 75.8148 167.91 75.3994 168.139C74.9912 168.368 74.6475 168.683 74.3682 169.084C74.096 169.478 73.8919 169.933 73.7559 170.448C73.6198 170.957 73.5518 171.497 73.5518 172.07ZM86.625 168.203V178H84.6377V166.377H86.5713L86.625 168.203ZM90.2559 166.312L90.2451 168.16C90.0804 168.124 89.9229 168.103 89.7725 168.096C89.6292 168.081 89.4645 168.074 89.2783 168.074C88.82 168.074 88.4154 168.146 88.0645 168.289C87.7135 168.432 87.4163 168.633 87.1729 168.891C86.9294 169.148 86.736 169.456 86.5928 169.814C86.4567 170.165 86.3672 170.552 86.3242 170.975L85.7656 171.297C85.7656 170.595 85.8337 169.936 85.9697 169.32C86.113 168.704 86.3314 168.16 86.625 167.688C86.9186 167.208 87.291 166.835 87.7422 166.57C88.2005 166.298 88.7448 166.162 89.375 166.162C89.5182 166.162 89.6829 166.18 89.8691 166.216C90.0553 166.244 90.1842 166.277 90.2559 166.312ZM96.7012 178.215C95.8919 178.215 95.1579 178.079 94.499 177.807C93.8473 177.527 93.2852 177.137 92.8125 176.636C92.347 176.134 91.9889 175.54 91.7383 174.853C91.4876 174.165 91.3623 173.413 91.3623 172.597V172.146C91.3623 171.2 91.502 170.359 91.7812 169.621C92.0605 168.876 92.4401 168.246 92.9199 167.73C93.3997 167.215 93.944 166.825 94.5527 166.56C95.1615 166.295 95.7917 166.162 96.4434 166.162C97.2741 166.162 97.9902 166.305 98.5918 166.592C99.2005 166.878 99.6982 167.279 100.085 167.795C100.472 168.303 100.758 168.905 100.944 169.6C101.131 170.287 101.224 171.039 101.224 171.855V172.747H92.5439V171.125H99.2363V170.975C99.2077 170.459 99.1003 169.958 98.9141 169.471C98.735 168.984 98.4486 168.583 98.0547 168.268C97.6608 167.952 97.1237 167.795 96.4434 167.795C95.9922 167.795 95.5768 167.892 95.1973 168.085C94.8177 168.271 94.4919 168.55 94.2197 168.923C93.9476 169.295 93.7363 169.75 93.5859 170.287C93.4355 170.824 93.3604 171.444 93.3604 172.146V172.597C93.3604 173.148 93.4355 173.667 93.5859 174.154C93.7435 174.634 93.9691 175.057 94.2627 175.422C94.5635 175.787 94.9251 176.074 95.3477 176.281C95.7773 176.489 96.2643 176.593 96.8086 176.593C97.5104 176.593 98.1048 176.45 98.5918 176.163C99.0788 175.877 99.5049 175.493 99.8701 175.014L101.073 175.97C100.823 176.349 100.504 176.711 100.117 177.055C99.7305 177.398 99.2542 177.678 98.6885 177.893C98.1299 178.107 97.4674 178.215 96.7012 178.215Z" fill="#EEEDED"/>
<path d="M8.58398 203.866H4.40527V202.18H8.58398C9.39323 202.18 10.0485 202.051 10.5498 201.793C11.0511 201.535 11.4163 201.177 11.6455 200.719C11.8818 200.26 12 199.738 12 199.15C12 198.613 11.8818 198.108 11.6455 197.636C11.4163 197.163 11.0511 196.784 10.5498 196.497C10.0485 196.203 9.39323 196.057 8.58398 196.057H4.88867V210H2.81543V194.359H8.58398C9.76562 194.359 10.7646 194.563 11.5811 194.972C12.3975 195.38 13.0169 195.946 13.4395 196.669C13.862 197.385 14.0732 198.205 14.0732 199.129C14.0732 200.132 13.862 200.987 13.4395 201.696C13.0169 202.405 12.3975 202.946 11.5811 203.318C10.7646 203.684 9.76562 203.866 8.58398 203.866ZM23.1182 208.013V202.029C23.1182 201.571 23.0251 201.174 22.8389 200.837C22.6598 200.493 22.3877 200.228 22.0225 200.042C21.6572 199.856 21.2061 199.763 20.6689 199.763C20.1676 199.763 19.7272 199.849 19.3477 200.021C18.9753 200.192 18.6816 200.418 18.4668 200.697C18.2591 200.977 18.1553 201.277 18.1553 201.6H16.168C16.168 201.184 16.2754 200.772 16.4902 200.364C16.7051 199.956 17.013 199.587 17.4141 199.258C17.8223 198.921 18.3092 198.656 18.875 198.463C19.4479 198.262 20.0853 198.162 20.7871 198.162C21.6322 198.162 22.377 198.305 23.0215 198.592C23.6732 198.878 24.1816 199.312 24.5469 199.892C24.9193 200.465 25.1055 201.184 25.1055 202.051V207.465C25.1055 207.852 25.1377 208.263 25.2021 208.7C25.2738 209.137 25.3776 209.513 25.5137 209.828V210H23.4404C23.3402 209.771 23.2614 209.466 23.2041 209.087C23.1468 208.7 23.1182 208.342 23.1182 208.013ZM23.4619 202.953L23.4834 204.35H21.4746C20.9089 204.35 20.404 204.396 19.96 204.489C19.516 204.575 19.1436 204.708 18.8428 204.887C18.542 205.066 18.3128 205.291 18.1553 205.563C17.9977 205.828 17.9189 206.14 17.9189 206.498C17.9189 206.863 18.0013 207.196 18.166 207.497C18.3307 207.798 18.5778 208.038 18.9072 208.217C19.2438 208.389 19.6556 208.475 20.1426 208.475C20.7513 208.475 21.2884 208.346 21.7539 208.088C22.2194 207.83 22.5882 207.515 22.8604 207.143C23.1396 206.77 23.29 206.409 23.3115 206.058L24.1602 207.014C24.11 207.314 23.974 207.647 23.752 208.013C23.5299 208.378 23.2327 208.729 22.8604 209.065C22.4951 209.395 22.0583 209.671 21.5498 209.893C21.0485 210.107 20.4827 210.215 19.8525 210.215C19.0648 210.215 18.3737 210.061 17.7793 209.753C17.1921 209.445 16.7337 209.033 16.4043 208.518C16.082 207.995 15.9209 207.411 15.9209 206.767C15.9209 206.144 16.0426 205.596 16.2861 205.123C16.5296 204.643 16.8805 204.246 17.3389 203.931C17.7972 203.608 18.3486 203.365 18.9932 203.2C19.6377 203.035 20.3574 202.953 21.1523 202.953H23.4619ZM30.2188 200.203V210H28.2314V198.377H30.165L30.2188 200.203ZM33.8496 198.312L33.8389 200.16C33.6742 200.124 33.5166 200.103 33.3662 200.096C33.223 200.081 33.0583 200.074 32.8721 200.074C32.4137 200.074 32.0091 200.146 31.6582 200.289C31.3073 200.432 31.0101 200.633 30.7666 200.891C30.5231 201.148 30.3298 201.456 30.1865 201.814C30.0505 202.165 29.9609 202.552 29.918 202.975L29.3594 203.297C29.3594 202.595 29.4274 201.936 29.5635 201.32C29.7067 200.704 29.9251 200.16 30.2188 199.688C30.5124 199.208 30.8848 198.835 31.3359 198.57C31.7943 198.298 32.3385 198.162 32.9688 198.162C33.112 198.162 33.2767 198.18 33.4629 198.216C33.6491 198.244 33.778 198.277 33.8496 198.312ZM41.0898 198.377V199.902H34.8057V198.377H41.0898ZM36.9326 195.552H38.9199V207.121C38.9199 207.515 38.9808 207.812 39.1025 208.013C39.2243 208.213 39.3818 208.346 39.5752 208.41C39.7686 208.475 39.9762 208.507 40.1982 208.507C40.363 208.507 40.5348 208.493 40.7139 208.464C40.9001 208.428 41.0397 208.399 41.1328 208.378L41.1436 210C40.986 210.05 40.7783 210.097 40.5205 210.14C40.2699 210.19 39.9655 210.215 39.6074 210.215C39.1204 210.215 38.6729 210.118 38.2646 209.925C37.8564 209.731 37.5306 209.409 37.2871 208.958C37.0508 208.5 36.9326 207.884 36.9326 207.11V195.552ZM45.5801 198.377V210H43.582V198.377H45.5801ZM43.4316 195.294C43.4316 194.972 43.5283 194.7 43.7217 194.478C43.9222 194.256 44.2158 194.145 44.6025 194.145C44.9821 194.145 45.2721 194.256 45.4727 194.478C45.6803 194.7 45.7842 194.972 45.7842 195.294C45.7842 195.602 45.6803 195.867 45.4727 196.089C45.2721 196.304 44.9821 196.411 44.6025 196.411C44.2158 196.411 43.9222 196.304 43.7217 196.089C43.5283 195.867 43.4316 195.602 43.4316 195.294ZM55.624 208.013V202.029C55.624 201.571 55.5309 201.174 55.3447 200.837C55.1657 200.493 54.8936 200.228 54.5283 200.042C54.1631 199.856 53.7119 199.763 53.1748 199.763C52.6735 199.763 52.2331 199.849 51.8535 200.021C51.4811 200.192 51.1875 200.418 50.9727 200.697C50.765 200.977 50.6611 201.277 50.6611 201.6H48.6738C48.6738 201.184 48.7812 200.772 48.9961 200.364C49.2109 199.956 49.5189 199.587 49.9199 199.258C50.3281 198.921 50.8151 198.656 51.3809 198.463C51.9538 198.262 52.5911 198.162 53.293 198.162C54.138 198.162 54.8828 198.305 55.5273 198.592C56.179 198.878 56.6875 199.312 57.0527 199.892C57.4251 200.465 57.6113 201.184 57.6113 202.051V207.465C57.6113 207.852 57.6436 208.263 57.708 208.7C57.7796 209.137 57.8835 209.513 58.0195 209.828V210H55.9463C55.846 209.771 55.7673 209.466 55.71 209.087C55.6527 208.7 55.624 208.342 55.624 208.013ZM55.9678 202.953L55.9893 204.35H53.9805C53.4147 204.35 52.9098 204.396 52.4658 204.489C52.0218 204.575 51.6494 204.708 51.3486 204.887C51.0479 205.066 50.8187 205.291 50.6611 205.563C50.5036 205.828 50.4248 206.14 50.4248 206.498C50.4248 206.863 50.5072 207.196 50.6719 207.497C50.8366 207.798 51.0837 208.038 51.4131 208.217C51.7497 208.389 52.1615 208.475 52.6484 208.475C53.2572 208.475 53.7943 208.346 54.2598 208.088C54.7253 207.83 55.0941 207.515 55.3662 207.143C55.6455 206.77 55.7959 206.409 55.8174 206.058L56.666 207.014C56.6159 207.314 56.4798 207.647 56.2578 208.013C56.0358 208.378 55.7386 208.729 55.3662 209.065C55.001 209.395 54.5641 209.671 54.0557 209.893C53.5544 210.107 52.9886 210.215 52.3584 210.215C51.5706 210.215 50.8796 210.061 50.2852 209.753C49.6979 209.445 49.2396 209.033 48.9102 208.518C48.5879 207.995 48.4268 207.411 48.4268 206.767C48.4268 206.144 48.5485 205.596 48.792 205.123C49.0355 204.643 49.3864 204.246 49.8447 203.931C50.3031 203.608 50.8545 203.365 51.499 203.2C52.1436 203.035 52.8633 202.953 53.6582 202.953H55.9678ZM62.8965 193.5V210H60.8984V193.5H62.8965ZM73.5205 200.687V210H71.5225V198.377H73.4131L73.5205 200.687ZM73.1123 203.748L72.1885 203.716C72.1956 202.921 72.2995 202.187 72.5 201.514C72.7005 200.833 72.9977 200.243 73.3916 199.741C73.7855 199.24 74.276 198.853 74.8633 198.581C75.4505 198.302 76.1309 198.162 76.9043 198.162C77.4486 198.162 77.9499 198.241 78.4082 198.398C78.8665 198.549 79.264 198.789 79.6006 199.118C79.9372 199.448 80.1986 199.87 80.3848 200.386C80.571 200.901 80.6641 201.524 80.6641 202.255V210H78.6768V202.352C78.6768 201.743 78.5729 201.256 78.3652 200.891C78.1647 200.525 77.8783 200.26 77.5059 200.096C77.1335 199.924 76.6966 199.838 76.1953 199.838C75.6081 199.838 75.1175 199.942 74.7236 200.149C74.3298 200.357 74.0146 200.644 73.7783 201.009C73.542 201.374 73.3701 201.793 73.2627 202.266C73.1624 202.731 73.1123 203.225 73.1123 203.748ZM80.6426 202.652L79.3105 203.061C79.3177 202.423 79.4215 201.811 79.6221 201.224C79.8298 200.636 80.127 200.114 80.5137 199.655C80.9076 199.197 81.391 198.835 81.9639 198.57C82.5368 198.298 83.1921 198.162 83.9297 198.162C84.5527 198.162 85.1042 198.244 85.584 198.409C86.071 198.574 86.4792 198.828 86.8086 199.172C87.1452 199.508 87.3994 199.942 87.5713 200.472C87.7432 201.002 87.8291 201.632 87.8291 202.362V210H85.8311V202.341C85.8311 201.689 85.7272 201.184 85.5195 200.826C85.319 200.461 85.0326 200.207 84.6602 200.063C84.2949 199.913 83.8581 199.838 83.3496 199.838C82.9128 199.838 82.526 199.913 82.1895 200.063C81.8529 200.214 81.57 200.422 81.3408 200.687C81.1117 200.944 80.9362 201.242 80.8145 201.578C80.6999 201.915 80.6426 202.273 80.6426 202.652ZM95.6602 210.215C94.8509 210.215 94.1169 210.079 93.458 209.807C92.8063 209.527 92.2441 209.137 91.7715 208.636C91.306 208.134 90.9479 207.54 90.6973 206.853C90.4466 206.165 90.3213 205.413 90.3213 204.597V204.146C90.3213 203.2 90.4609 202.359 90.7402 201.621C91.0195 200.876 91.3991 200.246 91.8789 199.73C92.3587 199.215 92.903 198.825 93.5117 198.56C94.1204 198.295 94.7507 198.162 95.4023 198.162C96.2331 198.162 96.9492 198.305 97.5508 198.592C98.1595 198.878 98.6572 199.279 99.0439 199.795C99.4307 200.303 99.7171 200.905 99.9033 201.6C100.09 202.287 100.183 203.039 100.183 203.855V204.747H91.5029V203.125H98.1953V202.975C98.1667 202.459 98.0592 201.958 97.873 201.471C97.694 200.984 97.4076 200.583 97.0137 200.268C96.6198 199.952 96.0827 199.795 95.4023 199.795C94.9512 199.795 94.5358 199.892 94.1562 200.085C93.7767 200.271 93.4508 200.55 93.1787 200.923C92.9066 201.295 92.6953 201.75 92.5449 202.287C92.3945 202.824 92.3193 203.444 92.3193 204.146V204.597C92.3193 205.148 92.3945 205.667 92.5449 206.154C92.7025 206.634 92.9281 207.057 93.2217 207.422C93.5225 207.787 93.8841 208.074 94.3066 208.281C94.7363 208.489 95.2233 208.593 95.7676 208.593C96.4694 208.593 97.0638 208.45 97.5508 208.163C98.0378 207.877 98.4639 207.493 98.8291 207.014L100.032 207.97C99.7816 208.349 99.4629 208.711 99.0762 209.055C98.6895 209.398 98.2132 209.678 97.6475 209.893C97.0889 210.107 96.4264 210.215 95.6602 210.215ZM104.662 193.5V210H102.664V193.5H104.662ZM112.719 198.377V199.902H106.435V198.377H112.719ZM108.562 195.552H110.549V207.121C110.549 207.515 110.61 207.812 110.731 208.013C110.853 208.213 111.011 208.346 111.204 208.41C111.397 208.475 111.605 208.507 111.827 208.507C111.992 208.507 112.164 208.493 112.343 208.464C112.529 208.428 112.669 208.399 112.762 208.378L112.772 210C112.615 210.05 112.407 210.097 112.149 210.14C111.899 210.19 111.594 210.215 111.236 210.215C110.749 210.215 110.302 210.118 109.894 209.925C109.485 209.731 109.16 209.409 108.916 208.958C108.68 208.5 108.562 207.884 108.562 207.11V195.552Z" fill="#EEEDED"/>
<path d="M480.471 192.359H482.479L487.604 205.11L492.717 192.359H494.736L488.377 208H486.809L480.471 192.359ZM479.815 192.359H481.588L481.878 201.898V208H479.815V192.359ZM493.608 192.359H495.381V208H493.318V201.898L493.608 192.359ZM505.575 206.013V200.029C505.575 199.571 505.482 199.174 505.296 198.837C505.117 198.493 504.845 198.228 504.479 198.042C504.114 197.856 503.663 197.763 503.126 197.763C502.625 197.763 502.184 197.849 501.805 198.021C501.432 198.192 501.139 198.418 500.924 198.697C500.716 198.977 500.612 199.277 500.612 199.6H498.625C498.625 199.184 498.732 198.772 498.947 198.364C499.162 197.956 499.47 197.587 499.871 197.258C500.279 196.921 500.766 196.656 501.332 196.463C501.905 196.262 502.542 196.162 503.244 196.162C504.089 196.162 504.834 196.305 505.479 196.592C506.13 196.878 506.639 197.312 507.004 197.892C507.376 198.465 507.562 199.184 507.562 200.051V205.465C507.562 205.852 507.595 206.263 507.659 206.7C507.731 207.137 507.835 207.513 507.971 207.828V208H505.897C505.797 207.771 505.718 207.466 505.661 207.087C505.604 206.7 505.575 206.342 505.575 206.013ZM505.919 200.953L505.94 202.35H503.932C503.366 202.35 502.861 202.396 502.417 202.489C501.973 202.575 501.601 202.708 501.3 202.887C500.999 203.066 500.77 203.291 500.612 203.563C500.455 203.828 500.376 204.14 500.376 204.498C500.376 204.863 500.458 205.196 500.623 205.497C500.788 205.798 501.035 206.038 501.364 206.217C501.701 206.389 502.113 206.475 502.6 206.475C503.208 206.475 503.745 206.346 504.211 206.088C504.676 205.83 505.045 205.515 505.317 205.143C505.597 204.77 505.747 204.409 505.769 204.058L506.617 205.014C506.567 205.314 506.431 205.647 506.209 206.013C505.987 206.378 505.69 206.729 505.317 207.065C504.952 207.395 504.515 207.671 504.007 207.893C503.506 208.107 502.94 208.215 502.31 208.215C501.522 208.215 500.831 208.061 500.236 207.753C499.649 207.445 499.191 207.033 498.861 206.518C498.539 205.995 498.378 205.411 498.378 204.767C498.378 204.144 498.5 203.596 498.743 203.123C498.987 202.643 499.338 202.246 499.796 201.931C500.254 201.608 500.806 201.365 501.45 201.2C502.095 201.035 502.814 200.953 503.609 200.953H505.919ZM512.676 198.858V208H510.688V196.377H512.568L512.676 198.858ZM512.203 201.748L511.376 201.716C511.383 200.921 511.501 200.187 511.73 199.514C511.96 198.833 512.282 198.243 512.697 197.741C513.113 197.24 513.607 196.853 514.18 196.581C514.76 196.302 515.401 196.162 516.103 196.162C516.675 196.162 517.191 196.241 517.649 196.398C518.108 196.549 518.498 196.792 518.82 197.129C519.15 197.465 519.4 197.902 519.572 198.439C519.744 198.969 519.83 199.618 519.83 200.384V208H517.832V200.362C517.832 199.754 517.743 199.267 517.563 198.901C517.384 198.529 517.123 198.26 516.779 198.096C516.436 197.924 516.013 197.838 515.512 197.838C515.018 197.838 514.566 197.942 514.158 198.149C513.757 198.357 513.41 198.644 513.116 199.009C512.83 199.374 512.604 199.793 512.439 200.266C512.282 200.731 512.203 201.225 512.203 201.748ZM527.715 196.377V197.902H521.431V196.377H527.715ZM523.558 193.552H525.545V205.121C525.545 205.515 525.606 205.812 525.728 206.013C525.849 206.213 526.007 206.346 526.2 206.41C526.394 206.475 526.601 206.507 526.823 206.507C526.988 206.507 527.16 206.493 527.339 206.464C527.525 206.428 527.665 206.399 527.758 206.378L527.769 208C527.611 208.05 527.403 208.097 527.146 208.14C526.895 208.19 526.59 208.215 526.232 208.215C525.745 208.215 525.298 208.118 524.89 207.925C524.481 207.731 524.156 207.409 523.912 206.958C523.676 206.5 523.558 205.884 523.558 205.11V193.552ZM532.205 191.5V208H530.207V191.5H532.205ZM540.219 208.215C539.41 208.215 538.675 208.079 538.017 207.807C537.365 207.527 536.803 207.137 536.33 206.636C535.865 206.134 535.507 205.54 535.256 204.853C535.005 204.165 534.88 203.413 534.88 202.597V202.146C534.88 201.2 535.02 200.359 535.299 199.621C535.578 198.876 535.958 198.246 536.438 197.73C536.917 197.215 537.462 196.825 538.07 196.56C538.679 196.295 539.309 196.162 539.961 196.162C540.792 196.162 541.508 196.305 542.109 196.592C542.718 196.878 543.216 197.279 543.603 197.795C543.989 198.303 544.276 198.905 544.462 199.6C544.648 200.287 544.741 201.039 544.741 201.855V202.747H536.062V201.125H542.754V200.975C542.725 200.459 542.618 199.958 542.432 199.471C542.253 198.984 541.966 198.583 541.572 198.268C541.178 197.952 540.641 197.795 539.961 197.795C539.51 197.795 539.094 197.892 538.715 198.085C538.335 198.271 538.009 198.55 537.737 198.923C537.465 199.295 537.254 199.75 537.104 200.287C536.953 200.824 536.878 201.444 536.878 202.146V202.597C536.878 203.148 536.953 203.667 537.104 204.154C537.261 204.634 537.487 205.057 537.78 205.422C538.081 205.787 538.443 206.074 538.865 206.281C539.295 206.489 539.782 206.593 540.326 206.593C541.028 206.593 541.622 206.45 542.109 206.163C542.596 205.877 543.022 205.493 543.388 205.014L544.591 205.97C544.34 206.349 544.021 206.711 543.635 207.055C543.248 207.398 542.772 207.678 542.206 207.893C541.647 208.107 540.985 208.215 540.219 208.215Z" fill="#EEEDED"/>
<path d="M489.258 82.0264H491.32C491.213 83.0146 490.93 83.8991 490.472 84.6797C490.013 85.4603 489.365 86.0798 488.527 86.5381C487.689 86.9893 486.644 87.2148 485.391 87.2148C484.474 87.2148 483.64 87.043 482.888 86.6992C482.143 86.3555 481.502 85.8685 480.965 85.2383C480.428 84.6009 480.012 83.8382 479.719 82.9502C479.432 82.055 479.289 81.0596 479.289 79.9639V78.4062C479.289 77.3105 479.432 76.3187 479.719 75.4307C480.012 74.5355 480.431 73.7692 480.976 73.1318C481.527 72.4945 482.189 72.0039 482.963 71.6602C483.736 71.3164 484.606 71.1445 485.573 71.1445C486.755 71.1445 487.754 71.3665 488.57 71.8105C489.387 72.2546 490.021 72.8704 490.472 73.6582C490.93 74.4388 491.213 75.3447 491.32 76.376H489.258C489.158 75.6455 488.971 75.0189 488.699 74.4961C488.427 73.9661 488.04 73.5579 487.539 73.2715C487.038 72.985 486.382 72.8418 485.573 72.8418C484.879 72.8418 484.266 72.9743 483.736 73.2393C483.214 73.5042 482.773 73.8802 482.415 74.3672C482.064 74.8542 481.799 75.4378 481.62 76.1182C481.441 76.7985 481.352 77.554 481.352 78.3848V79.9639C481.352 80.7301 481.43 81.4499 481.588 82.123C481.753 82.7962 482 83.387 482.329 83.8955C482.659 84.404 483.077 84.805 483.586 85.0986C484.094 85.3851 484.696 85.5283 485.391 85.5283C486.271 85.5283 486.973 85.3887 487.496 85.1094C488.019 84.8301 488.413 84.429 488.678 83.9062C488.95 83.3835 489.143 82.7568 489.258 82.0264ZM495.832 77.2031V87H493.845V75.377H495.778L495.832 77.2031ZM499.463 75.3125L499.452 77.1602C499.287 77.1243 499.13 77.1029 498.979 77.0957C498.836 77.0814 498.672 77.0742 498.485 77.0742C498.027 77.0742 497.622 77.1458 497.271 77.2891C496.921 77.4323 496.623 77.6328 496.38 77.8906C496.136 78.1484 495.943 78.4564 495.8 78.8145C495.664 79.1654 495.574 79.5521 495.531 79.9746L494.973 80.2969C494.973 79.5951 495.041 78.9362 495.177 78.3203C495.32 77.7044 495.538 77.1602 495.832 76.6875C496.126 76.2077 496.498 75.8353 496.949 75.5703C497.408 75.2982 497.952 75.1621 498.582 75.1621C498.725 75.1621 498.89 75.18 499.076 75.2158C499.262 75.2445 499.391 75.2767 499.463 75.3125ZM508.411 84.3145V75.377H510.409V87H508.508L508.411 84.3145ZM508.787 81.8652L509.614 81.8438C509.614 82.6172 509.532 83.3333 509.367 83.9922C509.21 84.6439 508.952 85.2096 508.594 85.6895C508.236 86.1693 507.767 86.5452 507.187 86.8174C506.606 87.0824 505.901 87.2148 505.07 87.2148C504.505 87.2148 503.985 87.1325 503.513 86.9678C503.047 86.8031 502.646 86.5488 502.31 86.2051C501.973 85.8613 501.712 85.4137 501.525 84.8623C501.346 84.3109 501.257 83.6484 501.257 82.875V75.377H503.244V82.8965C503.244 83.4193 503.301 83.8525 503.416 84.1963C503.538 84.5329 503.699 84.8014 503.899 85.002C504.107 85.1953 504.336 85.3314 504.587 85.4102C504.845 85.4889 505.11 85.5283 505.382 85.5283C506.227 85.5283 506.896 85.3672 507.391 85.0449C507.885 84.7155 508.239 84.2751 508.454 83.7236C508.676 83.165 508.787 82.5456 508.787 81.8652ZM520.206 83.917C520.206 83.6305 520.142 83.3656 520.013 83.1221C519.891 82.8714 519.637 82.6458 519.25 82.4453C518.87 82.2376 518.298 82.0586 517.531 81.9082C516.887 81.7721 516.303 81.611 515.78 81.4248C515.265 81.2386 514.824 81.013 514.459 80.748C514.101 80.4831 513.825 80.1715 513.632 79.8135C513.438 79.4554 513.342 79.0365 513.342 78.5566C513.342 78.0983 513.442 77.665 513.643 77.2568C513.85 76.8486 514.14 76.487 514.513 76.1719C514.892 75.8568 515.347 75.6097 515.877 75.4307C516.407 75.2516 516.998 75.1621 517.649 75.1621C518.58 75.1621 519.375 75.3268 520.034 75.6562C520.693 75.9857 521.198 76.4261 521.549 76.9775C521.9 77.5218 522.075 78.127 522.075 78.793H520.088C520.088 78.4707 519.991 78.1592 519.798 77.8584C519.612 77.5505 519.336 77.2962 518.971 77.0957C518.613 76.8952 518.172 76.7949 517.649 76.7949C517.098 76.7949 516.65 76.8809 516.307 77.0527C515.97 77.2174 515.723 77.4287 515.565 77.6865C515.415 77.9443 515.34 78.2165 515.34 78.5029C515.34 78.7178 515.376 78.9111 515.447 79.083C515.526 79.2477 515.662 79.4017 515.855 79.5449C516.049 79.681 516.321 79.8099 516.672 79.9316C517.023 80.0534 517.47 80.1751 518.015 80.2969C518.967 80.5117 519.751 80.7695 520.367 81.0703C520.983 81.3711 521.441 81.7399 521.742 82.1768C522.043 82.6136 522.193 83.1436 522.193 83.7666C522.193 84.2751 522.086 84.7406 521.871 85.1631C521.663 85.5856 521.359 85.9508 520.958 86.2588C520.564 86.5596 520.091 86.7959 519.54 86.9678C518.996 87.1325 518.383 87.2148 517.703 87.2148C516.679 87.2148 515.812 87.0322 515.104 86.667C514.395 86.3018 513.857 85.8291 513.492 85.249C513.127 84.6689 512.944 84.0566 512.944 83.4121H514.942C514.971 83.9564 515.129 84.3896 515.415 84.7119C515.701 85.027 516.052 85.2526 516.468 85.3887C516.883 85.5176 517.295 85.582 517.703 85.582C518.247 85.582 518.702 85.5104 519.067 85.3672C519.44 85.224 519.723 85.027 519.916 84.7764C520.109 84.5257 520.206 84.2393 520.206 83.917ZM529.67 75.377V76.9023H523.386V75.377H529.67ZM525.513 72.5518H527.5V84.1211C527.5 84.515 527.561 84.8122 527.683 85.0127C527.804 85.2132 527.962 85.3457 528.155 85.4102C528.349 85.4746 528.556 85.5068 528.778 85.5068C528.943 85.5068 529.115 85.4925 529.294 85.4639C529.48 85.4281 529.62 85.3994 529.713 85.3779L529.724 87C529.566 87.0501 529.358 87.0967 529.101 87.1396C528.85 87.1898 528.546 87.2148 528.188 87.2148C527.701 87.2148 527.253 87.1182 526.845 86.9248C526.437 86.7314 526.111 86.4092 525.867 85.958C525.631 85.4997 525.513 84.8838 525.513 84.1104V72.5518Z" fill="#EEEDED"/>
<line x1="294.5" y1="174.005" x2="294.5" y2="69.0001" stroke="#EAE0DA"/>
<line x1="119" y1="68.5" x2="295" y2="68.5" stroke="#EAE0DA"/>
<line x1="119.003" y1="173.5" x2="275.003" y2="174.5" stroke="#EAE0DA"/>
<path d="M119 203L269.551 202.516" stroke="#EAE0DA"/>
<line x1="407" y1="202.5" x2="469" y2="202.5" stroke="#EAE0DA"/>
<line x1="407" y1="80.5" x2="469" y2="80.5" stroke="#EAE0DA"/>
<defs>
<filter id="filter0_di_154_344" x="112" y="0" width="365" height="365" filterUnits="userSpaceOnUse" color-interpolation-filters="sRGB">
<feFlood flood-opacity="0" result="BackgroundImageFix"/>
<feColorMatrix in="SourceAlpha" type="matrix" values="0 0 0 0 0 0 0 0 0 0 0 0 0 0 0 0 0 0 127 0" result="hardAlpha"/>
<feOffset/>
<feGaussianBlur stdDeviation="10"/>
<feComposite in2="hardAlpha" operator="out"/>
<feColorMatrix type="matrix" values="0 0 0 0 1 0 0 0 0 1 0 0 0 0 1 0 0 0 0.2 0"/>
<feBlend mode="normal" in2="BackgroundImageFix" result="effect1_dropShadow_154_344"/>
<feBlend mode="normal" in="SourceGraphic" in2="effect1_dropShadow_154_344" result="shape"/>
<feColorMatrix in="SourceAlpha" type="matrix" values="0 0 0 0 0 0 0 0 0 0 0 0 0 0 0 0 0 0 127 0" result="hardAlpha"/>
<feOffset/>
<feGaussianBlur stdDeviation="40"/>
<feComposite in2="hardAlpha" operator="arithmetic" k2="-1" k3="1"/>
<feColorMatrix type="matrix" values="0 0 0 0 0 0 0 0 0 0 0 0 0 0 0 0 0 0 1 0"/>
<feBlend mode="normal" in2="shape" result="effect2_innerShadow_154_344"/>
</filter>
<linearGradient id="paint0_linear_154_344" x1="440" y1="48.5" x2="322" y2="170" gradientUnits="userSpaceOnUse">
<stop stop-color="#0E7E7F"/>
<stop offset="1" stop-color="#D5B597"/>
</linearGradient>
<linearGradient id="paint1_linear_154_344" x1="209" y1="134" x2="305" y2="145.996" gradientUnits="userSpaceOnUse">
<stop stop-color="#567C62"/>
<stop offset="1" stop-color="#448D86"/>
</linearGradient>
<linearGradient id="paint2_linear_154_344" x1="441" y1="190" x2="215.5" y2="252" gradientUnits="userSpaceOnUse">
<stop stop-color="#477D68"/>
<stop offset="1" stop-color="#357D76"/>
</linearGradient>
<linearGradient id="paint3_linear_154_344" x1="209" y1="134" x2="296.002" y2="182.497" gradientUnits="userSpaceOnUse">
<stop stop-color="#AEABA8"/>
<stop offset="1" stop-color="#998A85"/>
<stop offset="1" stop-color="#95908E"/>
</linearGradient>
<linearGradient id="paint4_linear_154_344" x1="441" y1="190" x2="215.5" y2="252" gradientUnits="userSpaceOnUse">
<stop stop-color="#AEA9A8"/>
<stop offset="1" stop-color="#8E8481"/>
</linearGradient>
<linearGradient id="paint5_linear_154_344" x1="440" y1="48.5" x2="322" y2="170" gradientUnits="userSpaceOnUse">
<stop stop-color="#D2BEBB"/>
<stop offset="1" stop-color="#8B8886"/>
</linearGradient>
<linearGradient id="paint6_linear_154_344" x1="368.5" y1="191.5" x2="266.5" y2="215.5" gradientUnits="userSpaceOnUse">
<stop stop-color="#AA0000"/>
<stop offset="1" stop-color="#B51308"/>
</linearGradient>
<linearGradient id="paint7_linear_154_344" x1="368.5" y1="191.5" x2="266.5" y2="215.5" gradientUnits="userSpaceOnUse">
<stop stop-color="#EE500D"/>
<stop offset="1" stop-color="#E3612A"/>
</linearGradient>
<linearGradient id="paint8_linear_154_344" x1="328.5" y1="145" x2="265.5" y2="215.5" gradientUnits="userSpaceOnUse">
<stop stop-color="white"/>
<stop offset="1" stop-color="#FBFF35"/>
</linearGradient>
<clipPath id="clip0_154_344">
<rect x="132" y="20" width="325" height="325" rx="162.5" fill="white"/>
</clipPath>
</defs>
</svg>
