<svg width="600" height="300" viewBox="0 0 600 300" fill="none" xmlns="http://www.w3.org/2000/svg">
<rect width="600" height="300" fill="url(#paint0_linear_101_2)"/>
<ellipse cx="130" cy="243.5" rx="19" ry="6.5" fill="url(#paint1_radial_101_2)" fill-opacity="0.43"/>
<ellipse cx="349" cy="124.5" rx="27" ry="9.5" fill="url(#paint2_diamond_101_2)" fill-opacity="0.05"/>
<ellipse cx="560.5" cy="134.5" rx="17.5" ry="5.5" fill="url(#paint3_diamond_101_2)" fill-opacity="0.05"/>
<path d="M264 139.5C264 141.985 256.389 144 247 144C237.611 144 230 141.985 230 139.5C230 137.015 237.611 135 247 135C256.389 135 264 137.015 264 139.5Z" fill="url(#paint4_diamond_101_2)" fill-opacity="0.05"/>
<path d="M111 84.5C111 86.9853 103.389 89 94 89C84.6112 89 77 86.9853 77 84.5C77 82.0147 84.6112 80 94 80C103.389 80 111 82.0147 111 84.5Z" fill="url(#paint5_diamond_101_2)" fill-opacity="0.05"/>
<ellipse cx="275.5" cy="233.5" rx="13.5" ry="3.5" fill="url(#paint6_radial_101_2)" fill-opacity="0.43"/>
<circle cx="491" cy="261" r="5" fill="url(#paint7_radial_101_2)" fill-opacity="0.43"/>
<path d="M176 89H593V165H176V89Z" fill="url(#paint8_diamond_101_2)" fill-opacity="0.11"/>
<path d="M69 39H486V115H69V39Z" fill="url(#paint9_diamond_101_2)" fill-opacity="0.11"/>
<defs>
<linearGradient id="paint0_linear_101_2" x1="300" y1="0" x2="300" y2="300" gradientUnits="userSpaceOnUse">
<stop stop-color="#1F349F"/>
<stop offset="0.333333" stop-color="#338CC1"/>
<stop offset="0.520833" stop-color="#2892D7"/>
<stop offset="0.635417" stop-color="#2295E5"/>
<stop offset="0.796875" stop-color="#3274E2"/>
<stop offset="0.96875" stop-color="#1C319D"/>
</linearGradient>
<radialGradient id="paint1_radial_101_2" cx="0" cy="0" r="1" gradientUnits="userSpaceOnUse" gradientTransform="translate(130 243.5) rotate(90) scale(6.5 19)">
<stop/>
<stop offset="1" stop-opacity="0"/>
</radialGradient>
<radialGradient id="paint2_diamond_101_2" cx="0" cy="0" r="1" gradientUnits="userSpaceOnUse" gradientTransform="translate(349 124.5) rotate(90) scale(9.5 27)">
<stop stop-color="white"/>
<stop offset="1" stop-color="white" stop-opacity="0"/>
</radialGradient>
<radialGradient id="paint3_diamond_101_2" cx="0" cy="0" r="1" gradientUnits="userSpaceOnUse" gradientTransform="translate(560.5 134.5) rotate(90) scale(5.5 17.5)">
<stop stop-color="white"/>
<stop offset="1" stop-color="white" stop-opacity="0"/>
</radialGradient>
<radialGradient id="paint4_diamond_101_2" cx="0" cy="0" r="1" gradientUnits="userSpaceOnUse" gradientTransform="translate(247 139.5) rotate(90) scale(4.5 17)">
<stop stop-color="white"/>
<stop offset="1" stop-color="white" stop-opacity="0"/>
</radialGradient>
<radialGradient id="paint5_diamond_101_2" cx="0" cy="0" r="1" gradientUnits="userSpaceOnUse" gradientTransform="translate(94 84.5) rotate(90) scale(4.5 17)">
<stop stop-color="white"/>
<stop offset="1" stop-color="white" stop-opacity="0"/>
</radialGradient>
<radialGradient id="paint6_radial_101_2" cx="0" cy="0" r="1" gradientUnits="userSpaceOnUse" gradientTransform="translate(275.5 233.5) rotate(90) scale(3.5 13.5)">
<stop/>
<stop offset="1" stop-opacity="0"/>
</radialGradient>
<radialGradient id="paint7_radial_101_2" cx="0" cy="0" r="1" gradientUnits="userSpaceOnUse" gradientTransform="translate(491 261) rotate(90) scale(5)">
<stop/>
<stop offset="1" stop-opacity="0"/>
</radialGradient>
<radialGradient id="paint8_diamond_101_2" cx="0" cy="0" r="1" gradientUnits="userSpaceOnUse" gradientTransform="translate(384.5 127) rotate(90) scale(38 208.5)">
<stop stop-color="white" stop-opacity="0.58"/>
<stop offset="1" stop-color="white" stop-opacity="0"/>
</radialGradient>
<radialGradient id="paint9_diamond_101_2" cx="0" cy="0" r="1" gradientUnits="userSpaceOnUse" gradientTransform="translate(277.5 77) rotate(90) scale(38 208.5)">
<stop stop-color="white" stop-opacity="0.58"/>
<stop offset="1" stop-color="white" stop-opacity="0"/>
</radialGradient>
</defs>
</svg>
