<svg width="1282" height="539" viewBox="0 0 1282 539" fill="none" xmlns="http://www.w3.org/2000/svg">
<g clip-path="url(#clip0_40_3)">
<rect width="1282" height="539" fill="#D64802"/>
<rect x="-202" y="-38" width="637" height="159" rx="79.5" fill="#D65B02"/>
<rect x="407" y="170" width="264" height="60" rx="30" fill="#832F00" fill-opacity="0.28"/>
<rect x="964" y="110" width="637" height="159" rx="79.5" fill="#D65B02"/>
<rect x="-408" y="301" width="637" height="159" rx="79.5" fill="#D65B02"/>
<rect x="256" y="189" width="637" height="159" rx="79.5" fill="#D65B02"/>
<rect x="803" y="413" width="264" height="60" rx="30" fill="#832F00" fill-opacity="0.28"/>
<rect x="916" y="21" width="264" height="60" rx="30" fill="#832F00" fill-opacity="0.28"/>
<rect x="174" y="420" width="400" height="80" rx="40" fill="#FFB800" fill-opacity="0.26"/>
<rect x="150" y="81" width="400" height="80" rx="40" fill="#FFB800" fill-opacity="0.26"/>
<rect x="735" y="231" width="400" height="80" rx="40" fill="#C53B00" fill-opacity="0.26"/>
<rect x="693" y="96" width="400" height="80" rx="40" fill="#FFF500" fill-opacity="0.26"/>
<rect x="780" y="311" width="400" height="80" rx="40" fill="#FFE600" fill-opacity="0.43"/>
<rect x="116" y="37" width="400" height="80" rx="40" fill="#FFE600" fill-opacity="0.43"/>
<rect x="35" y="473" width="400" height="80" rx="40" fill="#FFE600" fill-opacity="0.43"/>
<rect x="1026" y="30" width="400" height="80" rx="40" fill="#FFE600" fill-opacity="0.43"/>
<rect x="780" y="444" width="400" height="80" rx="40" fill="#FFE600" fill-opacity="0.43"/>
<rect x="71" y="284" width="400" height="80" rx="40" fill="#FFF500" fill-opacity="0.26"/>
<rect x="71" y="364" width="400" height="80" rx="40" fill="#C53B00" fill-opacity="0.26"/>
<rect x="907" y="70" width="400" height="80" rx="40" fill="#C53B00" fill-opacity="0.26"/>
<rect x="335" y="70" width="400" height="80" rx="40" fill="#C53B00" fill-opacity="0.26"/>
<rect x="197" y="231" width="400" height="80" rx="40" fill="#C53B00" fill-opacity="0.26"/>
<rect x="-50" y="191" width="400" height="80" rx="40" fill="#FFB800" fill-opacity="0.26"/>
<rect x="535" y="308" width="400" height="80" rx="40" fill="#FFB800" fill-opacity="0.26"/>
<rect x="854" y="-38" width="400" height="80" rx="40" fill="#FFB800" fill-opacity="0.26"/>
<rect x="471" y="30" width="400" height="80" rx="40" fill="#FFB800" fill-opacity="0.26"/>
<rect x="893" y="420" width="400" height="80" rx="40" fill="#FFB800" fill-opacity="0.26"/>
<rect x="417" y="460" width="637" height="159" rx="79.5" fill="#D65B02"/>
<rect x="-128" y="146" width="264" height="60" rx="30" fill="#832F00" fill-opacity="0.28"/>
<rect x="372" y="443" width="264" height="60" rx="30" fill="#832F00" fill-opacity="0.28"/>
<rect x="716" y="161" width="264" height="60" rx="30" fill="#832F00" fill-opacity="0.28"/>
<rect x="-128" y="453" width="264" height="60" rx="30" fill="#832F00" fill-opacity="0.28"/>
</g>
<defs>
<clipPath id="clip0_40_3">
<rect width="1282" height="539" fill="white"/>
</clipPath>
</defs>
</svg>
